<svg width="50" height="50" viewBox="0 0 50 50" fill="none" xmlns="http://www.w3.org/2000/svg">
<path d="M25 0C20.0555 0 15.222 1.46622 11.1108 4.21326C6.99952 6.96029 3.79521 10.8648 1.90302 15.4329C0.0108321 20.0011 -0.484251 25.0277 0.480379 29.8773C1.44501 34.7268 3.82603 39.1814 7.32234 42.6777C10.8187 46.174 15.2732 48.555 20.1227 49.5196C24.9723 50.4842 29.9989 49.9892 34.5671 48.097C39.1352 46.2048 43.0397 43.0005 45.7867 38.8892C48.5338 34.778 50 29.9445 50 25C49.9917 18.3721 47.3552 12.0181 42.6685 7.33146C37.9819 2.64485 31.6279 0.00826934 25 0ZM34.6154 26.9231H26.9231V34.6154C26.9231 35.1254 26.7205 35.6146 26.3598 35.9752C25.9992 36.3358 25.51 36.5385 25 36.5385C24.49 36.5385 24.0008 36.3358 23.6402 35.9752C23.2795 35.6146 23.0769 35.1254 23.0769 34.6154V26.9231H15.3846C14.8746 26.9231 14.3854 26.7205 14.0248 26.3598C13.6642 25.9992 13.4615 25.51 13.4615 25C13.4615 24.49 13.6642 24.0008 14.0248 23.6402C14.3854 23.2795 14.8746 23.0769 15.3846 23.0769H23.0769V15.3846C23.0769 14.8746 23.2795 14.3854 23.6402 14.0248C24.0008 13.6641 24.49 13.4615 25 13.4615C25.51 13.4615 25.9992 13.6641 26.3598 14.0248C26.7205 14.3854 26.9231 14.8746 26.9231 15.3846V23.0769H34.6154C35.1254 23.0769 35.6146 23.2795 35.9752 23.6402C36.3359 24.0008 36.5385 24.49 36.5385 25C36.5385 25.51 36.3359 25.9992 35.9752 26.3598C35.6146 26.7205 35.1254 26.9231 34.6154 26.9231Z" fill="#F1C6E7"/>
</svg>
