<svg width="44" height="44" viewBox="0 0 44 44" fill="none" xmlns="http://www.w3.org/2000/svg">
<path d="M39.2902 35.4444H4.70774C4.38018 35.4444 4.06603 35.2614 3.83441 34.9357C3.60278 34.61 3.47266 34.1682 3.47266 33.7075C3.47266 33.2469 3.60278 32.8051 3.83441 32.4794C4.06603 32.1537 4.38018 31.9707 4.70774 31.9707H39.2902C39.6178 31.9707 39.9319 32.1537 40.1635 32.4794C40.3952 32.8051 40.5253 33.2469 40.5253 33.7075C40.5253 34.1682 40.3952 34.61 40.1635 34.9357C39.9319 35.2614 39.6178 35.4444 39.2902 35.4444Z" fill="#BD83CE"/>
<path d="M39.2902 23.2227H4.70774C4.38018 23.2227 4.06603 23.0397 3.83441 22.714C3.60278 22.3883 3.47266 21.9465 3.47266 21.4859C3.47266 21.0252 3.60278 20.5835 3.83441 20.2577C4.06603 19.932 4.38018 19.749 4.70774 19.749H39.2902C39.6178 19.749 39.9319 19.932 40.1635 20.2577C40.3952 20.5835 40.5253 21.0252 40.5253 21.4859C40.5253 21.9465 40.3952 22.3883 40.1635 22.714C39.9319 23.0397 39.6178 23.2227 39.2902 23.2227Z" fill="#BD83CE"/>
<path d="M39.2902 12.0293H4.70774C4.38018 12.0293 4.06603 11.8464 3.83441 11.5206C3.60278 11.1949 3.47266 10.7531 3.47266 10.2925C3.47266 9.83187 3.60278 9.39009 3.83441 9.06437C4.06603 8.73865 4.38018 8.55566 4.70774 8.55566H39.2902C39.6178 8.55566 39.9319 8.73865 40.1635 9.06437C40.3952 9.39009 40.5253 9.83187 40.5253 10.2925C40.5253 10.7531 40.3952 11.1949 40.1635 11.5206C39.9319 11.8464 39.6178 12.0293 39.2902 12.0293Z" fill="#BD83CE"/>
</svg>
