<svg width="30" height="30" viewBox="0 0 30 30" fill="none" xmlns="http://www.w3.org/2000/svg">
<path d="M30 9.13298C30.0005 8.41805 29.8722 7.71297 29.6255 7.07454C29.3788 6.43612 29.0205 5.8822 28.5796 5.45742C28.1387 5.03263 27.6274 4.74886 27.087 4.62897C26.5466 4.50908 25.9922 4.55641 25.4684 4.76716C24.9446 4.97791 24.4661 5.34618 24.0714 5.8423C23.6767 6.33842 23.3769 6.94852 23.1961 7.62344C23.0153 8.29836 22.9585 9.01923 23.0305 9.72798C23.1024 10.4367 23.301 11.1135 23.6102 11.7039L20.2615 17.0836L17.2504 8.05702C17.7996 7.45419 18.1933 6.6457 18.3784 5.74115C18.5634 4.83661 18.5306 3.87974 18.2846 3.00026C18.0386 2.12078 17.5912 1.36122 17.0031 0.824535C16.415 0.287851 15.7145 0 14.9967 0C14.2789 0 13.5785 0.287851 12.9903 0.824535C12.4022 1.36122 11.9548 2.12078 11.7088 3.00026C11.4628 3.87974 11.4301 4.83661 11.6151 5.74115C11.8001 6.6457 12.1938 7.45419 12.743 8.05702L9.73937 17.0787L6.39072 11.699C6.82088 10.8769 7.03326 9.89402 6.9955 8.89999C6.95775 7.90596 6.67193 6.95526 6.18158 6.19267C5.69123 5.43009 5.02322 4.89742 4.27929 4.67579C3.53535 4.45416 2.75626 4.55571 2.06067 4.96498C1.36508 5.37424 0.791113 6.0688 0.426175 6.94286C0.0612378 7.81693 -0.0746667 8.8226 0.0391598 9.80672C0.152986 10.7908 0.510306 11.6995 1.0567 12.3942C1.60309 13.089 2.30862 13.5318 3.06582 13.6553L4.87577 27.8204C4.95358 28.4294 5.19449 28.9826 5.55566 29.3817C5.91683 29.7808 6.37483 29.9999 6.84821 30H23.1527C23.6261 29.9999 24.0841 29.7808 24.4453 29.3817C24.8064 28.9826 25.0473 28.4294 25.1251 27.8204L26.9338 13.6618C27.7803 13.5239 28.559 12.9876 29.1236 12.1536C29.6882 11.3197 29.9999 10.2455 30 9.13298ZM15.0005 2.61203C15.2971 2.61203 15.5871 2.72676 15.8338 2.94172C16.0805 3.15668 16.2727 3.46221 16.3862 3.81968C16.4998 4.17714 16.5295 4.57048 16.4716 4.94997C16.4137 5.32945 16.2709 5.67802 16.0611 5.95162C15.8513 6.22521 15.584 6.41152 15.2931 6.48701C15.0021 6.56249 14.7005 6.52375 14.4264 6.37568C14.1524 6.22762 13.9181 5.97688 13.7533 5.65517C13.5885 5.33346 13.5005 4.95523 13.5005 4.56831C13.5005 4.04947 13.6585 3.55189 13.9398 3.18501C14.2211 2.81814 14.6026 2.61203 15.0005 2.61203ZM2.00085 9.13298C2.00085 8.74606 2.08882 8.36783 2.25364 8.04612C2.41846 7.72441 2.65272 7.47367 2.9268 7.3256C3.20088 7.17754 3.50247 7.1388 3.79343 7.21428C4.0844 7.28976 4.35166 7.47608 4.56144 7.74967C4.77121 8.02326 4.91407 8.37184 4.97194 8.75132C5.02982 9.13081 5.00011 9.52415 4.88659 9.88161C4.77306 10.2391 4.5808 10.5446 4.33414 10.7596C4.08747 10.9745 3.79747 11.0893 3.50081 11.0893C3.103 11.0893 2.72148 10.8832 2.44018 10.5163C2.15888 10.1494 2.00085 9.65181 2.00085 9.13298ZM23.1527 27.3916H6.84821L5.10826 13.7824L9.22438 20.3816C9.31761 20.5335 9.4357 20.6562 9.57001 20.7408C9.70432 20.8255 9.85145 20.8698 10.0006 20.8707C10.0458 20.8709 10.0909 20.867 10.1356 20.8593C10.306 20.8291 10.4675 20.7421 10.6045 20.6067C10.7416 20.4714 10.8496 20.2922 10.9181 20.0865L14.5805 9.09874C14.8594 9.14436 15.1415 9.14436 15.4204 9.09874L19.0828 20.0865C19.1513 20.2922 19.2593 20.4714 19.3964 20.6067C19.5334 20.7421 19.695 20.8291 19.8653 20.8593C19.9101 20.867 19.9552 20.8709 20.0003 20.8707C20.1495 20.8698 20.2966 20.8255 20.4309 20.7408C20.5652 20.6562 20.6833 20.5335 20.7765 20.3816L24.8927 13.7759L23.1527 27.3916ZM26.5001 11.0893C26.2034 11.0893 25.9134 10.9745 25.6668 10.7596C25.4201 10.5446 25.2279 10.2391 25.1143 9.88161C25.0008 9.52415 24.9711 9.13081 25.029 8.75132C25.0868 8.37184 25.2297 8.02326 25.4395 7.74967C25.6493 7.47608 25.9165 7.28976 26.2075 7.21428C26.4984 7.1388 26.8 7.17754 27.0741 7.3256C27.3482 7.47367 27.5825 7.72441 27.7473 8.04612C27.9121 8.36783 28.0001 8.74606 28.0001 9.13298C28.0001 9.65181 27.842 10.1494 27.5607 10.5163C27.2794 10.8832 26.8979 11.0893 26.5001 11.0893Z" fill="black"/>
</svg>
