<svg width="30" height="30" viewBox="0 0 30 30" fill="none" xmlns="http://www.w3.org/2000/svg">
<path d="M6.46065 3.72772C6.51559 3.72741 6.57054 3.72709 6.62715 3.72677C6.81138 3.72593 6.99559 3.72635 7.17982 3.72676C7.31188 3.72643 7.44394 3.72602 7.57601 3.72555C7.93498 3.72449 8.29395 3.72456 8.65293 3.7249C8.95285 3.72508 9.25277 3.72472 9.5527 3.72437C10.3013 3.7235 11.0499 3.72371 11.7985 3.72442C12.4472 3.725 13.0958 3.72424 13.7445 3.72284C14.4115 3.72141 15.0785 3.72087 15.7456 3.72124C16.1197 3.72144 16.4937 3.7213 16.8678 3.72029C17.2201 3.71938 17.5724 3.71962 17.9247 3.72071C18.0535 3.72093 18.1823 3.72075 18.3111 3.72014C19.5881 3.7145 20.6095 3.94625 21.5616 4.86372C21.8963 5.24858 22.1516 5.67223 22.3233 6.15278C22.3385 6.19272 22.3537 6.23267 22.3693 6.27382C22.5393 6.78851 22.5298 7.31038 22.5285 7.84658C22.5284 8.00977 22.5309 8.1728 22.5335 8.33597C22.5338 8.44099 22.5339 8.54601 22.5339 8.65103C22.5349 8.69914 22.5358 8.74724 22.5368 8.79681C22.5326 9.15488 22.4289 9.38886 22.2062 9.66841C21.8648 9.99268 21.5508 10.0443 21.0931 10.0342C20.7329 10.0051 20.4954 9.91656 20.2506 9.64644C20.0131 9.35587 19.9651 9.09001 19.9615 8.71878C19.96 8.63642 19.9586 8.55406 19.957 8.4717C19.9554 8.34327 19.954 8.21485 19.9529 8.08642C19.9635 7.3388 19.9635 7.3388 19.6507 6.67875C19.6178 6.65262 19.585 6.62649 19.5511 6.59956C19.5187 6.57252 19.4863 6.54548 19.4529 6.51762C19.1273 6.3191 18.8123 6.31213 18.4434 6.31526C18.3902 6.31524 18.337 6.31523 18.2822 6.31521C18.1071 6.31529 17.9322 6.3162 17.7572 6.31712C17.6355 6.31734 17.5138 6.31751 17.3921 6.31762C17.0725 6.31807 16.7529 6.31922 16.4333 6.32052C16.1069 6.32172 15.7805 6.32225 15.4541 6.32284C14.8142 6.3241 14.1742 6.3261 13.5343 6.32856C13.6118 6.35775 13.6118 6.35775 13.6908 6.38753C13.8857 6.4612 14.0803 6.53529 14.2749 6.60966C14.3586 6.64153 14.4423 6.67323 14.526 6.70476C15.7673 7.17236 16.651 7.72322 17.2435 8.94743C17.5391 9.63554 17.535 10.3249 17.532 11.0606C17.5319 11.1715 17.5319 11.2825 17.532 11.3934C17.532 11.6931 17.5314 11.9928 17.5305 12.2925C17.5298 12.6062 17.5297 12.92 17.5296 13.2337C17.5292 13.8272 17.5283 14.4207 17.5271 15.0141C17.5258 15.69 17.5251 16.366 17.5246 17.0419C17.5233 18.4317 17.5213 19.8215 17.5187 21.2114C17.7641 21.2066 18.0094 21.2 18.2547 21.1931C18.324 21.1917 18.3932 21.1904 18.4645 21.1891C18.9259 21.1748 19.2445 21.1423 19.6134 20.8488C20.0047 20.3597 19.947 19.782 19.9465 19.189C19.9482 18.259 19.9482 18.259 20.214 17.8715C20.344 17.7452 20.344 17.7452 20.4776 17.6665C20.5218 17.6393 20.5659 17.6121 20.6113 17.5841C20.9353 17.4243 21.2974 17.4031 21.6443 17.5014C21.9569 17.6272 22.1377 17.766 22.3233 18.0473C22.4434 18.3322 22.4544 18.5911 22.4453 18.8955C22.4443 18.9428 22.4432 18.9901 22.4422 19.0387C22.4398 19.1385 22.437 19.2383 22.434 19.3381C22.4296 19.4885 22.4267 19.6389 22.4239 19.7893C22.407 20.504 22.3287 21.1561 21.9974 21.801C21.9771 21.8406 21.9568 21.8801 21.9359 21.9209C21.439 22.8472 20.6338 23.3731 19.6557 23.6796C19.3173 23.7649 18.9917 23.7968 18.6432 23.7952C18.5705 23.795 18.4978 23.7948 18.4229 23.7947C18.3106 23.7939 18.3106 23.7939 18.1961 23.7932C18.0815 23.7928 18.0815 23.7928 17.9646 23.7924C17.7769 23.7917 17.5892 23.7907 17.4015 23.7895C17.4042 23.8497 17.4069 23.9099 17.4097 23.9719C17.4378 24.8552 17.2053 25.442 16.6208 26.114C16.1998 26.5607 15.7499 26.8662 15.128 26.911C15.0399 26.9133 14.9518 26.9153 14.8636 26.9169C14.8217 26.9191 14.7799 26.9213 14.7367 26.9236C14.2683 26.9309 13.8496 26.763 13.4171 26.602C13.354 26.5786 13.354 26.5786 13.2896 26.5548C13.009 26.4505 12.7294 26.3438 12.4501 26.2363C12.1794 26.1321 11.9084 26.0286 11.6375 25.925C11.5813 25.9034 11.5251 25.8819 11.4672 25.8598C10.9184 25.6497 10.3686 25.4423 9.81872 25.2351C9.49101 25.1115 9.16347 24.9876 8.83591 24.8636C8.53732 24.7507 8.23863 24.638 7.93981 24.5256C7.62001 24.4054 7.30043 24.2846 6.98097 24.1634C6.85861 24.1171 6.73618 24.071 6.61368 24.0251C6.44354 23.9614 6.27368 23.8969 6.10386 23.8323C6.05351 23.8136 6.00316 23.7949 5.95129 23.7756C5.49362 23.6 5.25903 23.4108 5.04263 22.9655C4.93038 22.659 4.93974 22.3577 4.94318 22.0346C4.94281 21.96 4.94243 21.8855 4.94205 21.8086C4.94106 21.6032 4.94188 21.3978 4.94301 21.1923C4.94392 20.9702 4.94313 20.7481 4.94256 20.526C4.94171 20.0916 4.94242 19.6572 4.94368 19.2228C4.94509 18.7169 4.94499 18.2111 4.94483 17.7052C4.94462 16.8029 4.94584 15.9006 4.94784 14.9983C4.94978 14.1225 4.9506 13.2467 4.95024 12.3709C4.94984 11.4169 4.94999 10.4628 4.95114 9.50879C4.9512 9.45838 4.95126 9.40797 4.95132 9.35604C4.95145 9.25479 4.95157 9.15355 4.95169 9.05231C4.9521 8.69952 4.95214 8.34673 4.95205 7.99393C4.95197 7.56445 4.95253 7.13497 4.95393 6.70548C4.95462 6.48627 4.95504 6.26708 4.9547 6.04787C4.95434 5.81061 4.95534 5.57338 4.95648 5.33612C4.95617 5.26636 4.95586 5.19659 4.95554 5.12471C4.95607 5.06145 4.9566 4.99819 4.95715 4.93301C4.95724 4.87822 4.95733 4.82343 4.95742 4.76697C4.98386 4.60284 5.03266 4.56033 5.15537 4.45356C5.17108 4.40643 5.1868 4.3593 5.20298 4.31074C5.29897 4.1036 5.42965 4.04062 5.62412 3.92622C5.66511 3.89542 5.70609 3.86462 5.74831 3.83288C5.98741 3.71609 6.19785 3.72592 6.46065 3.72772Z" fill="black"/>
<path d="M24.433 10.1369C24.9897 10.5727 25.4777 11.1121 25.9765 11.611C26.1255 11.7598 26.2749 11.9081 26.4243 12.0565C26.5197 12.1517 26.6151 12.2469 26.7104 12.3422C26.7548 12.3862 26.7991 12.4301 26.8449 12.4754C27.2458 12.8781 27.4856 13.1758 27.4946 13.7588C27.4968 13.8463 27.4968 13.8463 27.4991 13.9357C27.442 14.4873 27.0793 14.7918 26.7031 15.1657C26.6428 15.2263 26.5826 15.2869 26.5224 15.3475C26.3964 15.4741 26.27 15.6003 26.1432 15.7261C25.9818 15.8866 25.8215 16.0482 25.6616 16.2102C25.5376 16.3355 25.4128 16.4602 25.2879 16.5846C25.2286 16.6439 25.1695 16.7034 25.1106 16.7631C24.734 17.1444 24.3968 17.4484 23.8597 17.5509C23.4615 17.5454 23.1581 17.4672 22.8652 17.1867C22.5405 16.822 22.4723 16.5607 22.4811 16.0702C22.5164 15.7018 22.6573 15.483 22.9149 15.2277C22.9468 15.1961 22.9787 15.1644 23.0115 15.1318C23.0359 15.1077 23.0602 15.0836 23.0854 15.0588C23.0424 15.0586 22.9994 15.0584 22.9551 15.0582C22.5482 15.0559 22.1414 15.0526 21.7345 15.048C21.5254 15.0457 21.3163 15.0438 21.1071 15.0429C20.905 15.042 20.7029 15.04 20.5008 15.0372C20.3868 15.0359 20.2728 15.0358 20.1589 15.0357C19.7006 15.0282 19.3347 14.9965 18.9932 14.6594C18.972 14.6256 18.9507 14.5919 18.9289 14.5571C18.9066 14.5232 18.8843 14.4893 18.8614 14.4543C18.6702 14.1007 18.6787 13.5458 18.7895 13.1623C18.9691 12.8269 19.2716 12.5981 19.6283 12.4807C19.7948 12.4644 19.7948 12.4644 19.9789 12.462C20.0481 12.4608 20.1173 12.4597 20.1886 12.4585C20.2627 12.4578 20.3368 12.4571 20.4132 12.4564C20.4895 12.4553 20.5658 12.4542 20.6444 12.453C20.8466 12.45 21.0488 12.4477 21.251 12.4455C21.4576 12.4431 21.6642 12.4401 21.8708 12.4372C22.2757 12.4315 22.6805 12.4266 23.0854 12.4221C23.0571 12.3945 23.0287 12.367 22.9996 12.3386C22.9625 12.3021 22.9255 12.2656 22.8873 12.228C22.8505 12.192 22.8137 12.156 22.7758 12.1189C22.4713 11.7952 22.4656 11.4644 22.4749 11.0406C22.5188 10.6816 22.6792 10.4845 22.9279 10.2358C23.412 9.93184 23.9126 9.84375 24.433 10.1369Z" fill="black"/>
</svg>
