<svg width="30" height="25" viewBox="0 0 30 25" fill="none" xmlns="http://www.w3.org/2000/svg">
<path d="M23.75 21.4286V25H8.75V21.4286C8.75 21.4286 8.75 14.2857 16.25 14.2857C23.75 14.2857 23.75 21.4286 23.75 21.4286ZM20 5.35714C20 4.2976 19.7801 3.26185 19.368 2.38088C18.956 1.4999 18.3703 0.81326 17.6851 0.407791C16.9998 0.00232117 16.2458 -0.103768 15.5184 0.102938C14.791 0.309645 14.1228 0.819863 13.5983 1.56907C13.0739 2.31828 12.7167 3.27283 12.5721 4.31202C12.4274 5.3512 12.5016 6.42834 12.7855 7.40723C13.0693 8.38612 13.5499 9.22279 14.1666 9.81144C14.7833 10.4001 15.5083 10.7143 16.25 10.7143C17.2446 10.7143 18.1984 10.1499 18.9017 9.14522C19.6049 8.14056 20 6.77795 20 5.35714ZM24 14.3929C24.6833 15.2934 25.2342 16.3794 25.6205 17.5873C26.0068 18.7953 26.2208 20.1011 26.25 21.4286V25H30V21.4286C30 21.4286 30 15.2679 24 14.3929ZM22.5 2.0384e-06C22.1223 3.33953e-05 21.747 0.0843842 21.3875 0.250002C22.1188 1.74816 22.5109 3.53069 22.5109 5.35714C22.5109 7.1836 22.1188 8.96613 21.3875 10.4643C21.747 10.6299 22.1223 10.7143 22.5 10.7143C23.4946 10.7143 24.4484 10.1499 25.1517 9.14522C25.8549 8.14056 26.25 6.77795 26.25 5.35714C26.25 3.93634 25.8549 2.57373 25.1517 1.56907C24.4484 0.564414 23.4946 2.0384e-06 22.5 2.0384e-06ZM10 8.92857H6.25V3.57143H3.75V8.92857H0V12.5H3.75V17.8571H6.25V12.5H10V8.92857Z" fill="black"/>
</svg>
