<svg width="24" height="25" viewBox="0 0 24 25" fill="none" xmlns="http://www.w3.org/2000/svg">
<path d="M3.5 7.0036C3.5 5.67682 4.02678 4.40439 4.96447 3.46621C5.90215 2.52804 7.17392 2.00098 8.5 2.00098C9.82608 2.00098 11.0979 2.52804 12.0355 3.46621C12.9732 4.40439 13.5 5.67682 13.5 7.0036C13.5 8.33038 12.9732 9.60282 12.0355 10.541C11.0979 11.4792 9.82608 12.0062 8.5 12.0062C7.17392 12.0062 5.90215 11.4792 4.96447 10.541C4.02678 9.60282 3.5 8.33038 3.5 7.0036ZM5 14.0073C3.67392 14.0073 2.40215 14.5343 1.46447 15.4725C0.526784 16.4107 0 17.6831 0 19.0099L0 21.011H17V19.0099C17 17.6831 16.4732 16.4107 15.5355 15.4725C14.5979 14.5343 13.3261 14.0073 12 14.0073H5ZM24 21.011H19V19.0099C19 17.0499 18.196 15.2779 16.9 14.0073H19C19.6566 14.0073 20.3068 14.1367 20.9134 14.3881C21.52 14.6395 22.0712 15.008 22.5355 15.4725C22.9998 15.9371 23.3681 16.4885 23.6194 17.0955C23.8707 17.7024 24 18.353 24 19.0099V21.011ZM15.5 12.0062C14.8896 12.0065 14.2843 11.8949 13.714 11.6771C14.8666 10.3939 15.5029 8.72883 15.5 7.0036C15.5027 5.27825 14.866 3.61315 13.713 2.33015C14.398 2.06841 15.1322 1.96063 15.8636 2.01446C16.5949 2.06828 17.3054 2.2824 17.9448 2.64162C18.5842 3.00084 19.1368 3.49637 19.5634 4.0931C19.99 4.68983 20.2803 5.37314 20.4135 6.09461C20.5468 6.81608 20.5198 7.55804 20.3344 8.2679C20.1491 8.97777 19.81 9.63816 19.3411 10.2023C18.8723 10.7664 18.2851 11.2204 17.6213 11.5322C16.9575 11.8439 16.2333 12.0058 15.5 12.0062Z" fill="black"/>
</svg>
