<svg width="25" height="25" viewBox="0 0 25 25" fill="none" xmlns="http://www.w3.org/2000/svg">
<path d="M12.71 0.53125C13.1807 0.427538 13.6872 0.5687 14.4473 1.13281C15.0226 1.55981 15.6839 2.18387 16.5186 3.00977L17.4141 3.90332L21.123 7.61523C22.3937 8.88662 23.3052 9.80075 23.8701 10.5635C24.4297 11.319 24.5715 11.8236 24.4697 12.2939H24.4688C24.3676 12.7631 24.0316 13.164 23.21 13.6201C22.3805 14.0805 21.1728 14.5357 19.4912 15.167H19.4902L17.1836 16.0332C16.327 16.3552 15.7772 16.5538 15.3496 16.9238V16.9248C15.169 17.0816 15.0086 17.2569 14.8691 17.4502L14.8672 17.4521C14.5383 17.9129 14.3913 18.4765 14.1484 19.3604C13.8568 20.4187 13.6482 21.1706 13.4316 21.71C13.2147 22.25 13.0254 22.4784 12.832 22.5889C12.6199 22.7101 12.3788 22.7734 12.1328 22.7734C11.9109 22.7733 11.6338 22.6689 11.1787 22.3066C10.7242 21.9449 10.173 21.3937 9.39746 20.6182L7.56348 18.7812L7.20996 18.4277L6.85547 18.7812L1.26367 24.3789C1.17795 24.4578 1.06584 24.5017 0.949219 24.5C0.830675 24.4983 0.71763 24.4501 0.633789 24.3662C0.549949 24.2824 0.501728 24.1694 0.5 24.0508C0.498324 23.9341 0.541218 23.8211 0.620117 23.7354L6.21387 18.1377L6.56641 17.7842L6.21289 17.4307L4.44238 15.6592C3.67238 14.8879 3.12526 14.3395 2.76562 13.8877C2.40571 13.4355 2.30037 13.1597 2.29883 12.9385C2.29725 12.6879 2.36231 12.4408 2.4873 12.2236C2.5977 12.0322 2.82555 11.8444 3.3623 11.6289C3.89825 11.4138 4.64508 11.2068 5.69531 10.917V10.918C6.57843 10.6744 7.14353 10.5249 7.60352 10.1943L7.60449 10.1953C7.80394 10.0522 7.98476 9.88443 8.14355 9.69727L8.14453 9.69824C8.51271 9.26635 8.70727 8.71378 9.02344 7.85059L9.85938 5.56934C10.4824 3.86929 10.9311 2.64823 11.3877 1.80859C11.8402 0.976462 12.2396 0.634918 12.71 0.53125Z" fill="white" stroke="black"/>
</svg>
