<svg width="20" height="25" viewBox="0 0 20 25" fill="none" xmlns="http://www.w3.org/2000/svg">
<path d="M16.9626 7.0355L14.0331 3.43938C12.0304 0.978947 11.0295 -0.248846 9.95357 0.0420424C8.87762 0.332931 8.39151 1.96554 7.41633 5.22956L6.75634 7.4391C6.49649 8.30935 6.36607 8.74447 6.13191 9.08141C6.02723 9.23291 5.90777 9.36806 5.77622 9.48381C5.48376 9.74197 5.12017 9.86439 4.39299 10.1104C2.75287 10.6655 1.93183 10.9431 1.62258 11.6012C1.48889 11.8861 1.41933 12.2094 1.42102 12.5381C1.42498 13.2981 2.02668 14.0362 3.2291 15.5137L4.62814 17.2299L0.205757 22.6599C0.0709974 22.8351 -0.00278242 23.0679 8.02974e-05 23.3088C0.00294301 23.5497 0.0822228 23.7797 0.22109 23.9501C0.359957 24.1204 0.547478 24.2177 0.743845 24.2212C0.940212 24.2247 1.12996 24.1342 1.27282 23.9689L5.69421 18.5389L7.14265 20.3182C8.35396 21.8042 8.95962 22.5484 9.58306 22.5484C9.84489 22.5484 10.1028 22.4659 10.331 22.3059C10.8724 21.9266 11.0997 20.9133 11.5552 18.8856C11.7547 17.9947 11.8545 17.5499 12.064 17.1899C12.1562 17.0332 12.2622 16.891 12.3821 16.7633C12.6538 16.4748 13.0066 16.3124 13.711 15.9876L15.5329 15.1477C18.165 13.9356 19.4811 13.3284 19.7123 12.0133C19.9444 10.6971 18.9515 9.47654 16.9626 7.0355Z" fill="black"/>
</svg>
