<svg width="30" height="38" viewBox="0 0 30 38" fill="none" xmlns="http://www.w3.org/2000/svg">
<path d="M25.7719 11.0378L21.321 5.39594C18.2782 1.53584 16.7576 -0.390407 15.1228 0.0659591C13.4881 0.522326 12.7495 3.08368 11.2679 8.20449L10.2652 11.671C9.87035 13.0363 9.6722 13.7189 9.31643 14.2475C9.15739 14.4852 8.9759 14.6973 8.77602 14.8789C8.33169 15.2839 7.77927 15.4759 6.67443 15.8619C4.18255 16.7328 2.9351 17.1683 2.46525 18.2008C2.26213 18.6477 2.15645 19.155 2.15901 19.6707C2.16502 20.863 3.07921 22.021 4.90609 24.339L7.0317 27.0315L0.312615 35.5504C0.107869 35.8253 -0.00422743 36.1905 0.000121999 36.5684C0.00447143 36.9463 0.124924 37.3072 0.33591 37.5745C0.546896 37.8418 0.831803 37.9943 1.13015 37.9998C1.4285 38.0054 1.7168 37.8634 1.93384 37.604L8.65143 29.0852L10.8521 31.8766C12.6925 34.2079 13.6127 35.3754 14.5599 35.3754C14.9577 35.3754 15.3495 35.2461 15.6963 34.9951C16.5189 34.3999 16.8641 32.8103 17.5562 29.629C17.8594 28.2314 18.011 27.5335 18.3293 26.9688C18.4694 26.7228 18.6305 26.4997 18.8126 26.2994C19.2254 25.8469 19.7613 25.5921 20.8317 25.0824L23.5997 23.7647C27.5988 21.8632 29.5983 20.9105 29.9496 18.8473C30.3023 16.7823 28.7937 14.8674 25.7719 11.0378Z" fill="black"/>
</svg>
