<svg width="20" height="20" viewBox="0 0 20 20" fill="none" xmlns="http://www.w3.org/2000/svg">
<path d="M3.75 20C3.0625 20 2.47417 19.7826 1.985 19.3478C1.49584 18.913 1.25084 18.3896 1.25 17.7778V3.33333C0.895837 3.33333 0.599171 3.22667 0.360004 3.01333C0.120838 2.8 0.000837643 2.5363 4.31034e-06 2.22222C-0.000829023 1.90815 0.119171 1.64444 0.360004 1.43111C0.600837 1.21778 0.897504 1.11111 1.25 1.11111H6.25C6.25 0.796296 6.37 0.532593 6.61 0.32C6.85 0.107408 7.14667 0.000740741 7.5 0H12.5C12.8542 0 13.1512 0.106667 13.3912 0.32C13.6312 0.533333 13.7508 0.797037 13.75 1.11111H18.75C19.1042 1.11111 19.4012 1.21778 19.6412 1.43111C19.8812 1.64444 20.0008 1.90815 20 2.22222C19.9992 2.5363 19.8792 2.80037 19.64 3.01444C19.4008 3.22852 19.1042 3.33481 18.75 3.33333V17.7778C18.75 18.3889 18.5054 18.9122 18.0162 19.3478C17.5271 19.7833 16.9383 20.0007 16.25 20H3.75ZM16.25 3.33333H3.75V17.7778H16.25V3.33333ZM7.5 15.5556C7.85417 15.5556 8.15125 15.4489 8.39125 15.2356C8.63125 15.0222 8.75083 14.7585 8.75 14.4444V6.66667C8.75 6.35185 8.63 6.08815 8.39 5.87556C8.15 5.66296 7.85333 5.5563 7.5 5.55556C7.14667 5.55481 6.85 5.66148 6.61 5.87556C6.37 6.08963 6.25 6.35333 6.25 6.66667V14.4444C6.25 14.7593 6.37 15.0233 6.61 15.2367C6.85 15.45 7.14667 15.5563 7.5 15.5556ZM12.5 15.5556C12.8542 15.5556 13.1512 15.4489 13.3912 15.2356C13.6312 15.0222 13.7508 14.7585 13.75 14.4444V6.66667C13.75 6.35185 13.63 6.08815 13.39 5.87556C13.15 5.66296 12.8533 5.5563 12.5 5.55556C12.1467 5.55481 11.85 5.66148 11.61 5.87556C11.37 6.08963 11.25 6.35333 11.25 6.66667V14.4444C11.25 14.7593 11.37 15.0233 11.61 15.2367C11.85 15.45 12.1467 15.5563 12.5 15.5556Z" fill="#DFC2E7"/>
</svg>
