<svg width="91" height="91" viewBox="0 0 91 91" fill="none" xmlns="http://www.w3.org/2000/svg">
<path d="M36.1695 57.7474C30.1079 57.7474 24.9702 55.6418 20.7564 51.4305C16.5451 47.2218 14.4395 42.0853 14.4395 36.0212C14.4395 29.957 16.5451 24.8193 20.7564 20.608C24.9676 16.3968 30.1054 14.2924 36.1695 14.2949C42.2336 14.2975 47.3701 16.4031 51.5788 20.6118C55.7876 24.8206 57.8932 29.957 57.8957 36.0212C57.8957 38.6551 57.4294 41.2044 56.4966 43.669C55.5639 46.1336 54.3379 48.2417 52.8187 49.9935L75.2237 72.3908C75.5775 72.7447 75.7671 73.1808 75.7924 73.699C75.8152 74.2121 75.6256 74.6709 75.2237 75.0753C74.8192 75.4798 74.3718 75.682 73.8814 75.682C73.391 75.682 72.9436 75.4798 72.5392 75.0753L50.138 52.6742C48.2422 54.2894 46.062 55.5394 43.5974 56.4241C41.1328 57.3089 38.6556 57.7512 36.1657 57.7512M36.1657 53.9595C41.196 53.9595 45.4439 52.228 48.9095 48.765C52.3725 45.3019 54.1041 41.054 54.1041 36.0212C54.1041 30.9884 52.3738 26.7417 48.9133 23.2812C45.4528 19.8206 41.2061 18.0891 36.1733 18.0866C31.1405 18.0866 26.8925 19.8181 23.4295 23.2812C19.9664 26.7442 18.2336 30.9909 18.2311 36.0212C18.2286 41.0515 19.9601 45.2981 23.4257 48.7612C26.8913 52.2242 31.138 53.9558 36.1657 53.9558" fill="black"/>
</svg>
