<svg width="34" height="34" viewBox="0 0 34 34" fill="none" xmlns="http://www.w3.org/2000/svg">
<path d="M7.72324 5.93604C6.97949 6.07549 6.54785 6.23487 5.97012 6.5669C3.41348 8.03448 1.47441 11.886 0.47168 17.4642C0.139648 19.3302 0.0400391 20.3993 0.0400391 22.1126C0.0400391 23.7993 0.106445 24.4966 0.378711 25.4329C0.976367 27.5181 2.43066 28.4743 4.36309 28.056C5.91699 27.7239 7.75644 26.5618 10.3662 24.2708C11.3689 23.3876 11.8869 23.0622 12.8365 22.7036C15.7053 21.6146 19.9818 21.8536 22.2994 23.2282C22.5518 23.381 23.1561 23.8524 23.6342 24.2708C26.9678 27.1993 29.1459 28.3482 30.9256 28.1091C32.4861 27.9032 33.449 26.7079 33.8408 24.47C34.0068 23.5337 34.0068 20.9239 33.8475 19.5892C33.3561 15.5251 32.2139 11.6669 30.8592 9.49542C29.6506 7.56964 28.3822 6.48057 26.7951 6.02901C26.3436 5.90284 26.1111 5.87628 25.2346 5.87628C24.0459 5.87628 23.7006 5.93604 20.9713 6.60674C18.833 7.12471 17.7439 7.32393 17.0002 7.32393C16.2764 7.32393 15.2604 7.14463 13.0424 6.61338C12.0596 6.38096 10.9107 6.12198 10.4924 6.04893C9.48965 5.863 8.34746 5.81651 7.72324 5.93604ZM10.8576 7.66924C11.2959 7.76221 12.1326 7.96143 12.7104 8.10753C15.3268 8.76495 16.5818 8.95089 17.6178 8.83135C18.6006 8.7251 19.2314 8.59893 21.051 8.16729C23.7404 7.52979 24.026 7.47667 25.0353 7.48331C25.8256 7.48331 25.9982 7.50323 26.4631 7.65596C27.9174 8.14073 28.9865 9.23643 30.0158 11.2884C31.0252 13.3005 31.7225 15.8107 32.2205 19.204C32.4131 20.5388 32.4396 23.6267 32.2603 24.4368C31.8686 26.2497 31.1514 26.854 29.79 26.5353C28.5283 26.2364 26.9213 25.1939 24.7033 23.2149C23.4217 22.0794 22.7045 21.6146 21.5623 21.2028C20.2143 20.7181 19.1385 20.5255 17.465 20.4724C15.6322 20.4192 14.2775 20.5919 12.717 21.0966C11.3357 21.5415 10.333 22.1524 8.86543 23.4739C7.73652 24.4833 6.28887 25.5392 5.44551 25.9642C3.81191 26.7876 2.78262 26.7278 2.21152 25.7716C1.9459 25.3267 1.81973 24.9282 1.68691 24.0716C1.54082 23.1685 1.59395 20.4923 1.78652 19.1442C2.4041 14.7415 3.7123 11.056 5.33262 9.17003C6.04316 8.33995 7.01934 7.72237 7.93574 7.53643C8.62637 7.39698 9.86816 7.4501 10.8576 7.66924Z" fill="#BD83CE"/>
<path d="M8.39163 10.0216C7.90022 10.0813 7.36233 10.3536 7.00374 10.7122C6.67835 11.0376 6.30647 11.7282 6.30647 12.0138C6.30647 12.1931 6.20022 12.2728 5.96116 12.2728C5.88811 12.2728 5.64241 12.3591 5.40999 12.472C4.34749 12.9833 3.78967 14.1321 4.07522 15.2411C4.31428 16.1841 4.91858 16.795 5.86819 17.054C6.25999 17.1669 6.27327 17.1735 6.31975 17.4325C6.43264 18.0966 7.0303 18.8337 7.70764 19.1392C8.98928 19.7302 10.5166 19.086 11.0147 17.7513C11.0944 17.5454 11.1541 17.3263 11.1541 17.2599C11.1541 17.1669 11.2205 17.127 11.4264 17.0938C12.1369 16.981 12.8608 16.3966 13.1994 15.6728C13.4451 15.1548 13.4584 14.2716 13.226 13.7669C12.8408 12.9235 12.2432 12.4454 11.3467 12.2462C11.2073 12.213 11.1608 12.1599 11.1276 11.9606C11.0612 11.5489 10.7955 11.0642 10.4502 10.7188C9.90569 10.1743 9.16858 9.92197 8.39163 10.0216ZM9.20842 11.6485C9.48733 11.8212 9.57366 12.047 9.62678 12.7044C9.69319 13.5942 9.90569 13.8001 10.7557 13.8001C11.3069 13.8001 11.5658 13.9063 11.7518 14.2185C12.0108 14.6368 11.8514 15.261 11.4397 15.4603C11.3334 15.5067 11.0014 15.5599 10.6893 15.5798C9.83928 15.6263 9.62678 15.8321 9.62678 16.6224C9.62678 17.406 9.32131 17.7845 8.69046 17.7845C8.126 17.7845 7.83381 17.406 7.83381 16.6888C7.83381 15.8321 7.54163 15.5267 6.71819 15.5267C5.95452 15.5267 5.576 15.2345 5.576 14.6435C5.576 14.1056 5.96116 13.8001 6.65178 13.7935C7.55491 13.7868 7.78069 13.5677 7.83381 12.638C7.86702 12.0603 7.88694 11.9938 8.06624 11.8079C8.37835 11.4825 8.84319 11.4161 9.20842 11.6485Z" fill="#BD83CE"/>
<path d="M23.7403 10.4125C22.7043 10.8973 22.618 12.3582 23.5875 12.9957C23.8266 13.1551 23.9262 13.1816 24.3645 13.1816C24.8028 13.1816 24.909 13.1551 25.1481 12.9957C25.3075 12.8961 25.5133 12.6902 25.6129 12.5375C25.7723 12.2984 25.7989 12.1988 25.7989 11.7539C25.7989 11.309 25.7723 11.2094 25.6129 10.9703C25.3274 10.5387 24.9688 10.3328 24.4442 10.3062C24.1188 10.293 23.9328 10.3195 23.7403 10.4125Z" fill="#BD83CE"/>
<path d="M20.8845 13.3535C20.5791 13.4398 20.1541 13.8383 20.0212 14.157C19.6162 15.1531 20.2935 16.209 21.3361 16.209C21.9669 16.209 22.4318 15.9234 22.6841 15.3789C22.9498 14.8078 22.8701 14.2566 22.4583 13.7984C22.0466 13.3402 21.4755 13.1809 20.8845 13.3535Z" fill="#BD83CE"/>
<path d="M26.795 13.4066C26.018 13.7652 25.6993 14.6086 26.0579 15.3723C26.3235 15.9434 26.7551 16.209 27.3926 16.209C28.1829 16.209 28.827 15.5648 28.827 14.7812C28.827 14.1371 28.5614 13.7055 27.9903 13.4398C27.5919 13.2473 27.1602 13.234 26.795 13.4066Z" fill="#BD83CE"/>
<path d="M23.9068 16.3692C22.5654 16.7876 22.6053 18.7731 23.9666 19.1716C24.8963 19.4372 25.826 18.7399 25.8326 17.777C25.8326 17.1395 25.401 16.5419 24.81 16.3692C24.4115 16.2497 24.2986 16.2497 23.9068 16.3692Z" fill="#BD83CE"/>
</svg>
