<svg width="34" height="34" viewBox="0 0 34 34" fill="none" xmlns="http://www.w3.org/2000/svg">
<g clip-path="url(#clip0_708_351)">
<path d="M16.5025 0.0597671C15.8915 0.219142 15.3537 0.657423 15.0747 1.22852C14.9419 1.50078 14.9087 1.66016 14.9154 2.125C14.9154 2.60977 14.9419 2.74258 15.0947 3.04141C15.2673 3.37344 15.7521 3.91797 15.8783 3.91797C15.9115 3.91797 15.938 4.23008 15.938 4.60859V5.29258L14.7294 5.33906C10.2603 5.50508 9.36381 5.64453 7.73686 6.43477C5.20678 7.66992 3.42709 9.96758 2.86264 12.7168C2.72319 13.4008 2.68998 13.4805 2.56381 13.4805C2.31811 13.4805 1.49467 13.9918 1.09623 14.3836C-0.364703 15.8445 -0.344782 18.202 1.14272 19.6629C1.48803 20.0016 2.13217 20.3934 2.60366 20.5461C2.67006 20.566 2.72983 20.6789 2.75639 20.8316C3.07514 22.8238 4.03139 24.65 5.47905 26.018C6.05014 26.5559 7.06616 27.2863 7.64389 27.5652L7.956 27.7113L7.27201 28.382C6.20951 29.4246 5.6517 30.4871 5.406 31.9016C5.22006 32.984 5.31967 33.4688 5.80444 33.8273L5.98373 33.9668H17.0005H28.0173L28.1966 33.8273C28.6083 33.5285 28.6548 33.3891 28.6415 32.6188C28.6216 31.0117 27.9111 29.4777 26.6294 28.2691L26.0318 27.7113L26.5165 27.459C27.3001 27.0473 27.9509 26.5691 28.6548 25.8652C29.9497 24.5836 30.7798 23.043 31.1451 21.2633C31.2115 20.9113 31.3111 20.6059 31.3509 20.5926C31.3974 20.5793 31.6697 20.4465 31.9619 20.3004C33.4693 19.55 34.2927 17.8035 33.9009 16.1699C33.6287 15.0012 32.9048 14.1246 31.7759 13.6066C31.5169 13.4871 31.3044 13.3875 31.2978 13.3809C31.2845 13.3742 31.2314 13.1219 31.1783 12.823C30.6537 10.0672 28.7345 7.58359 26.2111 6.38164C25.1419 5.87695 24.1923 5.63125 22.8443 5.51836C22.0408 5.44531 19.079 5.3125 18.3951 5.3125H18.063V4.62852C18.063 3.95781 18.0697 3.93789 18.2357 3.85156C18.4415 3.73867 18.7205 3.39336 18.933 2.98828C19.0591 2.74258 19.0857 2.5832 19.0857 2.125C19.0923 1.60703 19.0724 1.52735 18.8665 1.14219C18.488 0.451564 17.9103 0.0796889 17.14 0.0332046C16.9009 0.0199233 16.6154 0.0265639 16.5025 0.0597671ZM21.0247 7.52383C21.0447 7.53711 20.9451 7.99531 20.8122 8.5332C20.5466 9.58906 20.4138 9.83477 20.0087 10.0008C19.8361 10.0738 19.2119 10.0938 16.9939 10.0938C14.5568 10.0938 14.1716 10.0805 13.9724 9.9875C13.5673 9.79492 13.4544 9.58242 13.1888 8.53984C13.056 8.00859 12.9497 7.55703 12.9497 7.54375C12.9497 7.52383 13.3482 7.49727 13.833 7.48399C14.9552 7.45078 20.9849 7.48399 21.0247 7.52383ZM11.0837 8.87852C11.4357 10.293 11.6681 10.791 12.206 11.3023C12.6376 11.7141 13.0958 11.973 13.6603 12.1191C14.2181 12.2652 19.783 12.2652 20.3408 12.1191C20.9052 11.973 21.3634 11.7141 21.7951 11.3023C22.3396 10.7844 22.5654 10.293 22.9173 8.87188L23.2095 7.68984L23.5283 7.73633C24.033 7.80274 24.883 8.08828 25.4673 8.38711C27.2337 9.30352 28.4755 10.8641 29.0267 12.8828C29.1728 13.4273 29.1794 13.5535 29.206 16.5352C29.2326 19.8688 29.1994 20.4531 28.9138 21.4227C28.1966 23.9195 26.0517 25.8387 23.5216 26.2637C22.4525 26.443 20.3474 26.5227 16.9673 26.5293C13.5076 26.5293 11.2497 26.4363 10.3599 26.2504C7.7435 25.7258 5.71147 23.8133 4.99428 21.2102L4.81498 20.5527V17.0332V13.5137L5.00092 12.8496C5.21342 12.0727 5.65834 11.1098 6.08334 10.5055C6.99311 9.23711 8.4142 8.26094 9.92826 7.86914C10.858 7.62344 10.7517 7.52383 11.0837 8.87852ZM31.7826 16.4555C31.9751 16.9469 31.8556 17.5977 31.4837 18.0625L31.3443 18.2285V17V15.7715L31.5103 15.9707C31.5966 16.077 31.7228 16.2961 31.7826 16.4555ZM2.65678 17.0133L2.65014 18.1621L2.4642 17.943C2.15209 17.5777 2.04584 17 2.19858 16.5285C2.27162 16.316 2.56381 15.8711 2.63022 15.8711C2.6435 15.8711 2.65678 16.3891 2.65678 17.0133ZM23.2095 28.7871C24.4181 29.0395 25.5537 29.9227 26.0849 31.0117C26.231 31.3238 26.3771 31.6426 26.397 31.7223L26.4369 31.875H17.0005H7.5642L7.60405 31.7223C7.62397 31.6426 7.77006 31.3238 7.91616 31.0117C8.44076 29.9359 9.57631 29.0461 10.7583 28.7938C11.4158 28.6477 22.5388 28.6477 23.2095 28.7871Z" fill="#BD83CE"/>
<path d="M11.7871 14.968C11.5414 15.0809 11.3223 15.3133 11.2293 15.559C11.1828 15.6652 11.1562 16.2762 11.1562 17.0066C11.1562 18.4344 11.1961 18.5938 11.5945 18.8992C11.8004 19.0586 11.9066 19.0918 12.2187 19.0918C12.5309 19.0918 12.6371 19.0586 12.843 18.8992C13.2613 18.5871 13.2945 18.4344 13.268 16.9004C13.248 15.4262 13.2348 15.373 12.8031 15.0543C12.5773 14.8883 12.0527 14.8418 11.7871 14.968Z" fill="#BD83CE"/>
<path d="M21.3496 14.968C21.1039 15.0809 20.8848 15.3133 20.7918 15.559C20.7453 15.6652 20.7188 16.2762 20.7188 17.0066C20.7188 18.4344 20.7586 18.5938 21.157 18.8992C21.3629 19.0586 21.4691 19.0918 21.7812 19.0918C22.0934 19.0918 22.1996 19.0586 22.4055 18.8992C22.8238 18.5871 22.857 18.4344 22.8305 16.9004C22.8105 15.4262 22.7973 15.373 22.3656 15.0543C22.1398 14.8883 21.6152 14.8418 21.3496 14.968Z" fill="#BD83CE"/>
<path d="M15.5064 21.3428C15.0548 21.542 14.8091 22.0467 14.9087 22.558C14.9618 22.8701 15.3802 23.2818 15.6857 23.3416C15.8052 23.3682 16.4759 23.3748 17.1732 23.3615L18.4415 23.3416L18.6872 23.149C19.2849 22.6975 19.2583 21.8873 18.6341 21.4225C18.4681 21.2963 18.3486 21.283 17.0802 21.2697C16.0376 21.2564 15.6591 21.2697 15.5064 21.3428Z" fill="#BD83CE"/>
</g>
<defs>
<clipPath id="clip0_708_351">
<rect width="34" height="34" fill="white"/>
</clipPath>
</defs>
</svg>
