<svg width="32" height="32" viewBox="0 0 32 32" fill="none" xmlns="http://www.w3.org/2000/svg">
<path d="M25.5775 0.0133097C25.4592 0.0257594 25.0795 0.0693333 24.7371 0.106682C22.1164 0.380575 19.3215 1.4388 16.8316 3.09461C15.6364 3.89761 14.8147 4.54499 13.6693 5.60322L12.8103 6.39377L12.4991 6.33152C12.3248 6.29418 11.7832 6.2257 11.2914 6.18835C9.40532 6.03273 7.60634 6.36265 5.93186 7.16565C5.17865 7.52669 4.22003 8.14918 3.44815 8.77166C2.4335 9.59334 0.105408 12.0584 0.0182604 12.4007C-0.0377632 12.6186 0.0369349 12.8489 0.217455 13.0295C0.391751 13.2038 0.341952 13.1975 1.63672 13.0481C3.17426 12.8676 5.09773 13.3033 6.29913 14.1126C7.08346 14.6355 7.05856 14.4674 6.517 15.5505C5.91941 16.7457 5.09773 18.6692 5.09773 18.8497C5.10396 19.0551 5.20355 19.2107 5.64552 19.7087C6.02523 20.132 6.03768 20.1444 5.89451 20.2005C4.49392 20.7358 3.41702 21.545 2.54555 22.7029C1.20721 24.5018 0.24858 27.9878 0.485124 30.2162C0.553597 30.8512 0.653194 31.069 0.914638 31.1749C1.18231 31.2745 2.63892 31.3118 3.35478 31.2309C5.37785 31.0006 7.48807 30.2847 8.80774 29.3821C10.0091 28.5604 11.0238 27.3279 11.4471 26.1763C11.528 25.9585 11.6027 25.7655 11.6089 25.753C11.6214 25.7406 11.8641 25.9336 12.1443 26.1825C12.6609 26.6307 12.6609 26.6307 12.9722 26.5996C13.3145 26.5685 14.4412 26.1078 16.1095 25.3048C16.6697 25.031 17.1553 24.8131 17.1802 24.8131C17.2797 24.8131 17.7964 25.6099 18.0765 26.1888C18.6243 27.3279 18.8795 28.8592 18.7364 30.1229C18.6866 30.5026 18.6368 30.9383 18.6243 31.0815C18.5994 31.3118 18.6181 31.3678 18.7799 31.5359C18.9293 31.6791 19.0227 31.7227 19.2219 31.7227C19.446 31.7227 19.5394 31.6666 20.0498 31.2433C20.8777 30.5462 22.3405 29.1144 22.9132 28.4235C24.8927 26.0643 25.7393 23.6988 25.6148 20.8665C25.5961 20.3499 25.5401 19.7025 25.4903 19.4286L25.4094 18.9306L26.0319 18.277C27.7935 16.4344 29.1007 14.5794 30.0967 12.519C31.4039 9.80499 31.9455 7.07851 31.8459 3.71087C31.821 2.95766 31.765 2.25425 31.7089 1.99903C31.4848 0.953261 30.9806 0.4117 29.9535 0.119132C29.661 0.0382091 29.2377 0.0195345 27.6939 0.00708485C26.6481 -0.00536483 25.6957 0.000860009 25.5775 0.0133097ZM29.8415 1.38277C30.4889 1.63799 30.5822 2.01148 30.5885 4.30223C30.5885 5.72771 30.4951 7.28393 30.4017 7.37107C30.3519 7.4271 29.1381 6.78594 28.5467 6.38755C26.9283 5.30443 25.5712 3.78556 24.7247 2.09241C24.401 1.44502 24.3947 1.4388 24.5379 1.39522C24.8803 1.28318 25.9385 1.23338 27.6628 1.24583C29.3497 1.25828 29.5614 1.27073 29.8415 1.38277ZM23.4174 2.24803C24.6313 4.94961 26.9532 7.2528 29.6298 8.41062L30.1714 8.64094L30.0282 9.1825C29.4431 11.355 28.1608 13.7827 26.5299 15.8182C25.8265 16.6959 24.1395 18.4264 23.2058 19.2232C21.3383 20.8105 19.1223 22.3169 16.8627 23.5245L16.2028 23.8731L14.3478 22.0181L12.4928 20.1569L14.3665 18.3019C15.6177 17.0507 16.2526 16.3846 16.2775 16.2664C16.3896 15.7871 15.985 15.3887 15.5119 15.5069C15.3998 15.5318 14.6902 16.1917 13.4701 17.4117L11.6027 19.273L9.74769 17.418L7.89269 15.563L8.27863 14.8533C9.11275 13.2847 10.1648 11.6475 11.2168 10.247C14.0864 6.4498 17.3482 3.78556 20.8653 2.3663C21.5998 2.06751 22.9319 1.65044 23.0813 1.67534C23.1249 1.68157 23.2743 1.93679 23.4174 2.24803ZM11.7645 7.4769C11.7957 7.50179 11.6214 7.74456 11.3786 8.02468C10.3951 9.1576 9.02561 11.0749 8.1728 12.5066C7.94248 12.8863 7.71839 13.266 7.67482 13.3345C7.59389 13.4714 7.58767 13.4652 6.99631 13.0793C5.82604 12.3074 4.4877 11.8903 2.80699 11.772L2.15961 11.7222L2.71362 11.1682C5.09773 8.74676 6.95273 7.73211 9.57962 7.42087C9.87218 7.38352 11.6898 7.43332 11.7645 7.4769ZM11.3724 20.7981C13.3643 22.7838 14.9952 24.4271 14.9952 24.4458C14.9952 24.4707 14.9454 24.5018 14.8894 24.5205C14.8272 24.5392 14.3914 24.7259 13.9183 24.9314L13.0593 25.3111L10.669 22.9705C8.50272 20.8416 6.52944 18.831 6.47965 18.7127C6.4672 18.6816 6.64772 18.2396 6.87804 17.7168L7.2951 16.7768L7.51919 16.9822C7.64369 17.0943 9.3742 18.8123 11.3724 20.7981ZM24.3698 21.6695C24.2827 24.3711 23.1871 26.5623 20.7096 28.9526L20.0747 29.5751L20 28.7659C19.9564 28.3177 19.8755 27.7388 19.8195 27.4711C19.6141 26.4751 19.1348 25.3546 18.587 24.5703L18.3068 24.1719L19.1721 23.649C20.7719 22.6966 22.3281 21.6011 23.6478 20.493L24.3014 19.9453L24.3512 20.3125C24.3823 20.5117 24.3885 21.1217 24.3698 21.6695ZM8.82019 22.9581L10.5631 24.6824L10.4698 25.1056C10.1461 26.5436 8.95713 27.9629 7.41337 28.7534C5.93186 29.5128 3.83409 30.0419 2.29655 30.0419H1.74254L1.69897 29.8303C1.64917 29.5377 1.77367 28.2181 1.92929 27.4275C2.19073 26.1141 2.78832 24.5703 3.39835 23.6428C3.89634 22.8772 5.01058 21.9248 5.81359 21.5699C6.09371 21.4454 6.95896 21.2027 7.03988 21.2213C7.05856 21.2276 7.86156 22.0119 8.82019 22.9581Z" fill="#BD83CE"/>
<path d="M20.1236 6.23191C18.5363 6.59295 17.3037 7.71342 16.756 9.28208C16.6003 9.73649 16.5879 9.85476 16.5879 10.6827C16.5879 11.4919 16.6066 11.6351 16.756 12.0833C16.9863 12.7804 17.3162 13.3096 17.8578 13.8636C18.3869 14.4051 18.972 14.7662 19.6941 15.0214C20.1485 15.177 20.2668 15.1895 21.0947 15.1895C21.8977 15.1895 22.0533 15.1708 22.4766 15.0276C23.2422 14.7724 23.7465 14.4549 24.3316 13.8636C25.2342 12.9547 25.645 11.9588 25.645 10.6827C25.645 9.40657 25.2342 8.4106 24.3316 7.50177C23.7402 6.90419 23.2298 6.58672 22.4766 6.33773C21.879 6.14476 20.7212 6.09496 20.1236 6.23191ZM21.8977 7.47687C23.0368 7.75077 23.9955 8.68449 24.3129 9.84231C24.4561 10.359 24.425 11.2242 24.2507 11.7284C23.4414 14.0565 20.4971 14.7475 18.7604 13.0108C17.4594 11.7098 17.4656 9.64312 18.7728 8.34835C19.5945 7.5329 20.7585 7.20921 21.8977 7.47687Z" fill="#BD83CE"/>
</svg>
