<svg width="36" height="36" viewBox="0 0 36 36" fill="none" xmlns="http://www.w3.org/2000/svg">
<path d="M5.38609 4.9289C3.73374 5.20312 2.42593 6.3914 2.01109 7.99453C1.91265 8.37422 1.89859 9.38672 1.89859 16.5023C1.89859 25.3898 1.87749 24.9328 2.33453 25.875C2.67203 26.5711 3.47359 27.3445 4.22593 27.6961C4.54937 27.8508 5.0064 28.0055 5.2314 28.0477C5.50562 28.0969 7.22828 28.125 10.1744 28.125H14.6955L14.133 29.25L13.5705 30.375H11.897C10.3009 30.375 10.2166 30.382 9.9564 30.5367C9.18999 30.9656 9.21109 32.0906 9.99156 32.4844C10.2517 32.625 10.4416 32.625 18.0002 32.625C25.5587 32.625 25.7486 32.625 26.0087 32.4844C26.8033 32.0836 26.8033 30.9164 26.0087 30.5156C25.7627 30.3891 25.5939 30.375 24.0822 30.375H22.4298L21.8673 29.25L21.3048 28.125H25.8541C30.8673 28.125 30.9377 28.118 31.8236 27.6961C32.4845 27.3797 33.3564 26.5148 33.6658 25.875C34.1228 24.9328 34.1017 25.3828 34.1017 16.5234C34.1017 7.58672 34.1228 8.02265 33.6306 7.07343C33.2861 6.41953 32.5337 5.65312 31.915 5.35078C30.8955 4.85156 32.0556 4.89375 18.2111 4.87968C11.3486 4.87265 5.57593 4.89375 5.38609 4.9289ZM30.4947 7.20703C30.9728 7.34765 31.3806 7.66406 31.6197 8.06484L31.8166 8.40234L31.8377 16.4039L31.8517 24.4055L31.7041 24.757C31.6127 24.9609 31.4228 25.2211 31.24 25.3828C30.6353 25.9172 31.697 25.875 18.0002 25.875C4.35953 25.875 5.37906 25.9102 4.7814 25.4039C4.61265 25.2562 4.40874 24.982 4.31734 24.7922L4.14859 24.4336V16.4812V8.52187L4.34546 8.15625C4.57749 7.70625 4.92906 7.4039 5.42828 7.23515C5.78687 7.11562 6.36343 7.10859 17.972 7.10156C28.5541 7.10156 30.1853 7.11562 30.4947 7.20703Z" fill="#BD83CE"/>
</svg>
