<svg width="38" height="38" viewBox="0 0 38 38" fill="none" xmlns="http://www.w3.org/2000/svg">
<g clip-path="url(#clip0_200_457)">
<path d="M29.0711 0.438282C27.6238 2.01172 26.5699 3.80039 26.0059 5.67813C25.6496 6.8582 25.3082 9.01797 25.3082 10.1461C25.3082 10.4875 25.2859 10.5395 25.1672 10.5395C24.1949 10.5395 22.0648 10.8289 20.9738 11.1035C16.3574 12.2762 12.2754 16.3582 11.1027 20.9746C10.8281 22.0656 10.5387 24.1957 10.5387 25.168C10.5387 25.2867 10.4867 25.309 10.1527 25.309C9.01719 25.309 6.85742 25.6504 5.67734 26.0066C3.79961 26.5707 2.01094 27.6246 0.4375 29.0719L-0.0078125 29.4875L0.786328 30.2891L1.58047 31.0832L2.11484 30.6008C2.75312 30.0293 3.92578 29.1684 4.08164 29.1684C4.23008 29.1684 8.83164 33.7699 8.83164 33.9184C8.83164 34.0742 7.9707 35.2469 7.39922 35.8852L6.9168 36.4195L7.71094 37.2137L8.5125 38.0078L8.92812 37.5625C10.3754 35.9891 11.4293 34.2004 11.9934 32.3227C12.3496 31.1426 12.691 28.9828 12.691 27.8473C12.691 27.5133 12.7133 27.4613 12.832 27.4613C13.8043 27.4613 15.9344 27.1719 17.0254 26.8973C21.6418 25.7246 25.7238 21.6426 26.8965 17.0262C27.1711 15.9352 27.4605 13.8051 27.4605 12.8328C27.4605 12.7141 27.5125 12.6918 27.8539 12.6918C28.982 12.6918 31.1418 12.3504 32.3219 11.9941C34.1996 11.4301 35.9883 10.3762 37.5617 8.92891L38.007 8.51328L37.2129 7.71172L36.4113 6.91016L35.9883 7.31094C35.491 7.77109 34.8824 8.24609 34.2664 8.64688L33.8359 8.93633L31.4535 6.54648L29.0637 4.16406L29.3531 3.73359C29.7539 3.11758 30.2289 2.50898 30.6891 2.01172L31.0898 1.58867L30.2883 0.787109L29.4867 -0.00703049L29.0711 0.438282ZM31.4832 9.87891C31.4238 9.93828 30.5703 10.1387 29.9469 10.2352C29.3828 10.3316 27.6016 10.4801 27.557 10.443C27.5199 10.3984 27.6684 8.62461 27.7648 8.01602C27.8391 7.55586 28.0172 6.76172 28.0988 6.53906C28.1211 6.46484 28.7074 6.99922 29.8355 8.12734C30.7707 9.0625 31.5129 9.84922 31.4832 9.87891ZM25.1969 12.8848C25.1895 13.3004 25.0707 14.6957 25.0113 15.0371C24.8852 15.7793 24.6922 16.6254 24.6477 16.6254C24.5734 16.6254 21.3375 13.3672 21.3746 13.3375C21.5156 13.2113 23.1855 12.9367 24.3062 12.8477C25.1301 12.7809 25.1969 12.7883 25.1969 12.8848ZM23.6977 19.0301C23.5195 19.3418 22.8219 20.3438 22.6437 20.559L22.4211 20.8188L19.8012 18.1988L17.1812 15.5789L17.441 15.3563C17.582 15.2375 17.9977 14.9406 18.3687 14.6957L19.0367 14.2504L21.3895 16.6031C22.6809 17.8945 23.7199 18.993 23.6977 19.0301ZM18.2203 19.8168L20.818 22.4219L20.5582 22.6445C20.343 22.8227 19.341 23.5203 19.0293 23.6984C18.9922 23.7207 17.8937 22.6816 16.6023 21.3902L14.2496 19.0375L14.643 18.4438C15.0586 17.8055 15.5113 17.2191 15.5781 17.2191C15.6004 17.2191 16.7953 18.3918 18.2203 19.8168ZM15.0289 23.0082C15.9195 23.8988 16.6395 24.6484 16.6246 24.6633C16.4094 24.8488 12.973 25.309 12.832 25.168C12.6836 25.0195 13.1809 21.3754 13.3516 21.3754C13.3812 21.3754 14.1309 22.1102 15.0289 23.0082ZM10.4645 27.6617C10.4496 28.5969 10.0414 31.2762 9.86328 31.5508C9.81875 31.6324 9.36602 31.2168 8.07461 29.9254C6.76836 28.6266 6.36758 28.1813 6.44922 28.1367C6.64219 28.018 8.11172 27.7359 9.0543 27.6469C10.3977 27.5133 10.4645 27.5133 10.4645 27.6617Z" fill="#BD83CE"/>
</g>
<defs>
<clipPath id="clip0_200_457">
<rect width="38" height="38" fill="white"/>
</clipPath>
</defs>
</svg>
