<svg width="32" height="32" viewBox="0 0 32 32" fill="none" xmlns="http://www.w3.org/2000/svg">
<g clip-path="url(#clip0_200_509)">
<path d="M13.0312 0.0437489C12.8313 0.1 12.5688 0.30625 12.4688 0.5C12.4187 0.6 12.2625 1.19375 12.125 1.825C11.9875 2.45625 11.8625 3.025 11.85 3.09375C11.825 3.18125 11.6938 3.2625 11.3938 3.36875C11.1625 3.45625 10.7312 3.63125 10.4438 3.7625L9.91875 4L8.825 3.30625C7.60625 2.525 7.4 2.4375 6.9875 2.55625C6.75625 2.625 6.4375 2.91875 4.675 4.675C2.91875 6.4375 2.625 6.75625 2.55625 6.9875C2.4375 7.4 2.525 7.60625 3.30625 8.825L4 9.91875L3.7625 10.4438C3.63125 10.7312 3.45625 11.1625 3.36875 11.3937C3.2625 11.6938 3.18125 11.825 3.09375 11.85C3.025 11.8625 2.45625 11.9875 1.825 12.125C0.55625 12.4 0.3875 12.4688 0.175 12.7625L0.03125 12.9688V16V19.0312L0.175 19.2375C0.3875 19.5312 0.55625 19.6 1.825 19.875C2.45625 20.0125 3.025 20.1375 3.09375 20.15C3.18125 20.175 3.2625 20.3062 3.36875 20.6062C3.45625 20.8375 3.63125 21.2688 3.7625 21.5562L4 22.0813L3.30625 23.175C2.525 24.3937 2.4375 24.6 2.55625 25.0125C2.625 25.2438 2.91875 25.5625 4.675 27.325C6.4375 29.0812 6.75625 29.375 6.9875 29.4437C7.4 29.5625 7.60625 29.475 8.825 28.6937L9.91875 28L10.4438 28.2375C10.7312 28.3687 11.1625 28.5438 11.3938 28.6312C11.6938 28.7375 11.825 28.8187 11.85 28.9062C11.8625 28.975 11.9875 29.5438 12.125 30.175C12.4 31.4437 12.4688 31.6125 12.7625 31.825L12.9688 31.9688H16H19.0312L19.2375 31.825C19.5312 31.6125 19.6 31.4437 19.875 30.175C20.0125 29.5438 20.1375 28.975 20.15 28.9062C20.175 28.8187 20.3062 28.7375 20.6063 28.6312C20.8375 28.55 21.2688 28.375 21.5562 28.2375L22.0813 28L22.3062 28.1375C22.4312 28.2188 22.9312 28.5375 23.425 28.8563C23.9188 29.175 24.4188 29.45 24.5438 29.475C25.0562 29.5687 25.1313 29.5125 27.325 27.325C29.0813 25.5625 29.375 25.2438 29.4438 25.0125C29.5625 24.6 29.475 24.3937 28.6938 23.175L28 22.0813L28.2375 21.5562C28.3687 21.2688 28.5438 20.8375 28.6313 20.6062C28.7375 20.3062 28.8188 20.175 28.9062 20.15C28.975 20.1375 29.5438 20.0125 30.175 19.875C31.4438 19.6 31.6125 19.5312 31.825 19.2375L31.9688 19.0312V16V12.9688L31.825 12.7625C31.6125 12.4688 31.4438 12.4 30.175 12.125C29.5438 11.9875 28.975 11.8625 28.9062 11.85C28.8188 11.825 28.7375 11.6938 28.6313 11.3937C28.5438 11.1625 28.3687 10.7312 28.2375 10.4438L28 9.91875L28.6938 8.825C29.475 7.60625 29.5625 7.4 29.4438 6.9875C29.375 6.75625 29.0813 6.4375 27.325 4.675C25.1313 2.4875 25.0562 2.43125 24.5438 2.525C24.4188 2.55 23.9188 2.825 23.425 3.14375C22.9312 3.4625 22.4312 3.78125 22.3062 3.8625L22.0813 4L21.5562 3.7625C21.2688 3.625 20.8375 3.45 20.6063 3.36875C20.3062 3.2625 20.175 3.18125 20.15 3.09375C20.1375 3.025 20.0125 2.45625 19.875 1.825C19.6 0.55625 19.5312 0.387499 19.2375 0.174999L19.0312 0.03125L16.0938 0.0187492C14.4812 0.0187492 13.1 0.0249996 13.0312 0.0437489ZM17.9625 2.04375C17.9813 2.10625 18.0938 2.6125 18.2125 3.16875C18.45 4.28125 18.5562 4.56875 18.7875 4.71875C18.875 4.775 19.2688 4.93125 19.6688 5.06875C20.0688 5.20625 20.75 5.4875 21.1812 5.7C22.225 6.20625 22.1938 6.2125 23.5375 5.34375L24.5813 4.675L25.95 6.05L27.325 7.41875L26.6562 8.4625C25.7875 9.80625 25.7938 9.775 26.3 10.8188C26.5125 11.25 26.7938 11.9312 26.9312 12.3312C27.0688 12.7312 27.225 13.125 27.2812 13.2125C27.4312 13.4438 27.6938 13.5375 28.8188 13.7812C29.3813 13.9062 29.8938 14.0187 29.9563 14.0375C30.0562 14.0688 30.0625 14.2188 30.0625 16C30.0625 17.7812 30.0562 17.9312 29.9563 17.9625C29.8938 17.9812 29.3813 18.0938 28.8188 18.2188C27.6938 18.4625 27.4312 18.5562 27.2812 18.7875C27.225 18.875 27.0688 19.2688 26.9312 19.6687C26.7938 20.0687 26.5125 20.75 26.3 21.1812C25.7938 22.225 25.7875 22.1937 26.6562 23.5375L27.325 24.5812L25.95 25.95L24.5813 27.325L23.5375 26.6562C22.1938 25.7875 22.225 25.7937 21.1812 26.3C20.75 26.5125 20.0688 26.7937 19.6688 26.9313C19.2688 27.0687 18.875 27.225 18.7875 27.2812C18.5562 27.4313 18.45 27.7188 18.2125 28.8312C18.0938 29.3875 17.9813 29.8937 17.9625 29.95C17.9312 30.0562 17.7812 30.0625 16 30.0625C14.2188 30.0625 14.0688 30.0562 14.0375 29.95C14.0188 29.8937 13.9062 29.3812 13.7812 28.8187C13.5375 27.6937 13.4438 27.4313 13.2125 27.2812C13.125 27.225 12.7312 27.0687 12.3313 26.9313C11.9313 26.7937 11.25 26.5125 10.8188 26.3C9.775 25.7937 9.80625 25.7875 8.4625 26.6562L7.41875 27.325L6.05 25.95L4.675 24.5812L5.34375 23.5375C6.2125 22.1937 6.20625 22.225 5.7 21.1812C5.4875 20.75 5.20625 20.0687 5.06875 19.6687C4.93125 19.2688 4.775 18.875 4.71875 18.7875C4.56875 18.5562 4.30625 18.4625 3.18125 18.2188C2.61875 18.0938 2.10625 17.9812 2.05 17.9625C1.94375 17.9312 1.9375 17.7812 1.9375 16C1.9375 14.2188 1.94375 14.0688 2.05 14.0375C2.10625 14.0187 2.61875 13.9062 3.18125 13.7812C4.30625 13.5375 4.56875 13.4438 4.71875 13.2125C4.775 13.125 4.93125 12.7312 5.06875 12.3312C5.20625 11.9312 5.4875 11.25 5.7 10.8188C6.20625 9.775 6.2125 9.80625 5.34375 8.4625L4.675 7.41875L6.05 6.05L7.41875 4.675L8.4625 5.34375C9.80625 6.2125 9.775 6.20625 10.8188 5.7C11.25 5.4875 11.9313 5.20625 12.3313 5.06875C12.7312 4.93125 13.125 4.775 13.2125 4.71875C13.4438 4.56875 13.5375 4.30625 13.7812 3.18125C13.9062 2.61875 14.0188 2.10625 14.0375 2.04375C14.0688 1.94375 14.2188 1.9375 16 1.9375C17.7812 1.9375 17.9312 1.94375 17.9625 2.04375Z" fill="#BD83CE"/>
<path d="M14.6813 8.47464C13.0813 8.76214 11.6063 9.56214 10.4688 10.7559C9.1 12.1871 8.375 14.0059 8.375 15.9996C8.375 17.9934 9.1 19.8121 10.4688 21.2434C12.825 23.7121 16.4438 24.3371 19.4625 22.7934C23.225 20.8684 24.7125 16.2871 22.7938 12.5371C21.6938 10.3809 19.6563 8.88714 17.2688 8.46839C16.6125 8.35589 15.325 8.35589 14.6813 8.47464ZM17.25 10.4121C19.4375 10.9121 21.0625 12.5434 21.6 14.7809C21.8188 15.6934 21.725 17.0371 21.3688 17.9996C20.9063 19.2559 19.9375 20.3684 18.7438 21.0246C17.85 21.5121 17.0688 21.7059 16 21.7059C14.6563 21.7059 13.525 21.3246 12.5063 20.5309C11.0625 19.4121 10.2938 17.8309 10.2938 15.9996C10.2938 14.6559 10.675 13.5246 11.4688 12.5059C12.45 11.2371 13.7313 10.5309 15.4688 10.2871C15.7938 10.2434 16.825 10.3121 17.25 10.4121Z" fill="#BD83CE"/>
</g>
<defs>
<clipPath id="clip0_200_509">
<rect width="32" height="32" fill="white"/>
</clipPath>
</defs>
</svg>
