<svg width="23" height="23" viewBox="0 0 23 23" fill="none" xmlns="http://www.w3.org/2000/svg">
<path d="M11.4286 22.4063C9.61612 22.4063 8.00249 22.1592 6.58771 21.6649C5.17294 21.1762 3.97692 20.4575 2.99965 19.5086C2.02237 18.5654 1.27805 17.412 0.76669 16.0484C0.255327 14.6847 -0.000355065 13.1336 -0.000355065 11.395C-0.000355065 9.67907 0.255327 8.12225 0.76669 6.72452C1.28374 5.32679 2.03658 4.12793 3.02521 3.12793C4.01385 2.12225 5.22124 1.34952 6.64737 0.809747C8.07919 0.269974 9.70987 8.7738e-05 11.5394 8.7738e-05C13.2326 8.7738e-05 14.744 0.247247 16.0735 0.741566C17.4087 1.23588 18.5394 1.94043 19.4656 2.8552C20.3974 3.76429 21.1048 4.84668 21.5877 6.10236C22.0763 7.35236 22.3178 8.73588 22.3121 10.2529C22.3178 11.2984 22.2269 12.2586 22.0394 13.1336C21.8519 14.0086 21.5565 14.7728 21.1531 15.4262C20.7553 16.074 20.2326 16.5882 19.5849 16.9688C18.9371 17.3438 18.1531 17.5569 17.2326 17.608C16.5735 17.6592 16.0394 17.6109 15.6303 17.4632C15.2212 17.3154 14.9087 17.0967 14.6928 16.8069C14.4826 16.5115 14.3462 16.1677 14.2837 15.7757H14.1815C14.0451 16.1166 13.7781 16.4262 13.3803 16.7046C12.9826 16.9774 12.4968 17.1904 11.9229 17.3438C11.3548 17.4916 10.7496 17.5455 10.1076 17.5058C9.43714 17.466 8.80078 17.3097 8.19851 17.037C7.60192 16.7643 7.07067 16.3694 6.60476 15.8524C6.14453 15.3353 5.78089 14.6961 5.51385 13.9347C5.25249 13.1734 5.11896 12.2927 5.11328 11.2927C5.11896 10.3041 5.25817 9.44327 5.53089 8.71032C5.8093 7.97736 6.17578 7.36088 6.63033 6.86088C7.09055 6.36088 7.60192 5.96884 8.16442 5.68475C8.72692 5.40066 9.29226 5.21884 9.86044 5.13929C10.5025 5.0427 11.1104 5.0427 11.6843 5.13929C12.2582 5.23588 12.7411 5.39213 13.1332 5.60804C13.5309 5.82395 13.7781 6.05691 13.8746 6.30691H13.994V5.35236H16.6616V13.6705C16.6673 14.0626 16.7553 14.3666 16.9258 14.5825C17.0962 14.7984 17.3264 14.9063 17.6161 14.9063C18.0082 14.9063 18.3349 14.733 18.5962 14.3865C18.8633 14.0399 19.0621 13.5086 19.1928 12.7927C19.3292 12.0768 19.3974 11.1649 19.3974 10.0569C19.3974 8.98872 19.2553 8.05122 18.9712 7.24441C18.6928 6.43191 18.3008 5.74157 17.7951 5.17338C17.2951 4.59952 16.7127 4.13361 16.0479 3.77566C15.3832 3.4177 14.6616 3.15634 13.8832 2.99157C13.1104 2.82679 12.315 2.74441 11.4968 2.74441C10.082 2.74441 8.84624 2.96032 7.78942 3.39213C6.7326 3.81827 5.85192 4.4177 5.14737 5.19043C4.44283 5.96316 3.91442 6.86941 3.56215 7.90918C3.21555 8.94327 3.03942 10.0711 3.03374 11.2927C3.03942 12.6393 3.22692 13.8325 3.59624 14.8722C3.97124 15.9063 4.52237 16.7757 5.24964 17.4802C5.97692 18.1847 6.87465 18.7188 7.94283 19.0825C9.01101 19.4461 10.2383 19.6279 11.6246 19.6279C12.2781 19.6279 12.9173 19.5796 13.5423 19.483C14.1673 19.3921 14.7326 19.2785 15.2383 19.1421C15.744 19.0115 16.1502 18.8836 16.457 18.7586L17.3008 21.2302C16.9428 21.4347 16.457 21.6251 15.8434 21.8012C15.2354 21.983 14.5479 22.1279 13.7809 22.2359C13.0195 22.3495 12.2354 22.4063 11.4286 22.4063ZM11.0366 14.7018C11.7298 14.7018 12.2809 14.5683 12.69 14.3012C13.1048 14.0342 13.4002 13.6393 13.5764 13.1166C13.7582 12.5882 13.8434 11.9376 13.832 11.1649C13.8263 10.483 13.7383 9.90634 13.5678 9.43475C13.4031 8.95747 13.1161 8.59668 12.707 8.35236C12.3036 8.10236 11.7411 7.97736 11.0195 7.97736C10.3888 7.97736 9.85192 8.11088 9.40874 8.37793C8.97124 8.64498 8.63601 9.01998 8.40305 9.50293C8.17578 9.9802 8.0593 10.5427 8.05362 11.1904C8.0593 11.7927 8.1559 12.3637 8.3434 12.9035C8.5309 13.4376 8.84055 13.8722 9.27237 14.2075C9.70419 14.537 10.2923 14.7018 11.0366 14.7018Z" fill="#BD83CE"/>
</svg>
