<svg width="20" height="20" viewBox="0 0 20 20" fill="none" xmlns="http://www.w3.org/2000/svg">
<path d="M9.33681 2.37447L5.28819 8.15889C5.12847 8.38652 5.13542 8.73912 5.30556 8.95782C6.36458 10.3191 8.08333 10.3191 9.14236 8.95782L10.2465 7.5385C10.3924 7.35104 10.5764 7.24838 10.7639 7.23053C11 7.20375 11.2431 7.30641 11.4236 7.5385L17.5556 15.3537L20 12.8543V0L16.1111 2.85651L15.2847 2.14684C14.7361 1.6782 14.0938 1.42825 13.434 1.42825H10.9896C10.9514 1.42825 10.9097 1.42825 10.8715 1.43272C10.2847 1.47289 9.73264 1.8121 9.33681 2.37447ZM4.04861 6.72618L7.75694 1.42825H6.38194C5.49653 1.42825 4.64931 1.87905 4.02431 2.68244L3.88889 2.85651L0 0V12.8543L5.43056 18.6699C6.22917 19.5269 7.23611 19.9955 8.27431 19.9955H8.81944L8.57639 19.6831C8.25 19.2636 8.25 18.5851 8.57639 18.1701C8.90278 17.755 9.43056 17.7505 9.75347 18.1701L11.1771 20H11.4896C12.1528 20 12.8021 19.8081 13.3924 19.451L12.4653 18.2549C12.1389 17.8353 12.1389 17.1569 12.4653 16.7418C12.7917 16.3267 13.3194 16.3223 13.6424 16.7418L14.7535 18.1701L15.3611 17.389C15.6701 16.9917 15.7604 16.416 15.625 15.9116L10.8368 9.80585L10.3194 10.4709C8.60764 12.6713 5.83681 12.6713 4.125 10.4709C3.32639 9.44432 3.29514 7.79737 4.04861 6.72171V6.72618Z" fill="#BD83CE"/>
</svg>
