<svg width="34" height="34" viewBox="0 0 34 34" fill="none" xmlns="http://www.w3.org/2000/svg">
<g clip-path="url(#clip0_1266_306)">
<path d="M5.52195 33.63V25.7383H3.82727C1.58805 25.7383 0.251953 24.3995 0.251953 22.1603V3.72063C0.251953 1.84266 1.8218 0.371094 3.82727 0.371094H30.1719C32.2093 0.371094 33.7473 1.81078 33.7473 3.72063V22.163C33.7473 24.3358 32.3448 25.7409 30.1719 25.7409H13.5465L5.52195 33.63Z" fill="#8A8A8A"/>
<path d="M3.8268 2.25391C2.98477 2.25391 2.13477 2.75859 2.13477 3.72016V22.1625C2.13477 23.3658 2.62617 23.8545 3.8268 23.8545H7.40477V29.1352L12.7757 23.8572H30.1715C31.311 23.8572 31.8635 23.302 31.8635 22.1652V3.72281C31.8635 2.76125 31.0135 2.25656 30.1715 2.25656H3.8268V2.25391Z" fill="white"/>
<path d="M8.868 15.44C8.956 15.456 9.064 15.472 9.192 15.488C9.32 15.496 9.44 15.5 9.552 15.5C9.824 15.5 10.072 15.46 10.296 15.38C10.528 15.3 10.724 15.176 10.884 15.008C11.052 14.84 11.18 14.624 11.268 14.36C11.364 14.088 11.412 13.764 11.412 13.388C11.412 12.668 11.244 12.128 10.908 11.768C10.572 11.4 10.124 11.216 9.564 11.216C9.452 11.216 9.336 11.22 9.216 11.228C9.104 11.236 8.988 11.248 8.868 11.264V15.44ZM9.54 17.192C9.404 17.192 9.248 17.188 9.072 17.18C8.896 17.172 8.712 17.156 8.52 17.132C8.336 17.108 8.148 17.076 7.956 17.036C7.772 17.004 7.6 16.956 7.44 16.892C7 16.724 6.78 16.432 6.78 16.016V10.412C6.78 10.244 6.824 10.116 6.912 10.028C7.008 9.932 7.136 9.856 7.296 9.8C7.64 9.688 8.004 9.616 8.388 9.584C8.772 9.544 9.116 9.524 9.42 9.524C10.044 9.524 10.608 9.6 11.112 9.752C11.624 9.904 12.06 10.14 12.42 10.46C12.788 10.772 13.072 11.168 13.272 11.648C13.472 12.128 13.572 12.696 13.572 13.352C13.572 13.992 13.476 14.552 13.284 15.032C13.092 15.504 12.816 15.904 12.456 16.232C12.104 16.552 11.68 16.792 11.184 16.952C10.688 17.112 10.14 17.192 9.54 17.192ZM14.4722 10.844C14.4722 10.5 14.5722 10.228 14.7722 10.028C14.9722 9.828 15.2442 9.728 15.5882 9.728H19.5482C19.6042 9.816 19.6522 9.932 19.6922 10.076C19.7402 10.22 19.7642 10.372 19.7642 10.532C19.7642 10.836 19.6962 11.052 19.5602 11.18C19.4322 11.308 19.2602 11.372 19.0442 11.372H16.5122V12.488H19.2122C19.2682 12.576 19.3162 12.692 19.3562 12.836C19.4042 12.972 19.4282 13.12 19.4282 13.28C19.4282 13.584 19.3642 13.8 19.2362 13.928C19.1082 14.056 18.9362 14.12 18.7202 14.12H16.5122V15.38H19.5962C19.6522 15.468 19.7002 15.584 19.7402 15.728C19.7882 15.872 19.8122 16.024 19.8122 16.184C19.8122 16.488 19.7442 16.708 19.6082 16.844C19.4802 16.972 19.3082 17.036 19.0922 17.036H15.5882C15.2442 17.036 14.9722 16.936 14.7722 16.736C14.5722 16.536 14.4722 16.264 14.4722 15.92V10.844ZM25.1024 16.76C24.9904 16.856 24.8144 16.94 24.5744 17.012C24.3424 17.084 24.0864 17.12 23.8064 17.12C23.4704 17.12 23.1824 17.072 22.9424 16.976C22.7024 16.872 22.5384 16.732 22.4504 16.556C22.3624 16.372 22.2544 16.136 22.1264 15.848C21.9984 15.552 21.8624 15.224 21.7184 14.864C21.5824 14.504 21.4384 14.124 21.2864 13.724C21.1424 13.316 21.0024 12.904 20.8664 12.488C20.7304 12.072 20.6024 11.664 20.4824 11.264C20.3624 10.864 20.2584 10.488 20.1704 10.136C20.2824 10.024 20.4424 9.924 20.6504 9.836C20.8664 9.74 21.0944 9.692 21.3344 9.692C21.6304 9.692 21.8704 9.756 22.0544 9.884C22.2464 10.004 22.3864 10.232 22.4744 10.568C22.6904 11.352 22.9064 12.104 23.1224 12.824C23.3464 13.536 23.5784 14.28 23.8184 15.056H23.8904C24.1064 14.304 24.3264 13.484 24.5504 12.596C24.7824 11.708 25.0024 10.824 25.2104 9.944C25.3544 9.872 25.5064 9.812 25.6664 9.764C25.8344 9.716 26.0224 9.692 26.2304 9.692C26.5264 9.692 26.7784 9.76 26.9864 9.896C27.1944 10.024 27.2984 10.24 27.2984 10.544C27.2984 10.72 27.2544 10.976 27.1664 11.312C27.0864 11.648 26.9784 12.028 26.8424 12.452C26.7144 12.868 26.5664 13.304 26.3984 13.76C26.2384 14.216 26.0744 14.648 25.9064 15.056C25.7464 15.456 25.5944 15.812 25.4504 16.124C25.3064 16.428 25.1904 16.64 25.1024 16.76Z" fill="#8A8A8A"/>
</g>
<defs>
<clipPath id="clip0_1266_306">
<rect width="34" height="34" fill="white"/>
</clipPath>
</defs>
</svg>
