<?xml version="1.0" encoding="UTF-8"?>
<svg version="1.1" xmlns="http://www.w3.org/2000/svg" width="512" height="512">
<path d="M0 0 C0.78774811 0.00215515 1.57549622 0.0043103 2.38711548 0.00653076 C15.27089904 0.06286506 27.78102437 0.73299856 40.4375 3.3125 C41.42186035 3.51117676 42.4062207 3.70985352 43.42041016 3.91455078 C73.54940241 10.18848693 105.46731802 21.55569858 130.08544922 40.58642578 C131.76686461 41.92291898 131.76686461 41.92291898 134.4375 43.3125 C139.15803968 42.44005702 143.52235948 38.86078187 147.5625 36.3125 C196.53827998 6.09583737 256.42208042 -8.94758978 313.4375 4.3125 C344.79330382 11.8736616 344.79330382 11.8736616 350.4375 20.3125 C350.89160156 23.35864258 350.89160156 23.35864258 350.828125 26.70703125 C350.80878906 28.51010742 350.80878906 28.51010742 350.7890625 30.34960938 C350.73878906 32.21842773 350.73878906 32.21842773 350.6875 34.125 C350.66945313 35.39021484 350.65140625 36.65542969 350.6328125 37.95898438 C350.58573916 41.07759335 350.51999094 44.19465973 350.4375 47.3125 C351.40574707 47.29678955 352.37399414 47.2810791 353.37158203 47.26489258 C356.98331294 47.21036015 360.59500785 47.17606581 364.20703125 47.14770508 C365.76666394 47.13267131 367.32625472 47.11223865 368.88574219 47.08618164 C371.13487116 47.04955789 373.38343847 47.03271979 375.6328125 47.01953125 C376.3236795 47.00404739 377.01454651 46.98856354 377.72634888 46.97261047 C382.37003306 46.97101675 385.51486441 47.82971353 389.4375 50.3125 C391.63892983 53.61464474 391.68891105 54.59461309 391.69476891 58.43097496 C391.7012178 59.49630026 391.70766669 60.56162556 391.714311 61.65923345 C391.7112138 62.83382356 391.7081166 64.00841367 391.70492554 65.21859741 C391.70945665 66.46311633 391.71398776 67.70763524 391.71865618 68.98986685 C391.72915178 72.45098439 391.73062172 75.91189467 391.72826743 79.3730135 C391.72786013 83.10316784 391.73889012 86.83329092 391.74838257 90.56343079 C391.76501229 97.8739808 391.770493 105.18449857 391.77160732 112.49506591 C391.77255686 118.43603235 391.77666242 124.37698813 391.78300858 130.3179512 C391.80062632 147.15285002 391.80984661 163.9877233 391.80834763 180.8226314 C391.80822776 182.18466714 391.80822776 182.18466714 391.80810547 183.57421875 C391.80802371 184.4833482 391.80794195 185.39247765 391.80785771 186.32915647 C391.80704464 201.06607889 391.82618607 215.80289913 391.8543822 230.53979199 C391.88308946 245.66287436 391.89692369 260.78590688 391.89519465 275.90901721 C391.89453 284.40298501 391.9000549 292.89684572 391.92155075 301.39078903 C391.93973421 308.6223466 391.94413334 315.85374853 391.9305319 323.08531903 C391.92398782 326.77610393 391.92393644 330.46658999 391.9412384 334.15734673 C391.95979093 338.15593738 391.94745242 342.15383182 391.93197632 346.1524353 C391.94226344 347.32256397 391.95255057 348.49269263 391.96314943 349.69827974 C391.89574512 357.54370995 391.89574512 357.54370995 389.53159523 361.51000404 C385.66420574 364.83886598 382.28647984 364.45584076 377.3966856 364.44672108 C376.55168905 364.44907331 375.7066925 364.45142554 374.83609 364.45384905 C371.97361503 364.46056392 369.1111852 364.46008008 366.248703 364.45967102 C364.18813946 364.46296809 362.12757657 364.46669332 360.06701452 364.4708125 C354.38039841 364.48085832 348.69379286 364.48455343 343.00716913 364.48720181 C336.88366582 364.49109718 330.76017093 364.50067597 324.63667297 364.50941467 C310.53689613 364.52826455 296.43712122 364.53843795 282.33733532 364.54687535 C275.37305266 364.55107936 268.40877086 364.55630166 261.44448893 364.56155988 C237.61518926 364.57945075 213.78588936 364.59444806 189.95658398 364.60188007 C188.46014198 364.60235483 186.96369999 364.60283072 185.467258 364.60330774 C184.72514193 364.60354411 183.98302587 364.60378049 183.21842145 364.60402403 C179.45835843 364.60522525 175.69829543 364.60644069 171.93823242 364.60766602 C170.81892975 364.60802624 170.81892975 364.60802624 169.67701491 364.60839374 C145.47440174 364.61628957 121.27183753 364.63972689 97.06924575 364.67222196 C71.49385519 364.70649765 45.9184933 364.72622908 20.34307939 364.72952431 C17.53705711 364.72994187 14.73103485 364.73042144 11.92501259 364.73094749 C11.23406746 364.73107069 10.54312234 364.73119388 9.83123948 364.7313208 C-1.3015107 364.73365558 -12.43420415 364.74933089 -23.56693409 364.76978934 C-34.75094316 364.79001643 -45.93488489 364.79520524 -57.11891512 364.78601871 C-63.18124105 364.781457 -69.24338224 364.78346849 -75.30568314 364.80278015 C-80.85045489 364.82029131 -86.39490547 364.81951275 -91.93968006 364.80388286 C-93.95046696 364.80148837 -95.96127541 364.80592461 -97.97202919 364.81771151 C-100.69646942 364.83269854 -103.41975206 364.82324997 -106.14416218 364.80748463 C-106.93262814 364.81770683 -107.72109409 364.82792904 -108.53345296 364.83846101 C-112.25666318 364.79114039 -114.36294872 364.44083249 -117.52614611 362.40656346 C-120.56744904 359.27907105 -120.68877583 357.57006385 -120.69951439 353.31707287 C-120.70458893 352.25373861 -120.70966347 351.19040436 -120.71489179 350.09484786 C-120.71538955 348.91734491 -120.71588731 347.73984196 -120.71640015 346.5266571 C-120.7207824 345.28299261 -120.72516465 344.03932812 -120.7296797 342.75797683 C-120.74076245 339.29465724 -120.74729775 335.83138294 -120.75186086 332.36805212 C-120.75781013 328.63720445 -120.76942158 324.90637351 -120.78015137 321.17553711 C-120.80468968 312.16033285 -120.819304 303.14512304 -120.83221143 294.12989566 C-120.83592213 291.58476322 -120.83989545 289.03963133 -120.8439641 286.49449944 C-120.8691978 270.69837597 -120.89125656 254.90225166 -120.90369225 239.10611248 C-120.90662206 235.44614852 -120.90958371 231.78618459 -120.91259766 228.1262207 C-120.91334371 227.21652575 -120.91408976 226.3068308 -120.91485842 225.36956934 C-120.92751776 210.62610181 -120.96074784 195.88275472 -121.00239949 181.13934352 C-121.04478706 166.01177923 -121.06838354 150.88427666 -121.07361281 135.75665313 C-121.07703039 127.25927862 -121.08882638 118.76209238 -121.12171555 110.26477623 C-121.14967357 103.02952321 -121.16073416 95.79449703 -121.14952008 88.55919417 C-121.14432255 84.86631863 -121.14729015 81.17391845 -121.17198563 77.48111153 C-121.1985189 73.4801733 -121.1864554 69.48028778 -121.17050171 65.47929382 C-121.1843838 64.30848304 -121.19826588 63.13767226 -121.21256864 61.93138236 C-121.13519345 54.0916663 -121.13519345 54.0916663 -118.21199989 50.11457539 C-113.84844901 47.14667655 -110.13966132 47.17765945 -105.05078125 47.21484375 C-104.32255661 47.2162587 -103.59433197 47.21767365 -102.84403992 47.21913147 C-100.52098461 47.22472341 -98.19802612 47.23727438 -95.875 47.25 C-94.29882952 47.25501604 -92.72265752 47.25957877 -91.14648438 47.26367188 C-87.28511902 47.2746902 -83.42382592 47.29194926 -79.5625 47.3125 C-79.58344727 46.52077393 -79.60439453 45.72904785 -79.62597656 44.91333008 C-79.70925467 41.31734982 -79.76119891 37.72157264 -79.8125 34.125 C-79.86277344 32.25618164 -79.86277344 32.25618164 -79.9140625 30.34960938 C-79.92695312 29.14755859 -79.93984375 27.94550781 -79.953125 26.70703125 C-79.97407227 25.60206299 -79.99501953 24.49709473 -80.01660156 23.35864258 C-79.45421924 19.58614571 -78.22274556 17.99971852 -75.5625 15.3125 C-72.96755463 13.95184348 -70.60082136 12.87972623 -67.875 11.875 C-67.10115967 11.58278564 -66.32731934 11.29057129 -65.5300293 10.98950195 C-58.76054411 8.54164024 -51.86566995 6.69905862 -44.875 5 C-43.38190308 4.63660522 -43.38190308 4.63660522 -41.85864258 4.26586914 C-27.89399827 1.04133272 -14.26980179 -0.07069405 0 0 Z M-57.5625 32.3125 C-57.5625 121.7425 -57.5625 211.1725 -57.5625 303.3125 C-50.04121399 301.81168509 -50.04121399 301.81168509 -42.52734375 300.27734375 C-40.8515625 299.93489583 -39.17578125 299.59244792 -37.5 299.25 C-36.66662109 299.07662109 -35.83324219 298.90324219 -34.97460938 298.72460938 C-34.14638672 298.55638672 -33.31816406 298.38816406 -32.46484375 298.21484375 C-31.73773193 298.06523193 -31.01062012 297.91562012 -30.26147461 297.76147461 C-23.54489347 296.64417088 -16.86963937 296.14541989 -10.06640625 296.07421875 C-9.28381439 296.0644249 -8.50122253 296.05463104 -7.69491577 296.04454041 C37.82825436 295.59271078 81.55564115 305.63822287 120.47436523 330.20874023 C122.35269853 331.4758638 122.35269853 331.4758638 124.4375 331.3125 C124.68932194 297.43461722 124.88312777 263.55696745 124.99921862 229.67835647 C125.01297627 225.67798481 125.02721382 221.677615 125.04174805 217.67724609 C125.04463346 216.88085043 125.04751888 216.08445477 125.05049173 215.26392591 C125.09834626 202.37155667 125.18507004 189.47972741 125.28618076 176.58767843 C125.38907743 163.35748831 125.45015252 150.12758082 125.47247344 136.89700699 C125.48756155 128.73378898 125.53519534 120.57209715 125.62458114 112.40934902 C125.68964836 106.14812515 125.69650042 99.88806264 125.68168449 93.62654686 C125.68471204 91.05939526 125.70661234 88.49218617 125.74876022 85.9253788 C126.74819955 72.73394332 126.74819955 72.73394332 122.06356239 61.07096863 C119.23588677 58.96405649 116.69904123 57.61804795 113.4375 56.3125 C111.91846879 55.4260641 110.40910905 54.52243425 108.91796875 53.58984375 C107.49179147 52.80113068 106.06072475 52.02119672 104.625 51.25 C103.85003174 50.8286377 103.07506348 50.40727539 102.27661133 49.97314453 C100.00198253 48.74317222 97.72053328 47.52678058 95.4375 46.3125 C94.83035156 45.98362793 94.22320312 45.65475586 93.59765625 45.31591797 C48.76313129 21.09957957 -9.47191883 13.07626753 -57.5625 32.3125 Z M146.4375 64.3125 C146.34089288 65.74078618 146.31378166 67.17383631 146.31445217 68.60538578 C146.31246112 69.53744345 146.31047007 70.46950112 146.30841869 71.42980295 C146.31133153 72.46577331 146.31424437 73.50174366 146.31724548 74.56910706 C146.31639106 75.66026996 146.31553663 76.75143287 146.31465632 77.87566131 C146.3129983 81.56238748 146.31852813 85.24906898 146.32397461 88.93579102 C146.32425644 91.56644693 146.32409883 94.19710292 146.3235321 96.82775879 C146.32300668 102.50702446 146.32615539 108.18627867 146.33176994 113.86554146 C146.33988247 122.07689312 146.34249991 130.28823921 146.34375793 138.49959444 C146.34594884 151.82061493 146.35260998 165.14162931 146.36206055 178.46264648 C146.37123366 191.40600555 146.37831499 204.34936295 146.38256836 217.29272461 C146.38283108 218.08998971 146.38309381 218.8872548 146.38336449 219.70867945 C146.38466949 223.70815583 146.38593321 227.70763222 146.38717639 231.70710862 C146.39755022 264.90891019 146.41516959 298.11070428 146.4375 331.3125 C150.13935238 329.86155265 153.59419504 328.22794971 157.09375 326.3359375 C170.89007472 318.96598004 184.56321664 312.27450462 199.4375 307.3125 C200.25734375 307.03470703 201.0771875 306.75691406 201.921875 306.47070312 C220.29561204 300.33167935 239.71642238 296.2241582 259.14453125 296.109375 C259.94380035 296.10240601 260.74306946 296.09543701 261.56655884 296.08825684 C264.12776019 296.07097893 266.68874282 296.06453862 269.25 296.0625 C270.12399445 296.06149292 270.99798889 296.06048584 271.89846802 296.05944824 C284.62340614 296.0693815 296.99020734 296.41553734 309.4375 299.3125 C310.57493652 299.57716064 310.57493652 299.57716064 311.73535156 299.84716797 C315.28999519 300.69234359 318.82072766 301.58693836 322.34765625 302.54296875 C325.39197451 303.43333479 325.39197451 303.43333479 328.4375 303.3125 C328.4375 213.8825 328.4375 124.4525 328.4375 32.3125 C315.5844712 27.98898943 315.5844712 27.98898943 302.5625 25.0625 C301.70398438 24.90265625 300.84546875 24.7428125 299.9609375 24.578125 C252.25966103 15.90516564 182.35921843 28.39078157 146.4375 64.3125 Z M-98.5625 69.3125 C-98.5625 159.4025 -98.5625 249.4925 -98.5625 342.3125 C-34.2125 342.3125 30.1375 342.3125 96.4375 342.3125 C65.37996183 319.01934637 14.76287072 313.45355739 -22.81152344 318.08276367 C-36.15629017 320.07515435 -49.39262597 323.80755989 -61.9375 328.75 C-66.1888139 330.35096947 -69.12436188 330.82146696 -73.5625 329.3125 C-76.37524423 327.27469954 -78.26960617 325.66817684 -79.0239445 322.17667615 C-79.21158237 319.44997859 -79.23157526 316.7635567 -79.20173645 314.03044128 C-79.21009213 312.98486331 -79.2184478 311.93928533 -79.22705668 310.86202317 C-79.24902986 307.35323464 -79.2353655 303.84548835 -79.22192383 300.33666992 C-79.23037425 297.82364098 -79.24101706 295.3106186 -79.25369263 292.79760742 C-79.27605475 287.38460613 -79.28314205 281.97192657 -79.27634621 276.55888939 C-79.26654709 268.73265367 -79.28427921 260.90667046 -79.30871352 253.08047561 C-79.3476102 240.38282778 -79.36426647 227.68525215 -79.36694336 214.98754883 C-79.36959119 202.65352678 -79.38270907 190.3195891 -79.40991211 177.9855957 C-79.41158549 177.22522545 -79.41325887 176.46485519 -79.41498295 175.68144342 C-79.42344247 171.86685802 -79.43210788 168.05227312 -79.44087565 164.23768842 C-79.51333738 132.5959672 -79.54933757 100.95430316 -79.5625 69.3125 C-85.8325 69.3125 -92.1025 69.3125 -98.5625 69.3125 Z M350.4375 69.3125 C350.43695523 70.62209277 350.43641047 71.93168554 350.43584919 73.28096294 C350.42180916 104.35860335 350.38207573 135.43609362 350.31064438 166.51365228 C350.30187748 170.337633 350.2933277 174.16161419 350.28491211 177.9855957 C350.28323305 178.74689092 350.28155398 179.50818613 350.27982404 180.2925509 C350.25314435 192.62407915 350.24405827 204.95556092 350.24145857 217.28711506 C350.23840058 229.93769312 350.21647185 242.58813665 350.17697543 255.23865396 C350.15319437 263.04660006 350.14418431 270.85427773 350.15398689 278.66225509 C350.1599243 284.64651639 350.139624 290.63039324 350.10943985 296.61459351 C350.10117771 299.07162935 350.10149033 301.52871086 350.11090279 303.98574257 C350.12246404 307.33452474 350.1034971 310.6817784 350.07673645 314.03044128 C350.08740971 315.00806889 350.09808297 315.9856965 350.10907966 316.99294919 C350.04046089 321.5793386 349.94432572 323.64747663 347.0921278 327.38994312 C343.59470477 329.92287625 341.78155405 330.36052472 337.4375 330.3125 C333.60608428 329.35295275 329.9500396 327.99831124 326.25 326.625 C315.44343397 322.80969841 304.75378252 320.08558245 293.4375 318.3125 C292.23480469 318.12042969 291.03210938 317.92835938 289.79296875 317.73046875 C249.6136655 313.0066992 210.25183621 323.70791077 174.4375 341.3125 C174.4375 341.6425 174.4375 341.9725 174.4375 342.3125 C238.7875 342.3125 303.1375 342.3125 369.4375 342.3125 C369.4375 252.2225 369.4375 162.1325 369.4375 69.3125 C363.1675 69.3125 356.8975 69.3125 350.4375 69.3125 Z " fill="#8A8A8A" transform="translate(120.5625,73.6875)"/>
</svg>
