<?xml version="1.0" encoding="UTF-8"?>
<svg version="1.1" xmlns="http://www.w3.org/2000/svg" width="512" height="512">
<path d="M0 0 C1.19247475 -0.00538554 2.3849495 -0.01077108 3.61355984 -0.01631981 C6.89716731 -0.02808868 10.18044586 -0.02655772 13.46405578 -0.019153 C17.01563181 -0.01440155 20.56715467 -0.02694858 24.11871338 -0.03717041 C31.06637872 -0.05432536 38.01395349 -0.05520528 44.9616345 -0.04995751 C50.61156941 -0.0459083 56.26147764 -0.04736826 61.91141129 -0.05270576 C62.71699719 -0.05345419 63.5225831 -0.05420261 64.3525807 -0.05497371 C65.98938059 -0.05650526 67.62618048 -0.05804361 69.26298036 -0.05958868 C84.59646943 -0.07330184 99.92990742 -0.06788443 115.26339532 -0.05640347 C129.27413297 -0.04647297 143.28473852 -0.05941067 157.2954558 -0.08333766 C171.70124214 -0.10775291 186.10696702 -0.11733053 200.51277363 -0.11068493 C208.5927007 -0.10719801 216.67252622 -0.10938981 224.75243759 -0.12693596 C231.63083371 -0.14168835 238.50905677 -0.1422539 245.38744961 -0.12486505 C248.89282535 -0.1163774 252.39789235 -0.11415007 255.90325165 -0.1295166 C259.71297115 -0.14274548 263.52185875 -0.13116038 267.33154297 -0.11352539 C268.42592458 -0.1231304 269.52030618 -0.1327354 270.64785087 -0.14263147 C283.95985099 -0.01638669 294.62546412 4.57531879 304.23806763 13.7118988 C309.40502078 19.14316805 312.60925981 24.64379379 315.79275513 31.38768005 C317.06280396 31.39702576 318.33285278 31.40637146 319.64138794 31.41600037 C324.40540162 31.45621984 329.168791 31.52206403 333.93240356 31.59519958 C335.9844046 31.62322534 338.03650991 31.64453024 340.08865356 31.65867615 C358.35875959 31.79209951 371.69345029 33.85093443 385.54275513 46.70018005 C395.95139106 57.69798406 398.26021452 69.86124277 398.22634888 84.5478363 C398.23092652 85.90529639 398.2362367 87.26275418 398.24223328 88.62020874 C398.25111742 91.45514882 398.2487998 94.28980659 398.23880005 97.1247406 C398.22964465 99.99613189 398.23645073 102.86670768 398.25930786 105.73802185 C398.55662451 143.29086783 398.55662451 143.29086783 389.98025513 158.82518005 C389.63406128 159.481474 389.28786743 160.13776794 388.93118286 160.81394958 C377.00670369 182.9621365 358.58096954 198.24493649 334.66775513 205.82518005 C328.0888893 207.73048795 322.26688384 208.49219087 315.40994263 208.1415863 C299.38844399 206.82268747 299.38844399 206.82268747 285.37478638 212.5556488 C282.73715039 215.85136207 280.81572652 219.49595998 278.94998169 223.27049255 C277.08195363 226.68811688 274.5488461 229.35315894 271.85525513 232.13768005 C271.36476685 232.65813904 270.87427856 233.17859802 270.368927 233.71482849 C266.69638938 237.56786436 262.87283226 241.25813772 258.98025513 244.88768005 C258.20790527 245.60842712 258.20790527 245.60842712 257.41995239 246.34373474 C254.76079358 248.76867597 252.03991121 250.97716294 249.09866333 253.05369568 C248.47699783 253.49378967 247.85533234 253.93388367 247.21482849 254.38731384 C246.74554428 254.71743469 246.27626007 255.04755554 245.79275513 255.38768005 C246.57234589 255.39132568 247.35193665 255.39497131 248.15515137 255.39872742 C255.5398147 255.4367591 262.92398196 255.49378163 270.30832481 255.57158279 C274.10376975 255.61091653 277.89898758 255.64317333 281.6946106 255.65867615 C285.36482013 255.67393682 289.03440472 255.70854541 292.70433426 255.75598907 C294.09713908 255.77070682 295.49003318 255.77871549 296.8829155 255.7795639 C307.76391563 255.79284432 317.05772759 257.02253641 325.26150513 264.68455505 C334.15562298 274.57699225 334.55142715 285.2743968 333.9836731 297.96287537 C332.73842672 313.77845975 323.17738277 327.91074569 311.79275513 338.38768005 C298.83003262 348.36604695 285.39876398 352.70669841 269.23725891 352.64837646 C268.10280832 352.65220201 266.96835773 352.65602756 265.79952985 352.65996903 C262.01361389 352.67025422 258.22785087 352.66631534 254.44192505 352.66233826 C251.72118189 352.66559518 249.00044712 352.67180688 246.27970886 352.67782593 C239.66546766 352.69054858 233.05126711 352.69236963 226.43701573 352.69002566 C221.05784734 352.68823948 215.67869124 352.68999858 210.29952431 352.69425011 C209.53265797 352.6948453 208.76579163 352.69544048 207.97568691 352.69605371 C206.41756349 352.69726552 204.85944007 352.69847965 203.30131666 352.69969609 C188.70225737 352.71056242 174.1032212 352.70841353 159.50416062 352.70231124 C146.1658998 352.6971439 132.82771205 352.7083943 119.48946568 352.72740946 C105.7752854 352.7468098 92.06113966 352.75503995 78.34694558 352.75128621 C70.65490426 352.74937736 62.9629251 352.75183068 55.270895 352.76600075 C48.72188065 352.77794361 42.17296673 352.77928706 35.62395092 352.76721058 C32.28668041 352.76134188 28.94974297 352.76180898 25.61246109 352.77221298 C21.9845398 352.78270483 18.3571064 352.77455955 14.72920227 352.76190186 C13.68861182 352.76927614 12.64802137 352.77665043 11.57589787 352.78424817 C-5.87803032 352.65677362 -21.31530247 345.59639406 -33.55099487 333.2978363 C-46.95493173 318.61264078 -51.11680645 302.13627901 -50.38644409 282.72898865 C-49.79155953 274.95658682 -45.93479174 268.5372176 -40.20724487 263.38768005 C-32.21304859 257.37604445 -24.95660303 256.08511165 -15.12130737 255.97361755 C-13.53592667 255.94456833 -13.53592667 255.94456833 -11.91851807 255.91493225 C-8.55650803 255.85535091 -5.19446336 255.80883664 -1.83224487 255.76268005 C0.45292597 255.72448057 2.73808271 255.6854277 5.02322388 255.64549255 C10.61294213 255.54966704 16.20274589 255.46455716 21.79275513 255.38768005 C21.12961304 254.86166199 20.46647095 254.33564392 19.78323364 253.79368591 C13.58053367 248.85610342 7.5969815 243.78935524 1.79275513 238.38768005 C0.717677 237.41121521 0.717677 237.41121521 -0.37911987 236.4150238 C-22.8418777 215.14098856 -38.46030689 184.91918527 -46.01974487 155.13768005 C-46.31208008 153.98767517 -46.31208008 153.98767517 -46.61032104 152.81443787 C-50.01809109 138.55857482 -50.53223972 124.67541878 -50.54318237 110.09861755 C-50.54962554 108.06229056 -50.55635498 106.02596444 -50.56335449 103.98963928 C-50.57525478 99.74534458 -50.57904243 95.50113086 -50.57785034 91.25682068 C-50.57764662 85.84598819 -50.6050362 80.43567775 -50.63939476 75.0249691 C-50.66172867 70.82795364 -50.66568603 66.63106307 -50.66463089 62.43399429 C-50.6669737 60.43989373 -50.67572178 58.44578902 -50.69129562 56.45174789 C-50.81650154 38.77990336 -48.29544939 26.00353374 -35.89474487 12.63768005 C-25.55951607 2.85612422 -13.8804882 -0.07591836 0 0 Z M-14.14474487 38.13768005 C-19.00177184 45.79117709 -18.50053571 53.43603781 -18.47286987 62.26268005 C-18.4742217 63.63247242 -18.4761665 65.00226431 -18.47866821 66.37205505 C-18.48161107 69.24677589 -18.47735958 72.12137221 -18.46798706 74.99607849 C-18.45676328 78.60753069 -18.46324566 82.21868277 -18.47485733 85.8301239 C-18.61035993 135.32876981 -10.48457122 177.73448294 24.79275513 214.38768005 C25.36123169 215.01932068 25.92970825 215.6509613 26.51541138 216.30174255 C35.92746323 226.46001847 48.64253097 234.02134187 60.79275513 240.38768005 C62.51171997 241.29646912 62.51171997 241.29646912 64.26541138 242.22361755 C100.87301088 260.80893688 149.23966441 261.10374174 187.88894653 248.71580505 C226.83818542 235.32730825 255.36049401 206.67834451 273.41775513 170.32518005 C284.23310833 147.26081769 285.91319273 122.22300429 285.99588013 97.1415863 C285.9987075 96.46140882 286.00153488 95.78123135 286.00444794 95.08044243 C286.0192286 91.49738584 286.02859659 87.91436748 286.0329895 84.33128357 C286.03851894 80.66454959 286.06270024 76.99817848 286.09096146 73.33155918 C286.10966395 70.47376473 286.11479693 67.61605778 286.11632538 64.75820732 C286.12076277 62.75701448 286.13933687 60.7558687 286.15829468 58.75476074 C286.21300102 47.62607491 286.21300102 47.62607491 281.51766968 37.81103516 C274.98773953 31.78608357 267.00798739 32.09649943 258.68536377 32.12698364 C257.01982808 32.12124532 257.01982808 32.12124532 255.32064521 32.11539108 C251.60443171 32.1050821 247.88837331 32.1090493 244.17214966 32.11302185 C241.50594573 32.10867422 238.83975312 32.10355525 236.17355347 32.09753418 C229.68570944 32.08479802 223.19790681 32.08299214 216.71005239 32.08533444 C211.43521533 32.08711901 206.16039082 32.08536498 200.88555527 32.08111 C200.13420395 32.08051481 199.38285262 32.07991962 198.60873308 32.0793064 C197.0822514 32.07809462 195.55576972 32.07688048 194.02928804 32.07566402 C179.72027929 32.0647926 165.41129413 32.06694906 151.10228406 32.07304887 C138.02052989 32.07821738 124.93885019 32.06696361 111.85711075 32.04795065 C98.41534113 32.02856463 84.97360673 32.02031761 71.53182304 32.0240739 C63.98907703 32.02598482 56.44639441 32.02350903 48.90365982 32.00935936 C42.48223687 31.99743483 36.06091632 31.99605264 29.63949193 32.00814953 C26.3654205 32.01403082 23.09157454 32.01352529 19.8175087 32.00314713 C16.26287052 31.99269279 12.70873396 32.00077052 9.15411377 32.01345825 C8.12676624 32.00608397 7.09941872 31.99870968 6.04093945 31.99111193 C-1.15260536 32.04505152 -9.00067999 32.51408617 -14.14474487 38.13768005 Z M317.79275513 64.38768005 C317.7891095 65.1612384 317.78546387 65.93479675 317.78170776 66.73179626 C317.74331471 74.14151961 317.68590613 81.55076817 317.60885239 88.96018219 C317.56989418 92.76643209 317.53746055 96.57246848 317.52175903 100.37889099 C317.41562253 124.33719366 315.87843423 146.94669881 307.96463013 169.7822113 C306.63820044 173.23133766 306.63820044 173.23133766 306.79275513 176.38768005 C320.9417391 175.92453819 332.31654975 172.81917788 343.79275513 164.38768005 C344.50045044 163.8875238 345.20814575 163.38736755 345.93728638 162.87205505 C357.11180446 154.1440291 363.66653771 140.08130578 365.37088013 126.2509613 C366.06582563 118.53561839 366.01613915 110.77845802 366.0329895 103.03782654 C366.0427451 100.32796597 366.07386976 97.61884951 366.10525513 94.90916443 C366.11178279 93.16112198 366.11703419 91.41307421 366.12088013 89.6650238 C366.13322693 88.86789474 366.14557373 88.07076569 366.15829468 87.2494812 C366.13474373 81.22363983 365.40016064 74.65199174 361.51766968 69.79135132 C355.93812671 64.71775387 349.34543914 64.13424484 342.10916138 64.19236755 C341.40879257 64.19519745 340.70842377 64.19802734 339.98683167 64.20094299 C337.77612343 64.2120312 335.56583842 64.23711302 333.35525513 64.26268005 C331.8454954 64.2727246 330.33572925 64.28184785 328.82595825 64.2900238 C325.14808915 64.31193291 321.47046353 64.34638247 317.79275513 64.38768005 Z M-17.20724487 288.38768005 C-17.20724487 297.93534117 -14.80385969 304.67228868 -8.17990112 311.6337738 C1.19607206 319.97003511 12.71250415 320.69784007 24.76028442 320.64164734 C25.80731128 320.64476732 26.85433813 320.6478873 27.93309307 320.65110183 C31.4111121 320.6590238 34.88895382 320.65278089 38.36697388 320.64646912 C40.87288515 320.64918155 43.37879562 320.6527439 45.88470459 320.65708923 C51.96627966 320.66524234 58.04778619 320.66407645 64.12935853 320.65826395 C69.07513473 320.65373403 74.02089712 320.65314029 78.9666748 320.65531158 C79.67250094 320.65561805 80.37832708 320.65592452 81.10554188 320.65624027 C82.53973397 320.65687977 83.97392605 320.65752819 85.40811813 320.65818545 C98.83400251 320.66387879 112.25985951 320.65734653 125.6857394 320.64658472 C137.18789636 320.63765011 148.69001295 320.63920244 160.19216919 320.64842224 C173.57235916 320.65914251 186.95252518 320.66332956 200.33271885 320.65719771 C201.76142438 320.65656066 203.19012991 320.65593192 204.61883545 320.65531158 C205.32165498 320.65500303 206.02447451 320.65469448 206.7485916 320.65437658 C211.684329 320.65265491 216.62005111 320.65555333 221.55578613 320.66027069 C228.20755599 320.66648885 234.85926169 320.66201657 241.51102829 320.65048218 C243.94782765 320.64784455 246.38463343 320.6485853 248.82143021 320.65300751 C252.15611425 320.65849982 255.49055701 320.65158415 258.82522583 320.64164734 C260.26003312 320.6483395 260.26003312 320.6483395 261.72382641 320.65516686 C273.57115119 320.58703157 283.51247888 318.79119185 292.60916138 310.7900238 C298.77358622 304.25480649 300.79275513 297.2289075 300.79275513 288.38768005 C195.85275513 288.38768005 90.91275513 288.38768005 -17.20724487 288.38768005 Z " fill="#8A8A8A" transform="translate(82.20724487304688,95.61231994628906)"/>
</svg>
