<?xml version="1.0" encoding="UTF-8"?>
<svg version="1.1" xmlns="http://www.w3.org/2000/svg" viewBox="0 30 707 707">
<path d="M0 0 C10.56 0 21.12 0 32 0 C32 0.66 32 1.32 32 2 C32.6290625 2.03738281 33.258125 2.07476562 33.90625 2.11328125 C42.84128919 2.79955685 49.38424038 5.39881189 57 10 C57 10.66 57 11.32 57 12 C57.721875 12.268125 58.44375 12.53625 59.1875 12.8125 C65.67719143 15.55259194 69.79143497 19.38857995 74 25 C74.33 25.99 74.66 26.98 75 28 C75.66 28 76.32 28 77 28 C77.83848804 29.45537568 78.67063934 30.91440373 79.5 32.375 C79.9640625 33.18710937 80.428125 33.99921875 80.90625 34.8359375 C82 37 82 37 82 39 C82.66 39 83.32 39 84 39 C84.33 41.31 84.66 43.62 85 46 C85.66 46 86.32 46 87 46 C87.33 48.64 87.66 51.28 88 54 C88.66 54 89.32 54 90 54 C90.33 54.99 90.66 55.98 91 57 C91.66 53.7 92.32 50.4 93 47 C93.66 47 94.32 47 95 47 C95.33 44.69 95.66 42.38 96 40 C96.66 40 97.32 40 98 40 C98.33 38.35 98.66 36.7 99 35 C99.66 35 100.32 35 101 35 C101.20625 34.34 101.4125 33.68 101.625 33 C103.49124252 28.92819814 105.97561527 25.31203002 109 22 C109.66 22 110.32 22 111 22 C111.33 21.01 111.66 20.02 112 19 C116.45714286 15 116.45714286 15 119 15 C119 14.34 119 13.68 119 13 C120.32 12.67 121.64 12.34 123 12 C123 11.34 123 10.68 123 10 C123.804375 9.87625 124.60875 9.7525 125.4375 9.625 C126.283125 9.41875 127.12875 9.2125 128 9 C128.33 8.34 128.66 7.68 129 7 C131.06640625 6.3671875 131.06640625 6.3671875 133.5625 5.875 C134.38878906 5.70742188 135.21507812 5.53984375 136.06640625 5.3671875 C136.70449219 5.24601562 137.34257812 5.12484375 138 5 C138 4.34 138 3.68 138 3 C142.0527516 2.01751476 145.83861737 1.91840426 150 2 C150 1.34 150 0.68 150 0 C159.57 0 169.14 0 179 0 C179 0.66 179 1.32 179 2 C184.445 2.495 184.445 2.495 190 3 C190 3.66 190 4.32 190 5 C191.6396875 5.2165625 191.6396875 5.2165625 193.3125 5.4375 C197 6 197 6 200 7 C200 7.66 200 8.32 200 9 C201.65 9.33 203.3 9.66 205 10 C205 10.66 205 11.32 205 12 C205.71671875 12.23847656 206.4334375 12.47695313 207.171875 12.72265625 C210.43928911 14.1984082 212.60451458 16.02567272 215.25 18.4375 C216.55710937 19.61119141 216.55710937 19.61119141 217.890625 20.80859375 C220 23 220 23 221 26 C221.99 26.33 222.98 26.66 224 27 C224.6875 29.0625 224.6875 29.0625 225 31 C225.66 31 226.32 31 227 31 C228 33 229 35 230 37 C230.391875 37.721875 230.78375 38.44375 231.1875 39.1875 C232 41 232 41 232 44 C232.66 44 233.32 44 234 44 C234.33 46.64 234.66 49.28 235 52 C235.66 52 236.32 52 237 52 C237.90368143 56.6121519 238.13763418 61.06602569 238.11352539 65.74951172 C238.11367142 66.50141281 238.11381744 67.2533139 238.1139679 68.02799988 C238.11327528 70.49525918 238.10551358 72.9624415 238.09765625 75.4296875 C238.09578975 77.14747069 238.09436694 78.86525442 238.09336853 80.58303833 C238.08956159 85.09079473 238.07974696 89.5985186 238.06866455 94.10626221 C238.05841115 98.711462 238.05386251 103.31666707 238.04882812 107.921875 C238.03812298 116.94793091 238.02106856 125.97396274 238 135 C238.62036133 135.11931885 239.24072266 135.2386377 239.87988281 135.36157227 C243.02633511 136.30905876 243.94895701 138.25517742 245.75 140.9375 C246.36359375 141.83339844 246.9771875 142.72929687 247.609375 143.65234375 C249 146 249 146 249 148 C249.66 148 250.32 148 251 148 C252.2890625 149.6796875 252.2890625 149.6796875 253.625 151.875 C254.07101562 152.59429687 254.51703125 153.31359375 254.9765625 154.0546875 C256 156 256 156 256 158 C256.66 158 257.32 158 258 158 C259.19140625 159.51171875 259.19140625 159.51171875 260.5625 161.6875 C263.11940318 165.6538181 265.74370156 169.56317061 268.4375 173.4375 C268.81841797 173.98792969 269.19933594 174.53835938 269.59179688 175.10546875 C271.42085261 177.74502287 273.2656009 180.37164669 275.1328125 182.984375 C275.76960938 183.87640625 276.40640625 184.7684375 277.0625 185.6875 C277.63097656 186.47511719 278.19945312 187.26273438 278.78515625 188.07421875 C280 190 280 190 280 192 C280.66 192 281.32 192 282 192 C286.07510587 196.3707094 288.40941964 200.53045839 288.375 206.5625 C288.28029767 208.04391503 288.16629463 209.52490505 288 211 C287.34 211 286.68 211 286 211 C285.938125 211.78375 285.87625 212.5675 285.8125 213.375 C285.544375 214.24125 285.27625 215.1075 285 216 C282.4375 217.3125 282.4375 217.3125 280 218 C280 218.66 280 219.32 280 220 C276.88296853 220.91394632 274.09812558 221.12525848 270.85496998 221.12584114 C269.28509995 221.12975276 269.28509995 221.12975276 267.68351537 221.13374341 C266.53416578 221.13151268 265.38481619 221.12928196 264.20063782 221.12698364 C262.36580779 221.12932363 262.36580779 221.12932363 260.49391049 221.13171089 C257.09207252 221.13501576 253.69028955 221.13381671 250.28845489 221.13072467 C246.61390167 221.1284642 242.93935329 221.13195544 239.26480103 221.13470459 C232.02841719 221.13917086 224.7920437 221.13817727 217.55565945 221.13529195 C211.60148419 221.13301956 205.64731179 221.13273338 199.69313622 221.13381577 C198.4134806 221.13404561 198.4134806 221.13404561 197.10797336 221.13428011 C195.37244183 221.13459998 193.6369103 221.13492419 191.90137877 221.1352527 C175.54717345 221.1381154 159.19297369 221.13481927 142.83876928 221.12945233 C129.11182954 221.12508329 115.38489852 221.12573491 101.65795898 221.13037109 C30.03905387 221.15369754 -41.58087945 221.14274802 -113.19874994 220.7151503 C-118.12554867 220.68638278 -123.0523446 220.6649223 -127.97919273 220.64673233 C-134.46774181 220.62258775 -140.95606009 220.58290768 -147.44446349 220.53195429 C-149.7931496 220.51575223 -152.14187583 220.50448353 -154.49061036 220.49856329 C-157.67218366 220.48960599 -160.85308742 220.46240531 -164.03450012 220.4303894 C-165.41012471 220.43283667 -165.41012471 220.43283667 -166.81353968 220.43533337 C-173.46652321 220.33876705 -178.54984966 219.45015034 -183.4375 214.5625 C-185 212 -185 212 -185 208 C-185.66 208 -186.32 208 -187 208 C-187.92881196 200.87910833 -184.80860571 196.81509067 -181 191 C-180.19661619 189.63181303 -179.40312376 188.25770913 -178.625 186.875 C-178.08875 185.92625 -177.5525 184.9775 -177 184 C-176.34 184 -175.68 184 -175 184 C-174.505 182.02 -174.505 182.02 -174 180 C-173.34 180 -172.68 180 -172 180 C-171.34 178.02 -170.68 176.04 -170 174 C-169.34 174 -168.68 174 -168 174 C-167.67 172.68 -167.34 171.36 -167 170 C-166.34 170 -165.68 170 -165 170 C-164.731875 169.278125 -164.46375 168.55625 -164.1875 167.8125 C-163.00098638 165.00233617 -161.72514361 162.51583443 -160 160 C-159.34 160 -158.68 160 -158 160 C-157.7628125 159.32582031 -157.525625 158.65164063 -157.28125 157.95703125 C-155.68972154 154.28390001 -153.66485917 151.04545248 -151.5 147.6875 C-151.09652344 147.04232422 -150.69304687 146.39714844 -150.27734375 145.73242188 C-149.24154258 144.11718738 -148.12659452 142.55327117 -147 141 C-146.34 141 -145.68 141 -145 141 C-145 140.34 -145 139.68 -145 139 C-141.94306678 137.47153339 -139.37015453 137.76757555 -136 138 C-133.625 139.0625 -133.625 139.0625 -132 141 C-131.10011742 144.87641726 -130.73506553 147.20519658 -132 151 C-132.66 151 -133.32 151 -134 151 C-134.33 152.32 -134.66 153.64 -135 155 C-135.66 155 -136.32 155 -137 155 C-137.33 156.32 -137.66 157.64 -138 159 C-138.66 159 -139.32 159 -140 159 C-140.66 160.98 -141.32 162.96 -142 165 C-142.66 165 -143.32 165 -144 165 C-144.2371875 165.67417969 -144.474375 166.34835937 -144.71875 167.04296875 C-146.31027846 170.71609999 -148.33514083 173.95454752 -150.5 177.3125 C-150.90347656 177.95767578 -151.30695313 178.60285156 -151.72265625 179.26757812 C-152.75845742 180.88281262 -153.87340548 182.44672883 -155 184 C-155.66 184 -156.32 184 -157 184 C-157.268125 184.721875 -157.53625 185.44375 -157.8125 186.1875 C-158.99901362 188.99766383 -160.27485639 191.48416557 -162 194 C-162.66 194 -163.32 194 -164 194 C-164.66 195.98 -165.32 197.96 -166 200 C-166.66 200 -167.32 200 -168 200 C-168.33 200.99 -168.66 201.98 -169 203 C-125.32965536 203.16879195 -81.65929191 203.33228207 -37.98890936 203.49095565 C-35.50748704 203.49997279 -33.02606474 203.50899924 -30.54464245 203.51802588 C90.16484001 203.95894589 90.16484001 203.95894589 210.875 204.0625 C211.66167431 204.06207577 212.44834862 204.06165154 213.25886154 204.06121445 C231.83925596 204.05100859 250.41962979 204.0325092 269 204 C269 203.34 269 202.68 269 202 C268.34 202 267.68 202 267 202 C265.7109375 200.3203125 265.7109375 200.3203125 264.375 198.125 C263.92898438 197.40570313 263.48296875 196.68640625 263.0234375 195.9453125 C262 194 262 194 262 192 C261.34 192 260.68 192 260 192 C258.7109375 190.3203125 258.7109375 190.3203125 257.375 188.125 C256.92898438 187.40570313 256.48296875 186.68640625 256.0234375 185.9453125 C255 184 255 184 255 182 C254.34 182 253.68 182 253 182 C251.7109375 180.3203125 251.7109375 180.3203125 250.375 178.125 C249.92898438 177.40570313 249.48296875 176.68640625 249.0234375 175.9453125 C248 174 248 174 248 172 C247.34 172 246.68 172 246 172 C245.67 170.68 245.34 169.36 245 168 C244.34 168 243.68 168 243 168 C242.2884375 166.5459375 242.2884375 166.5459375 241.5625 165.0625 C240.29806053 162.19522563 240.29806053 162.19522563 239 161 C238.34 164.63 237.68 168.26 237 172 C236.34 172 235.68 172 235 172 C234.67 173.98 234.34 175.96 234 178 C233.34 178 232.68 178 232 178 C231.938125 178.8353125 231.938125 178.8353125 231.875 179.6875 C230.51022892 183.294395 228.08919824 184.73038496 225 187 C224.34 187 223.68 187 223 187 C223 187.66 223 188.32 223 189 C222.360625 189.28875 221.72125 189.5775 221.0625 189.875 C218.84793921 190.82823451 218.84793921 190.82823451 218 193 C214.10418244 193.02911003 210.208393 193.04683587 206.3125 193.0625 C205.20970703 193.07087891 204.10691406 193.07925781 202.97070312 193.08789062 C201.90400391 193.09111328 200.83730469 193.09433594 199.73828125 193.09765625 C198.26935425 193.10551147 198.26935425 193.10551147 196.77075195 193.11352539 C194.07530428 193.00308543 191.62454361 192.60534166 189 192 C189 191.34 189 190.68 189 190 C187.02 189.67 185.04 189.34 183 189 C183 188.34 183 187.68 183 187 C182.278125 186.79375 181.55625 186.5875 180.8125 186.375 C177.02781616 184.52471012 175.47741347 182.39759562 173 179 C173 178.34 173 177.68 173 177 C172.34 177 171.68 177 171 177 C170.67 174.69 170.34 172.38 170 170 C169.34 170 168.68 170 168 170 C167.07907719 165.34462644 166.87794003 160.85314567 166.9375 156.125 C166.94201172 155.43664062 166.94652344 154.74828125 166.95117188 154.0390625 C166.96283664 152.35933665 166.98076729 150.67965625 167 149 C165.38931641 148.92652344 165.38931641 148.92652344 163.74609375 148.8515625 C162.30987358 148.77646602 160.87367681 148.70092124 159.4375 148.625 C158.73302734 148.5940625 158.02855469 148.563125 157.30273438 148.53125 C152.60979857 148.27173281 148.51068124 147.41764267 144 146 C142.35807097 145.60825846 140.71267205 145.23042167 139.0625 144.875 C137.90427734 144.62363281 137.90427734 144.62363281 136.72265625 144.3671875 C136.15417969 144.24601563 135.58570313 144.12484375 135 144 C135 143.34 135 142.68 135 142 C133.02 141.67 131.04 141.34 129 141 C129 140.34 129 139.68 129 139 C128.28457031 138.90589844 127.56914062 138.81179688 126.83203125 138.71484375 C123.5304047 137.88146767 121.45349084 136.53352459 118.6875 134.5625 C117.80449219 133.94503906 116.92148437 133.32757813 116.01171875 132.69140625 C115.01591797 131.85416016 115.01591797 131.85416016 114 131 C114 130.34 114 129.68 114 129 C113.38125 128.7525 112.7625 128.505 112.125 128.25 C109.64931313 126.79371361 109.04874998 125.62187494 108 123 C107.34 123 106.68 123 106 123 C102.31558305 118.49459884 99.4517379 113.66177782 98 108 C97.34 108 96.68 108 96 108 C95.67 105.69 95.34 103.38 95 101 C94.34 101 93.68 101 93 101 C92.34 97.7 91.68 94.4 91 91 C90.67 92.65 90.34 94.3 90 96 C89.34 96 88.68 96 88 96 C87.67 98.97 87.34 101.94 87 105 C86.34 105 85.68 105 85 105 C84.896875 105.886875 84.79375 106.77375 84.6875 107.6875 C83.98316997 111.08109013 82.90520689 113.14218967 81 116 C80.67 116.66 80.34 117.32 80 118 C79.34 118 78.68 118 78 118 C77.67 119.32 77.34 120.64 77 122 C76.34 122 75.68 122 75 122 C74.34 123.65 73.68 125.3 73 127 C72.34 127 71.68 127 71 127 C70.690625 127.8353125 70.690625 127.8353125 70.375 128.6875 C68.42316968 131.97012371 66.05769006 133.70673246 63 136 C62.34 136 61.68 136 61 136 C61 136.66 61 137.32 61 138 C50.68453999 143.7843701 41.79517277 148.32442406 30 150 C30 150.33 30 150.66 30 151 C20.76 151 11.52 151 2 151 C2 150.34 2 149.68 2 149 C0.4221875 149.0309375 0.4221875 149.0309375 -1.1875 149.0625 C-4.32704904 149.01103198 -6.96883396 148.73482813 -10 148 C-10 147.34 -10 146.68 -10 146 C-11.6396875 145.7834375 -11.6396875 145.7834375 -13.3125 145.5625 C-17 145 -17 145 -20 144 C-20 143.34 -20 142.68 -20 142 C-20.7425 141.71125 -21.485 141.4225 -22.25 141.125 C-24.56739797 140.17697356 -26.77917115 139.15154089 -29 138 C-29 137.34 -29 136.68 -29 136 C-30.10408203 135.62875 -30.10408203 135.62875 -31.23046875 135.25 C-34.26353941 133.88105415 -35.99790209 132.37126415 -38.3125 130 C-39.00988281 129.29875 -39.70726562 128.5975 -40.42578125 127.875 C-42 126 -42 126 -42 124 C-42.66 124 -43.32 124 -44 124 C-45.2890625 122.3203125 -45.2890625 122.3203125 -46.625 120.125 C-47.07101563 119.40570313 -47.51703125 118.68640625 -47.9765625 117.9453125 C-49 116 -49 116 -49 114 C-49.66 114 -50.32 114 -51 114 C-51.33 112.02 -51.66 110.04 -52 108 C-52.66 108 -53.32 108 -54 108 C-55.19287411 104.12315913 -56 101.08378077 -56 97 C-56.66 97 -57.32 97 -58 97 C-58.66 90.73 -59.32 84.46 -60 78 C-60.33 78 -60.66 78 -61 78 C-61 76.02 -61 74.04 -61 72 C-60.67 72 -60.34 72 -60 72 C-59.89042969 70.7934375 -59.78085938 69.586875 -59.66796875 68.34375 C-59.50838226 66.72911025 -59.34819381 65.11452992 -59.1875 63.5 C-59.08211914 62.31277344 -59.08211914 62.31277344 -58.97460938 61.1015625 C-58.41122242 55.60290577 -57.08382761 51.11738899 -55 46 C-54.835 45.0925 -54.67 44.185 -54.5 43.25 C-53.89688197 40.53596885 -52.87881309 39.02911814 -51 37 C-50.34 37 -49.68 37 -49 37 C-48.67 35.35 -48.34 33.7 -48 32 C-47.34 32 -46.68 32 -46 32 C-45.814375 31.34 -45.62875 30.68 -45.4375 30 C-43.39191226 25.73094732 -40.42815357 22.25836294 -37 19 C-36.34 19 -35.68 19 -35 19 C-35 18.34 -35 17.68 -35 17 C-32.953125 15.30859375 -32.953125 15.30859375 -30.25 13.4375 C-28.92742187 12.50744141 -28.92742187 12.50744141 -27.578125 11.55859375 C-25.28676489 10.17336241 -23.61056895 9.44526059 -21 9 C-21 8.34 -21 7.68 -21 7 C-16.05 6.01 -16.05 6.01 -11 5 C-11 4.34 -11 3.68 -11 3 C-7.37 2.67 -3.74 2.34 0 2 C0 1.34 0 0.68 0 0 Z M146 22 C145.01 22.33 144.02 22.66 143 23 C143 23.66 143 24.32 143 25 C142.195625 25.020625 141.39125 25.04125 140.5625 25.0625 C135.48148659 26.39960879 131.76582165 29.37644272 128 33 C128 33.66 128 34.32 128 35 C127.01 35.33 126.02 35.66 125 36 C123.09304146 38.17294352 123.09304146 38.17294352 121.3125 40.8125 C120.68988281 41.68519531 120.06726563 42.55789063 119.42578125 43.45703125 C117.67396526 46.09560348 117.67396526 46.09560348 118 50 C117.34 50 116.68 50 116 50 C114.54815522 54.53701494 113.76490804 58.18061476 114 63 C113.34 63 112.68 63 112 63 C112 70.26 112 77.52 112 85 C112.66 85 113.32 85 114 85 C114.06058594 85.77085937 114.12117188 86.54171875 114.18359375 87.3359375 C114.26738281 88.33882813 114.35117187 89.34171875 114.4375 90.375 C114.51871094 91.37273437 114.59992188 92.37046875 114.68359375 93.3984375 C114.84965626 95.97927613 114.84965626 95.97927613 116 98 C116.66 98 117.32 98 118 98 C118.020625 98.804375 118.04125 99.60875 118.0625 100.4375 C119.39960879 105.51851341 122.37644272 109.23417835 126 113 C126.66 113 127.32 113 128 113 C128.33 113.99 128.66 114.98 129 116 C129.66 116 130.32 116 131 116 C131 116.66 131 117.32 131 118 C132.43294498 118.84114171 133.87154405 119.67265687 135.3125 120.5 C136.11300781 120.9640625 136.91351563 121.428125 137.73828125 121.90625 C140.0314118 123.21767886 140.0314118 123.21767886 143 123 C143 123.66 143 124.32 143 125 C145.97 125.33 148.94 125.66 152 126 C152 126.66 152 127.32 152 128 C160.14648632 128.76299944 167.88611956 129.21521251 176 128 C177.25664978 125.09399739 178 123.20395416 178 120 C178.66 120 179.32 120 180 120 C181.41816491 118.18295929 181.41816491 118.18295929 182.8125 115.875 C187.49400816 108.67872487 192.12837229 103.90183926 198.98828125 98.734375 C199.98408203 97.87585938 199.98408203 97.87585938 201 97 C201 96.34 201 95.68 201 95 C202.32 94.67 203.64 94.34 205 94 C205 93.34 205 92.68 205 92 C206.3303125 91.5978125 206.3303125 91.5978125 207.6875 91.1875 C209.3271875 90.5996875 209.3271875 90.5996875 211 90 C211.88429688 89.69578125 212.76859375 89.3915625 213.6796875 89.078125 C216.16363761 87.26891393 216.16363761 87.26891393 216.43188477 84.88793945 C216.56942692 82.09654919 216.53526063 79.35559504 216.4375 76.5625 C216.42009766 75.57362793 216.40269531 74.58475586 216.38476562 73.56591797 C216.20575864 66.57202324 215.61233943 59.8236508 214 53 C213.34 53 212.68 53 212 53 C211.95875 52.195625 211.9175 51.39125 211.875 50.5625 C209.84922737 42.31471144 203.49514197 35.27085925 197 30 C193.73176179 28.45708115 193.73176179 28.45708115 191 28 C191 27.34 191 26.68 191 26 C189.02 25.67 187.04 25.34 185 25 C185 24.34 185 23.68 185 23 C178.08447465 21.25322134 171.49312313 20.53732007 164.375 20.25 C163.37726563 20.19457031 162.37953125 20.13914062 161.3515625 20.08203125 C155.73489215 19.83685913 151.29297442 20.08285966 146 22 Z M-6 23 C-6 23.66 -6 24.32 -6 25 C-7.98 25.33 -9.96 25.66 -12 26 C-12 26.66 -12 27.32 -12 28 C-13.98 28.66 -15.96 29.32 -18 30 C-18 30.66 -18 31.32 -18 32 C-18.5878125 32.24492187 -19.175625 32.48984375 -19.78125 32.7421875 C-26.20763574 36.38531462 -30.16496478 44.39804299 -33 51 C-33.2990625 51.65871094 -33.598125 52.31742187 -33.90625 52.99609375 C-35.95072115 57.85171272 -36.28152375 61.74488992 -36 67 C-36.66 67 -37.32 67 -38 67 C-38 72.61 -38 78.22 -38 84 C-37.34 84 -36.68 84 -36 84 C-36.04125 85.010625 -36.0825 86.02125 -36.125 87.0625 C-35.91669914 93.62397712 -33.64919075 99.0995297 -31 105 C-30.34 105 -29.68 105 -29 105 C-28.76796875 105.88171875 -28.5359375 106.7634375 -28.296875 107.671875 C-26.8259897 111.44655656 -25.11992978 113.41485725 -22.25 116.25 C-21.40953125 117.10078125 -20.5690625 117.9515625 -19.703125 118.828125 C-16.85052344 121.12009966 -14.51450789 122.0751295 -11 123 C-11 123.66 -11 124.32 -11 125 C-9.02 125.33 -7.04 125.66 -5 126 C-5 126.66 -5 127.32 -5 128 C1.90801429 129.62868865 8.41070802 130.31282977 15.5 130.25 C16.37269531 130.25773437 17.24539063 130.26546875 18.14453125 130.2734375 C24.30164887 130.25519419 30.01187638 129.41180788 36 128 C36 127.34 36 126.68 36 126 C37.98 125.67 39.96 125.34 42 125 C42 124.34 42 123.68 42 123 C42.721875 122.9175 43.44375 122.835 44.1875 122.75 C47.58926868 121.84286169 49.45466084 120.39989121 52 118 C52 117.34 52 116.68 52 116 C52.99 115.67 53.98 115.34 55 115 C55 114.34 55 113.68 55 113 C55.66 113 56.32 113 57 113 C58.36819481 111.31792068 58.36819481 111.31792068 59.625 109.1875 C60.07101562 108.47980469 60.51703125 107.77210938 60.9765625 107.04296875 C62.22394864 104.93378793 62.22394864 104.93378793 62 102 C62.66 102 63.32 102 64 102 C64.33 99.69 64.66 97.38 65 95 C65.66 95 66.32 95 67 95 C69.85685773 81.53195642 69.85685773 68.46804358 67 55 C66.34 55 65.68 55 65 55 C64.505 51.535 64.505 51.535 64 48 C63.34 48 62.68 48 62 48 C61.9175 47.29875 61.835 46.5975 61.75 45.875 C59.32167987 36.56643951 50.54990945 30.78930132 42.859375 25.84765625 C40.73397432 24.72345943 40.73397432 24.72345943 37 25 C37 24.34 37 23.68 37 23 C36.37351562 22.86722656 35.74703125 22.73445313 35.1015625 22.59765625 C34.28429687 22.42105469 33.46703125 22.24445313 32.625 22.0625 C31.81289063 21.88847656 31.00078125 21.71445312 30.1640625 21.53515625 C28 21 28 21 26 20 C15.33551104 19.13222011 4.05634196 19.04340644 -6 23 Z M204.5 117.1875 C202.78747743 118.86468289 202.78747743 118.86468289 203 121 C202.01 121.33 201.02 121.66 200 122 C198.08627644 124.40287946 198.08627644 124.40287946 196.3125 127.3125 C195.68988281 128.27800781 195.06726563 129.24351562 194.42578125 130.23828125 C192.69417403 133.07437325 192.69417403 133.07437325 193 137 C192.34 137 191.68 137 191 137 C188.68580036 147.31058592 186.66365197 158.39457355 192 168 C192.33 168.66 192.66 169.32 193 170 C197.44671254 173.61295394 201.55646414 173.32020799 207 173 C207 172.34 207 171.68 207 171 C209.475 170.505 209.475 170.505 212 170 C212 169.34 212 168.68 212 168 C212.66 168 213.32 168 214 168 C216.2599395 161.68546315 216.25901998 155.82206286 216.1953125 149.16015625 C216.19106766 147.47701576 216.19106766 147.47701576 216.18673706 145.75987244 C216.17558775 142.19397082 216.15049251 138.62832506 216.125 135.0625 C216.11496343 132.63737343 216.10583876 130.21224291 216.09765625 127.78710938 C216.07566559 121.85798637 216.04224027 115.92901147 216 110 C212.24122594 110 207.17464954 114.84718165 204.5 117.1875 Z " fill="#202020" transform="translate(303,266)"/>
<path d="M0 0 C1.828125 0.12890625 1.828125 0.12890625 4 1 C5.921875 3.21484375 5.921875 3.21484375 7.75 5.9375 C8.36359375 6.83339844 8.9771875 7.72929687 9.609375 8.65234375 C11 11 11 11 11 13 C11.66 13 12.32 13 13 13 C14.2890625 14.6796875 14.2890625 14.6796875 15.625 16.875 C16.07101562 17.59429687 16.51703125 18.31359375 16.9765625 19.0546875 C18 21 18 21 18 23 C18.66 23 19.32 23 20 23 C21.19140625 24.51171875 21.19140625 24.51171875 22.5625 26.6875 C25.11940318 30.6538181 27.74370156 34.56317061 30.4375 38.4375 C31.00887695 39.26314453 31.00887695 39.26314453 31.59179688 40.10546875 C33.42085261 42.74502287 35.2656009 45.37164669 37.1328125 47.984375 C37.76960938 48.87640625 38.40640625 49.7684375 39.0625 50.6875 C39.91521484 51.86892578 39.91521484 51.86892578 40.78515625 53.07421875 C42 55 42 55 42 57 C42.66 57 43.32 57 44 57 C48.07510587 61.3707094 50.40941964 65.53045839 50.375 71.5625 C50.28029767 73.04391503 50.16629463 74.52490505 50 76 C49.34 76 48.68 76 48 76 C47.938125 76.78375 47.87625 77.5675 47.8125 78.375 C47.4103125 79.674375 47.4103125 79.674375 47 81 C44.4375 82.3125 44.4375 82.3125 42 83 C42 83.66 42 84.32 42 85 C38.88296853 85.91394632 36.09812558 86.12525848 32.85496998 86.12584114 C31.28509995 86.12975276 31.28509995 86.12975276 29.68351537 86.13374341 C28.53416578 86.13151268 27.38481619 86.12928196 26.20063782 86.12698364 C24.36580779 86.12932363 24.36580779 86.12932363 22.49391049 86.13171089 C19.09207252 86.13501576 15.69028955 86.13381671 12.28845489 86.13072467 C8.61390167 86.1284642 4.93935329 86.13195544 1.26480103 86.13470459 C-5.97158281 86.13917086 -13.2079563 86.13817727 -20.44434055 86.13529195 C-26.39851581 86.13301956 -32.35268821 86.13273338 -38.30686378 86.13381577 C-39.5865194 86.13404561 -39.5865194 86.13404561 -40.89202664 86.13428011 C-42.62755817 86.13459998 -44.3630897 86.13492419 -46.09862123 86.1352527 C-62.45282655 86.1381154 -78.80702631 86.13481927 -95.16123072 86.12945233 C-108.88817046 86.12508329 -122.61510148 86.12573491 -136.34204102 86.13037109 C-207.96094613 86.15369754 -279.58087945 86.14274802 -351.19874994 85.7151503 C-356.12554867 85.68638278 -361.0523446 85.6649223 -365.97919273 85.64673233 C-372.46774181 85.62258775 -378.95606009 85.58290768 -385.44446349 85.53195429 C-387.7931496 85.51575223 -390.14187583 85.50448353 -392.49061036 85.49856329 C-395.67218366 85.48960599 -398.85308742 85.46240531 -402.03450012 85.4303894 C-403.41012471 85.43283667 -403.41012471 85.43283667 -404.81353968 85.43533337 C-411.46652321 85.33876705 -416.54984966 84.45015034 -421.4375 79.5625 C-423 77 -423 77 -423 73 C-423.66 73 -424.32 73 -425 73 C-425.92881196 65.87910833 -422.80860571 61.81509067 -419 56 C-418.19661619 54.63181303 -417.40312376 53.25770913 -416.625 51.875 C-416.08875 50.92625 -415.5525 49.9775 -415 49 C-414.34 49 -413.68 49 -413 49 C-412.67 47.68 -412.34 46.36 -412 45 C-411.34 45 -410.68 45 -410 45 C-409.34 43.02 -408.68 41.04 -408 39 C-407.34 39 -406.68 39 -406 39 C-405.67 37.68 -405.34 36.36 -405 35 C-404.34 35 -403.68 35 -403 35 C-402.731875 34.278125 -402.46375 33.55625 -402.1875 32.8125 C-401.00098638 30.00233617 -399.72514361 27.51583443 -398 25 C-397.34 25 -396.68 25 -396 25 C-395.7628125 24.32582031 -395.525625 23.65164063 -395.28125 22.95703125 C-393.68972154 19.28390001 -391.66485917 16.04545248 -389.5 12.6875 C-389.09652344 12.04232422 -388.69304687 11.39714844 -388.27734375 10.73242188 C-387.24154258 9.11718738 -386.12659452 7.55327117 -385 6 C-384.34 6 -383.68 6 -383 6 C-383 5.34 -383 4.68 -383 4 C-379.94306678 2.47153339 -377.37015453 2.76757555 -374 3 C-371.625 4.0625 -371.625 4.0625 -370 6 C-369.10011742 9.87641726 -368.73506553 12.20519658 -370 16 C-370.66 16 -371.32 16 -372 16 C-372.33 17.32 -372.66 18.64 -373 20 C-373.66 20 -374.32 20 -375 20 C-375.33 21.32 -375.66 22.64 -376 24 C-376.66 24 -377.32 24 -378 24 C-378.66 25.98 -379.32 27.96 -380 30 C-380.66 30 -381.32 30 -382 30 C-382.2371875 30.67417969 -382.474375 31.34835937 -382.71875 32.04296875 C-384.31027846 35.71609999 -386.33514083 38.95454752 -388.5 42.3125 C-388.90347656 42.95767578 -389.30695313 43.60285156 -389.72265625 44.26757812 C-390.75845742 45.88281262 -391.87340548 47.44672883 -393 49 C-393.66 49 -394.32 49 -395 49 C-395.268125 49.721875 -395.53625 50.44375 -395.8125 51.1875 C-396.99901362 53.99766383 -398.27485639 56.48416557 -400 59 C-400.66 59 -401.32 59 -402 59 C-402.66 60.98 -403.32 62.96 -404 65 C-404.66 65 -405.32 65 -406 65 C-406.33 65.99 -406.66 66.98 -407 68 C-363.32965536 68.16879195 -319.65929191 68.33228207 -275.98890936 68.49095565 C-273.50748704 68.49997279 -271.02606474 68.50899924 -268.54464245 68.51802588 C-147.83515999 68.95894589 -147.83515999 68.95894589 -27.125 69.0625 C-26.33832569 69.06207577 -25.55165138 69.06165154 -24.74113846 69.06121445 C-6.16074404 69.05100859 12.41962979 69.0325092 31 69 C31 68.34 31 67.68 31 67 C30.34 67 29.68 67 29 67 C27.7109375 65.3203125 27.7109375 65.3203125 26.375 63.125 C25.92898438 62.40570313 25.48296875 61.68640625 25.0234375 60.9453125 C24 59 24 59 24 57 C23.34 57 22.68 57 22 57 C20.7109375 55.3203125 20.7109375 55.3203125 19.375 53.125 C18.92898438 52.40570313 18.48296875 51.68640625 18.0234375 50.9453125 C17 49 17 49 17 47 C16.34 47 15.68 47 15 47 C13.7109375 45.3203125 13.7109375 45.3203125 12.375 43.125 C11.92898438 42.40570313 11.48296875 41.68640625 11.0234375 40.9453125 C10 39 10 39 10 37 C9.34 37 8.68 37 8 37 C7.67 35.68 7.34 34.36 7 33 C6.34 33 5.68 33 5 33 C4.566875 32.0925 4.13375 31.185 3.6875 30.25 C2.20452038 27.10290737 2.20452038 27.10290737 0.41503906 25.11987305 C-1.33761947 22.49421155 -1.36086989 20.96566089 -1.328125 17.83203125 C-1.32296875 16.85685547 -1.3178125 15.88167969 -1.3125 14.87695312 C-1.291875 13.86568359 -1.27125 12.85441406 -1.25 11.8125 C-1.24484375 10.78962891 -1.2396875 9.76675781 -1.234375 8.71289062 C-1.15412265 1.15412265 -1.15412265 1.15412265 0 0 Z " fill="#000000" transform="translate(541,401)"/>
<path d="M0 0 C3.45826342 -0.05789006 6.91640293 -0.09355821 10.375 -0.125 C11.35984375 -0.14175781 12.3446875 -0.15851563 13.359375 -0.17578125 C14.77089844 -0.18544922 14.77089844 -0.18544922 16.2109375 -0.1953125 C17.51490479 -0.21102295 17.51490479 -0.21102295 18.84521484 -0.22705078 C21 0 21 0 23 2 C23.25333309 4.03092003 23.25333309 4.03092003 23.25828552 6.57943726 C23.26852753 8.02633186 23.26852753 8.02633186 23.27897644 9.50245667 C23.27514702 11.09524696 23.27514702 11.09524696 23.27124023 12.72021484 C23.27646698 13.83574234 23.28169373 14.95126984 23.28707886 16.1006012 C23.29734129 18.52929649 23.30310315 20.95801392 23.30496025 23.38673019 C23.30860945 27.22745892 23.32529637 31.06792605 23.34571838 34.90859985 C23.39424753 44.44978495 23.42578741 53.99100312 23.44702148 63.5322876 C23.46497722 71.58746097 23.49433541 79.64236771 23.54106331 87.69743729 C23.5527368 90.24516465 23.55864386 92.79292506 23.55874443 95.34067917 C23.55893591 98.90098173 23.5771612 102.46077273 23.59936523 106.02099609 C23.59478806 107.07880783 23.59021088 108.13661957 23.585495 109.22648621 C23.59514282 110.19672226 23.60479065 111.16695831 23.61473083 112.16659546 C23.61674216 113.0083602 23.61875349 113.85012493 23.62082577 114.71739769 C24.08263329 117.49744661 25.24892856 118.8372486 27 121 C27 121.66 27 122.32 27 123 C28.65 123.33 30.3 123.66 32 124 C32 124.66 32 125.32 32 126 C47.18 126 62.36 126 78 126 C78 132.6 78 139.2 78 146 C61.5 146 45 146 28 146 C28 145.34 28 144.68 28 144 C26.72125 143.855625 25.4425 143.71125 24.125 143.5625 C21.74307106 143.29357254 20.15547309 143.07773654 18 142 C18 141.34 18 140.68 18 140 C16.68 139.67 15.36 139.34 14 139 C14 138.34 14 137.68 14 137 C12.68 136.34 11.36 135.68 10 135 C10 134.34 10 133.68 10 133 C9.01 132.67 8.02 132.34 7 132 C7 131.01 7 130.02 7 129 C6.34 129 5.68 129 5 129 C3.74335022 126.09399739 3 124.20395416 3 121 C2.34 121 1.68 121 1 121 C-0.23270227 115.25385125 -0.13346776 109.60724799 -0.11352539 103.76220703 C-0.11367142 102.63967026 -0.11381744 101.51713348 -0.1139679 100.36058044 C-0.11327265 96.65963797 -0.10549837 92.95874616 -0.09765625 89.2578125 C-0.09579069 86.68805977 -0.09436744 84.11830668 -0.09336853 81.54855347 C-0.08994381 75.48198853 -0.08206668 69.41544442 -0.07201904 63.34888732 C-0.06082505 56.4395714 -0.05533918 49.5302546 -0.05032361 42.62093186 C-0.03988315 28.41394487 -0.02230422 14.20697308 0 0 Z " fill="#1F1F1F" transform="translate(169,268)"/>
<path d="M0 0 C0.98484375 0.01804687 1.9696875 0.03609375 2.984375 0.0546875 C4.10585938 0.08949219 4.10585938 0.08949219 5.25 0.125 C5.25 0.785 5.25 1.445 5.25 2.125 C6.3225 2.186875 7.395 2.24875 8.5 2.3125 C12.25 3.125 12.25 3.125 14.6875 5.5625 C16.25 8.125 16.25 8.125 16.25 10.125 C16.91 10.125 17.57 10.125 18.25 10.125 C21.03754201 16.39696952 21.44918244 24.18232213 19.44921875 30.7578125 C18.17157789 33.27980064 16.81986714 34.95603437 14.8125 36.9375 C14.21566406 37.54207031 13.61882812 38.14664063 13.00390625 38.76953125 C11.25 40.125 11.25 40.125 8.25 40.125 C8.25 40.785 8.25 41.445 8.25 42.125 C5.18537096 43.01885014 2.43818621 43.25972008 -0.75 43.25 C-2.0184375 43.25386719 -2.0184375 43.25386719 -3.3125 43.2578125 C-5.59698944 43.13333711 -7.55991574 42.76377457 -9.75 42.125 C-9.75 41.465 -9.75 40.805 -9.75 40.125 C-11.07 39.795 -12.39 39.465 -13.75 39.125 C-13.75 38.465 -13.75 37.805 -13.75 37.125 C-14.348125 36.8775 -14.94625 36.63 -15.5625 36.375 C-18.16803836 34.88612093 -19.18400916 33.6859574 -20.75 31.125 C-22.15399262 24.00138643 -22.41871258 16.91808657 -19.75 10.125 C-16.83780234 6.58313798 -13.76909625 4.28912875 -9.75 2.125 C-9.15832031 1.77050781 -8.56664062 1.41601562 -7.95703125 1.05078125 C-5.17824693 -0.1148327 -3.00186011 -0.07147286 0 0 Z " fill="#212121" transform="translate(333.75,340.875)"/>
<path d="M0 0 C1.94770576 0.82777719 1.94770576 0.82777719 4.796875 0.65625 C4.920625 1.23375 5.044375 1.81125 5.171875 2.40625 C5.80336324 4.67960767 6.68545691 6.5816029 7.796875 8.65625 C8.456875 8.65625 9.116875 8.65625 9.796875 8.65625 C11.03765503 12.3785901 10.94242959 15.84421033 10.921875 19.71875 C10.92767578 20.81799805 10.92767578 20.81799805 10.93359375 21.93945312 C10.92355991 27.40288018 10.92355991 27.40288018 9.796875 29.65625 C9.136875 29.65625 8.476875 29.65625 7.796875 29.65625 C7.7040625 30.5225 7.7040625 30.5225 7.609375 31.40625 C5.96591944 35.9573577 0.94390982 38.51737818 -3.203125 40.65625 C-10.82584873 41.72729093 -16.98314806 41.28507005 -23.203125 36.65625 C-23.203125 35.99625 -23.203125 35.33625 -23.203125 34.65625 C-23.80125 34.45 -24.399375 34.24375 -25.015625 34.03125 C-28.12626505 32.07599054 -28.82468083 30.04183385 -30.203125 26.65625 C-30.53125 22.96484375 -30.53125 22.96484375 -30.453125 19.09375 C-30.43765625 17.81371094 -30.4221875 16.53367187 -30.40625 15.21484375 C-30.2364514 12.24010286 -29.89108746 9.54680193 -29.203125 6.65625 C-28.543125 6.65625 -27.883125 6.65625 -27.203125 6.65625 C-26.873125 5.66625 -26.543125 4.67625 -26.203125 3.65625 C-25.543125 3.65625 -24.883125 3.65625 -24.203125 3.65625 C-24.203125 2.99625 -24.203125 2.33625 -24.203125 1.65625 C-15.38156815 -1.91703885 -9.01717483 -3.89541952 0 0 Z " fill="#222222" transform="translate(465.203125,346.34375)"/>
<path d="M0 0 C17.82 0 35.64 0 54 0 C54 0.66 54 1.32 54 2 C54.639375 2.28875 55.27875 2.5775 55.9375 2.875 C58 4 58 4 59 6 C59.88696504 9.90131238 60.07308542 13.12468676 59 17 C55.41945136 20.74696094 51.53488264 23.45619464 47 26 C46.34 26 45.68 26 45 26 C45 26.66 45 27.32 45 28 C32.79 28 20.58 28 8 28 C8 27.34 8 26.68 8 26 C6.68 25.67 5.36 25.34 4 25 C4 24.34 4 23.68 4 23 C2.02 22.34 0.04 21.68 -2 21 C-2 20.34 -2 19.68 -2 19 C-2.639375 18.835 -3.27875 18.67 -3.9375 18.5 C-6 17 -6 17 -6.8125 13.3125 C-7.12808776 9.3891704 -6.72352036 5.85877525 -6 2 C-4.02 2 -2.04 2 0 2 C0 1.34 0 0.68 0 0 Z M4 11 C5.98 11.99 5.98 11.99 8 13 C8 13.66 8 14.32 8 15 C12.46790268 17.23395134 18.52556487 16.268581 23.49316406 16.29516602 C25.72784469 16.31232983 27.96102621 16.35620843 30.1953125 16.40039062 C31.62498915 16.41052243 33.05467836 16.41903701 34.484375 16.42578125 C35.78084961 16.44036377 37.07732422 16.45494629 38.41308594 16.4699707 C42.57565849 15.9245751 44.75606324 14.61011083 48 12 C48 11.67 48 11.34 48 11 C33.48 11 18.96 11 4 11 Z " fill="#000000" transform="translate(329,437)"/>
<path d="M0 0 C2.87274328 1.32359866 3.85418097 2.47866264 6 5 C7.20266683 8.96172602 7.47141915 10.96287786 5.75 14.75 C1.80786687 19.81845688 1.80786687 19.81845688 -1.0859375 20.46875 C-5.15596181 20.52431347 -7.44897157 20.33291301 -11 18.1875 C-13.85873575 13.6313899 -13.89808052 9.29054748 -14 4 C-13.34 4 -12.68 4 -12 4 C-11.67 3.01 -11.34 2.02 -11 1 C-7.5027666 -0.7486167 -3.81586672 -0.5570141 0 0 Z " fill="#F0F0F0" transform="translate(450,349)"/>
<path d="M0 0 C3.125 1.9375 3.125 1.9375 5 5 C5.77233523 9.74197224 5.69292224 12.96061664 3 17 C2.34 17 1.68 17 1 17 C1 17.66 1 18.32 1 19 C-1.52053595 20.26026798 -2.8542098 19.91874445 -5.625 19.5625 C-6.44226563 19.46066406 -7.25953125 19.35882813 -8.1015625 19.25390625 C-8.72804688 19.17011719 -9.35453125 19.08632813 -10 19 C-10 18.34 -10 17.68 -10 17 C-10.66 17 -11.32 17 -12 17 C-12 16.34 -12 15.68 -12 15 C-12.66 15 -13.32 15 -14 15 C-15.71828872 6.23842882 -15.71828872 6.23842882 -13.1875 1.875 C-8.72930008 -0.74747054 -5.04894106 -1.00151126 0 0 Z " fill="#F2F2F2" transform="translate(329,346)"/>
<path d="M0 0 C0.66 0.33 1.32 0.66 2 1 C2 3.31 2 5.62 2 8 C2.66 8 3.32 8 4 8 C3 10 3 10 -1 12 C-0.67 8.04 -0.34 4.08 0 0 Z " fill="#363636" transform="translate(313,353)"/>
<path d="M0 0 C0.99 0.33 1.98 0.66 3 1 C2.67 1.66 2.34 2.32 2 3 C1.34 2.01 0.68 1.02 0 0 Z " fill="#000000" transform="translate(262,395)"/>
<path d="M0 0 C2 1 2 1 2 1 Z " fill="#000000" transform="translate(569,469)"/>
<path d="M0 0 C2 1 2 1 2 1 Z " fill="#000000" transform="translate(590,465)"/>
<path d="" fill="#000000" transform="translate(0,0)"/>
<path d="" fill="#000000" transform="translate(0,0)"/>
<path d="" fill="#000000" transform="translate(0,0)"/>
<path d="" fill="#000000" transform="translate(0,0)"/>
<path d="" fill="#000000" transform="translate(0,0)"/>
<path d="" fill="#000000" transform="translate(0,0)"/>
<path d="" fill="#000000" transform="translate(0,0)"/>
<path d="" fill="#000000" transform="translate(0,0)"/>
<path d="" fill="#000000" transform="translate(0,0)"/>
<path d="M0 0 C2 1 2 1 2 1 Z " fill="#000000" transform="translate(323,456)"/>
<path d="" fill="#000000" transform="translate(0,0)"/>
<path d="" fill="#000000" transform="translate(0,0)"/>
<path d="" fill="#000000" transform="translate(0,0)"/>
<path d="M0 0 C2 1 2 1 2 1 Z " fill="#000000" transform="translate(580,451)"/>
<path d="" fill="#000000" transform="translate(0,0)"/>
<path d="" fill="#000000" transform="translate(0,0)"/>
<path d="" fill="#000000" transform="translate(0,0)"/>
<path d="" fill="#000000" transform="translate(0,0)"/>
<path d="" fill="#000000" transform="translate(0,0)"/>
<path d="" fill="#000000" transform="translate(0,0)"/>
<path d="" fill="#000000" transform="translate(0,0)"/>
<path d="M0 0 C2 1 2 1 2 1 Z " fill="#000000" transform="translate(477,449)"/>
<path d="" fill="#000000" transform="translate(0,0)"/>
<path d="" fill="#000000" transform="translate(0,0)"/>
<path d="" fill="#000000" transform="translate(0,0)"/>
<path d="M0 0 C2 1 2 1 2 1 Z " fill="#000000" transform="translate(153,442)"/>
<path d="M0 0 C2 1 2 1 2 1 Z " fill="#000000" transform="translate(573,441)"/>
<path d="" fill="#000000" transform="translate(0,0)"/>
<path d="" fill="#000000" transform="translate(0,0)"/>
<path d="" fill="#000000" transform="translate(0,0)"/>
<path d="" fill="#000000" transform="translate(0,0)"/>
<path d="M0 0 C2 1 2 1 2 1 Z " fill="#000000" transform="translate(385,438)"/>
<path d="" fill="#000000" transform="translate(0,0)"/>
<path d="" fill="#000000" transform="translate(0,0)"/>
<path d="" fill="#000000" transform="translate(0,0)"/>
<path d="" fill="#000000" transform="translate(0,0)"/>
<path d="" fill="#000000" transform="translate(0,0)"/>
<path d="" fill="#000000" transform="translate(0,0)"/>
<path d="" fill="#000000" transform="translate(0,0)"/>
<path d="" fill="#000000" transform="translate(0,0)"/>
<path d="" fill="#000000" transform="translate(0,0)"/>
<path d="" fill="#000000" transform="translate(0,0)"/>
<path d="M0 0 C2 1 2 1 2 1 Z " fill="#000000" transform="translate(160,432)"/>
<path d="" fill="#000000" transform="translate(0,0)"/>
<path d="" fill="#000000" transform="translate(0,0)"/>
<path d="" fill="#000000" transform="translate(0,0)"/>
<path d="M0 0 C2 1 2 1 2 1 Z " fill="#000000" transform="translate(163,428)"/>
<path d="M0 0 C2 1 2 1 2 1 Z " fill="#000000" transform="translate(139,428)"/>
<path d="" fill="#000000" transform="translate(0,0)"/>
<path d="M0 0 C2 1 2 1 2 1 Z " fill="#000000" transform="translate(142,424)"/>
<path d="" fill="#000000" transform="translate(0,0)"/>
<path d="" fill="#000000" transform="translate(0,0)"/>
<path d="" fill="#000000" transform="translate(0,0)"/>
<path d="" fill="#000000" transform="translate(0,0)"/>
<path d="" fill="#000000" transform="translate(0,0)"/>
<path d="M0 0 C2 1 2 1 2 1 Z " fill="#000000" transform="translate(149,414)"/>
<path d="" fill="#000000" transform="translate(0,0)"/>
<path d="" fill="#000000" transform="translate(0,0)"/>
<path d="" fill="#000000" transform="translate(0,0)"/>
<path d="" fill="#000000" transform="translate(0,0)"/>
<path d="" fill="#000000" transform="translate(0,0)"/>
<path d="" fill="#000000" transform="translate(0,0)"/>
<path d="M0 0 C2 1 2 1 2 1 Z " fill="#000000" transform="translate(156,404)"/>
<path d="" fill="#000000" transform="translate(0,0)"/>
<path d="" fill="#000000" transform="translate(0,0)"/>
<path d="" fill="#000000" transform="translate(0,0)"/>
<path d="M0 0 C2 1 2 1 2 1 Z " fill="#000000" transform="translate(265,398)"/>
<path d="M0 0 C2 1 2 1 2 1 Z " fill="#000000" transform="translate(173,398)"/>
<path d="" fill="#000000" transform="translate(0,0)"/>
<path d="" fill="#000000" transform="translate(0,0)"/>
<path d="M0 0 C2 1 2 1 2 1 Z " fill="#000000" transform="translate(412,394)"/>
<path d="M0 0 C2 1 2 1 2 1 Z " fill="#000000" transform="translate(375,394)"/>
<path d="" fill="#000000" transform="translate(0,0)"/>
<path d="" fill="#000000" transform="translate(0,0)"/>
<path d="" fill="#000000" transform="translate(0,0)"/>
<path d="" fill="#000000" transform="translate(0,0)"/>
<path d="" fill="#000000" transform="translate(0,0)"/>
<path d="" fill="#000000" transform="translate(0,0)"/>
<path d="" fill="#000000" transform="translate(0,0)"/>
<path d="" fill="#000000" transform="translate(0,0)"/>
<path d="" fill="#000000" transform="translate(0,0)"/>
<path d="M0 0 C2 1 2 1 2 1 Z " fill="#000000" transform="translate(194,386)"/>
<path d="" fill="#000000" transform="translate(0,0)"/>
<path d="" fill="#000000" transform="translate(0,0)"/>
<path d="" fill="#000000" transform="translate(0,0)"/>
<path d="" fill="#000000" transform="translate(0,0)"/>
<path d="" fill="#000000" transform="translate(0,0)"/>
<path d="" fill="#000000" transform="translate(0,0)"/>
<path d="M0 0 C2 1 2 1 2 1 Z " fill="#000000" transform="translate(354,380)"/>
<path d="" fill="#000000" transform="translate(0,0)"/>
<path d="" fill="#000000" transform="translate(0,0)"/>
<path d="" fill="#000000" transform="translate(0,0)"/>
<path d="M0 0 C2 1 2 1 2 1 Z " fill="#000000" transform="translate(474,377)"/>
<path d="" fill="#000000" transform="translate(0,0)"/>
<path d="" fill="#000000" transform="translate(0,0)"/>
<path d="" fill="#000000" transform="translate(0,0)"/>
<path d="" fill="#000000" transform="translate(0,0)"/>
<path d="" fill="#000000" transform="translate(0,0)"/>
<path d="" fill="#000000" transform="translate(0,0)"/>
<path d="" fill="#000000" transform="translate(0,0)"/>
<path d="" fill="#000000" transform="translate(0,0)"/>
<path d="" fill="#000000" transform="translate(0,0)"/>
<path d="" fill="#000000" transform="translate(0,0)"/>
<path d="" fill="#000000" transform="translate(0,0)"/>
<path d="M0 0 C2 1 2 1 2 1 Z " fill="#000000" transform="translate(351,349)"/>
<path d="" fill="#000000" transform="translate(0,0)"/>
<path d="" fill="#000000" transform="translate(0,0)"/>
<path d="" fill="#000000" transform="translate(0,0)"/>
<path d="" fill="#000000" transform="translate(0,0)"/>
<path d="" fill="#000000" transform="translate(0,0)"/>
<path d="" fill="#000000" transform="translate(0,0)"/>
<path d="" fill="#000000" transform="translate(0,0)"/>
<path d="" fill="#000000" transform="translate(0,0)"/>
<path d="" fill="#000000" transform="translate(0,0)"/>
<path d="" fill="#000000" transform="translate(0,0)"/>
<path d="" fill="#000000" transform="translate(0,0)"/>
<path d="" fill="#000000" transform="translate(0,0)"/>
<path d="" fill="#000000" transform="translate(0,0)"/>
<path d="" fill="#000000" transform="translate(0,0)"/>
<path d="M0 0 C2 1 2 1 2 1 Z " fill="#000000" transform="translate(433,299)"/>
<path d="" fill="#000000" transform="translate(0,0)"/>
<path d="" fill="#000000" transform="translate(0,0)"/>
<path d="" fill="#000000" transform="translate(0,0)"/>
<path d="" fill="#000000" transform="translate(0,0)"/>
<path d="" fill="#000000" transform="translate(0,0)"/>
<path d="" fill="#000000" transform="translate(0,0)"/>
<path d="" fill="#000000" transform="translate(0,0)"/>
<path d="" fill="#000000" transform="translate(0,0)"/>
<path d="M0 0 C2 1 2 1 2 1 Z " fill="#000000" transform="translate(258,291)"/>
<path d="" fill="#000000" transform="translate(0,0)"/>
<path d="" fill="#000000" transform="translate(0,0)"/>
<path d="" fill="#000000" transform="translate(0,0)"/>
<path d="" fill="#000000" transform="translate(0,0)"/>
<path d="M0 0 C2 1 2 1 2 1 Z " fill="#000000" transform="translate(522,287)"/>
<path d="" fill="#000000" transform="translate(0,0)"/>
<path d="" fill="#000000" transform="translate(0,0)"/>
<path d="" fill="#000000" transform="translate(0,0)"/>
<path d="" fill="#000000" transform="translate(0,0)"/>
<path d="" fill="#000000" transform="translate(0,0)"/>
<path d="" fill="#000000" transform="translate(0,0)"/>
<path d="M0 0 C2 1 2 1 2 1 Z " fill="#000000" transform="translate(358,274)"/>
<path d="" fill="#000000" transform="translate(0,0)"/>
<path d="" fill="#000000" transform="translate(0,0)"/>
<path d="" fill="#000000" transform="translate(0,0)"/>
<path d="" fill="#000000" transform="translate(0,0)"/>
<path d="" fill="#000000" transform="translate(0,0)"/>
<path d="" fill="#000000" transform="translate(0,0)"/>
<path d="" fill="#000000" transform="translate(0,0)"/>
<path d="" fill="#000000" transform="translate(0,0)"/>
<path d="" fill="#000000" transform="translate(0,0)"/>
<path d="" fill="#000000" transform="translate(0,0)"/>
<path d="" fill="#000000" transform="translate(0,0)"/>
<path d="" fill="#000000" transform="translate(0,0)"/>
<path d="" fill="#000000" transform="translate(0,0)"/>
<path d="" fill="#000000" transform="translate(0,0)"/>
<path d="" fill="#000000" transform="translate(0,0)"/>
<path d="" fill="#000000" transform="translate(0,0)"/>
<path d="" fill="#000000" transform="translate(0,0)"/>
<path d="" fill="#000000" transform="translate(0,0)"/>
<path d="" fill="#000000" transform="translate(0,0)"/>
<path d="" fill="#000000" transform="translate(0,0)"/>
<path d="" fill="#000000" transform="translate(0,0)"/>
<path d="" fill="#000000" transform="translate(0,0)"/>
<path d="" fill="#000000" transform="translate(0,0)"/>
<path d="" fill="#000000" transform="translate(0,0)"/>
<path d="" fill="#000000" transform="translate(0,0)"/>
<path d="" fill="#000000" transform="translate(0,0)"/>
<path d="" fill="#000000" transform="translate(0,0)"/>
<path d="" fill="#000000" transform="translate(0,0)"/>
<path d="" fill="#000000" transform="translate(0,0)"/>
<path d="" fill="#000000" transform="translate(0,0)"/>
<path d="" fill="#000000" transform="translate(0,0)"/>
<path d="" fill="#000000" transform="translate(0,0)"/>
<path d="" fill="#000000" transform="translate(0,0)"/>
<path d="" fill="#000000" transform="translate(0,0)"/>
<path d="" fill="#000000" transform="translate(0,0)"/>
<path d="" fill="#000000" transform="translate(0,0)"/>
<path d="" fill="#000000" transform="translate(0,0)"/>
<path d="" fill="#000000" transform="translate(0,0)"/>
<path d="" fill="#000000" transform="translate(0,0)"/>
<path d="" fill="#000000" transform="translate(0,0)"/>
<path d="" fill="#000000" transform="translate(0,0)"/>
<path d="" fill="#000000" transform="translate(0,0)"/>
<path d="" fill="#000000" transform="translate(0,0)"/>
<path d="" fill="#000000" transform="translate(0,0)"/>
<path d="" fill="#000000" transform="translate(0,0)"/>
<path d="" fill="#000000" transform="translate(0,0)"/>
<path d="" fill="#000000" transform="translate(0,0)"/>
<path d="" fill="#000000" transform="translate(0,0)"/>
<path d="" fill="#000000" transform="translate(0,0)"/>
<path d="" fill="#000000" transform="translate(0,0)"/>
<path d="" fill="#000000" transform="translate(0,0)"/>
<path d="" fill="#000000" transform="translate(0,0)"/>
<path d="" fill="#000000" transform="translate(0,0)"/>
<path d="" fill="#000000" transform="translate(0,0)"/>
<path d="" fill="#000000" transform="translate(0,0)"/>
<path d="" fill="#000000" transform="translate(0,0)"/>
<path d="" fill="#000000" transform="translate(0,0)"/>
<path d="" fill="#000000" transform="translate(0,0)"/>
<path d="" fill="#000000" transform="translate(0,0)"/>
<path d="" fill="#000000" transform="translate(0,0)"/>
<path d="" fill="#000000" transform="translate(0,0)"/>
<path d="" fill="#000000" transform="translate(0,0)"/>
<path d="" fill="#000000" transform="translate(0,0)"/>
<path d="" fill="#000000" transform="translate(0,0)"/>
<path d="" fill="#000000" transform="translate(0,0)"/>
<path d="" fill="#000000" transform="translate(0,0)"/>
<path d="" fill="#000000" transform="translate(0,0)"/>
<path d="" fill="#000000" transform="translate(0,0)"/>
<path d="" fill="#000000" transform="translate(0,0)"/>
<path d="" fill="#000000" transform="translate(0,0)"/>
<path d="" fill="#000000" transform="translate(0,0)"/>
<path d="" fill="#000000" transform="translate(0,0)"/>
<path d="" fill="#000000" transform="translate(0,0)"/>
<path d="" fill="#000000" transform="translate(0,0)"/>
<path d="" fill="#000000" transform="translate(0,0)"/>
<path d="" fill="#000000" transform="translate(0,0)"/>
<path d="" fill="#000000" transform="translate(0,0)"/>
<path d="" fill="#000000" transform="translate(0,0)"/>
<path d="" fill="#000000" transform="translate(0,0)"/>
<path d="" fill="#000000" transform="translate(0,0)"/>
<path d="" fill="#000000" transform="translate(0,0)"/>
<path d="" fill="#000000" transform="translate(0,0)"/>
<path d="" fill="#000000" transform="translate(0,0)"/>
<path d="" fill="#000000" transform="translate(0,0)"/>
<path d="" fill="#000000" transform="translate(0,0)"/>
<path d="" fill="#000000" transform="translate(0,0)"/>
<path d="" fill="#000000" transform="translate(0,0)"/>
<path d="" fill="#000000" transform="translate(0,0)"/>
<path d="" fill="#000000" transform="translate(0,0)"/>
<path d="" fill="#000000" transform="translate(0,0)"/>
<path d="" fill="#000000" transform="translate(0,0)"/>
<path d="" fill="#000000" transform="translate(0,0)"/>
<path d="" fill="#000000" transform="translate(0,0)"/>
<path d="" fill="#000000" transform="translate(0,0)"/>
<path d="" fill="#000000" transform="translate(0,0)"/>
<path d="" fill="#000000" transform="translate(0,0)"/>
<path d="" fill="#000000" transform="translate(0,0)"/>
<path d="" fill="#000000" transform="translate(0,0)"/>
<path d="" fill="#000000" transform="translate(0,0)"/>
<path d="" fill="#000000" transform="translate(0,0)"/>
<path d="" fill="#000000" transform="translate(0,0)"/>
<path d="" fill="#000000" transform="translate(0,0)"/>
<path d="" fill="#000000" transform="translate(0,0)"/>
<path d="" fill="#000000" transform="translate(0,0)"/>
<path d="" fill="#000000" transform="translate(0,0)"/>
<path d="" fill="#000000" transform="translate(0,0)"/>
<path d="" fill="#000000" transform="translate(0,0)"/>
<path d="" fill="#000000" transform="translate(0,0)"/>
<path d="" fill="#000000" transform="translate(0,0)"/>
<path d="" fill="#000000" transform="translate(0,0)"/>
<path d="" fill="#000000" transform="translate(0,0)"/>
<path d="" fill="#000000" transform="translate(0,0)"/>
<path d="" fill="#000000" transform="translate(0,0)"/>
<path d="" fill="#000000" transform="translate(0,0)"/>
<path d="" fill="#000000" transform="translate(0,0)"/>
<path d="" fill="#000000" transform="translate(0,0)"/>
<path d="" fill="#000000" transform="translate(0,0)"/>
<path d="" fill="#000000" transform="translate(0,0)"/>
<path d="" fill="#000000" transform="translate(0,0)"/>
<path d="" fill="#000000" transform="translate(0,0)"/>
<path d="" fill="#000000" transform="translate(0,0)"/>
<path d="" fill="#000000" transform="translate(0,0)"/>
<path d="" fill="#000000" transform="translate(0,0)"/>
<path d="" fill="#000000" transform="translate(0,0)"/>
<path d="" fill="#000000" transform="translate(0,0)"/>
<path d="" fill="#000000" transform="translate(0,0)"/>
<path d="" fill="#000000" transform="translate(0,0)"/>
<path d="" fill="#000000" transform="translate(0,0)"/>
<path d="" fill="#000000" transform="translate(0,0)"/>
<path d="" fill="#000000" transform="translate(0,0)"/>
<path d="" fill="#000000" transform="translate(0,0)"/>
<path d="" fill="#000000" transform="translate(0,0)"/>
<path d="" fill="#000000" transform="translate(0,0)"/>
<path d="" fill="#000000" transform="translate(0,0)"/>
<path d="" fill="#000000" transform="translate(0,0)"/>
<path d="" fill="#000000" transform="translate(0,0)"/>
<path d="" fill="#000000" transform="translate(0,0)"/>
<path d="" fill="#000000" transform="translate(0,0)"/>
<path d="" fill="#000000" transform="translate(0,0)"/>
<path d="" fill="#000000" transform="translate(0,0)"/>
<path d="" fill="#000000" transform="translate(0,0)"/>
<path d="" fill="#000000" transform="translate(0,0)"/>
<path d="" fill="#000000" transform="translate(0,0)"/>
<path d="" fill="#000000" transform="translate(0,0)"/>
<path d="" fill="#000000" transform="translate(0,0)"/>
<path d="" fill="#000000" transform="translate(0,0)"/>
<path d="" fill="#000000" transform="translate(0,0)"/>
<path d="" fill="#000000" transform="translate(0,0)"/>
<path d="" fill="#000000" transform="translate(0,0)"/>
<path d="" fill="#000000" transform="translate(0,0)"/>
<path d="" fill="#000000" transform="translate(0,0)"/>
<path d="" fill="#000000" transform="translate(0,0)"/>
<path d="" fill="#000000" transform="translate(0,0)"/>
<path d="" fill="#000000" transform="translate(0,0)"/>
<path d="" fill="#000000" transform="translate(0,0)"/>
<path d="" fill="#000000" transform="translate(0,0)"/>
<path d="" fill="#000000" transform="translate(0,0)"/>
<path d="" fill="#000000" transform="translate(0,0)"/>
<path d="" fill="#000000" transform="translate(0,0)"/>
<path d="" fill="#000000" transform="translate(0,0)"/>
<path d="" fill="#000000" transform="translate(0,0)"/>
<path d="" fill="#000000" transform="translate(0,0)"/>
<path d="" fill="#000000" transform="translate(0,0)"/>
<path d="" fill="#000000" transform="translate(0,0)"/>
<path d="" fill="#000000" transform="translate(0,0)"/>
<path d="" fill="#000000" transform="translate(0,0)"/>
<path d="" fill="#000000" transform="translate(0,0)"/>
<path d="" fill="#000000" transform="translate(0,0)"/>
<path d="" fill="#000000" transform="translate(0,0)"/>
<path d="" fill="#000000" transform="translate(0,0)"/>
<path d="" fill="#000000" transform="translate(0,0)"/>
<path d="" fill="#000000" transform="translate(0,0)"/>
<path d="" fill="#000000" transform="translate(0,0)"/>
<path d="" fill="#000000" transform="translate(0,0)"/>
<path d="" fill="#000000" transform="translate(0,0)"/>
<path d="" fill="#000000" transform="translate(0,0)"/>
<path d="" fill="#000000" transform="translate(0,0)"/>
<path d="" fill="#000000" transform="translate(0,0)"/>
<path d="" fill="#000000" transform="translate(0,0)"/>
<path d="" fill="#000000" transform="translate(0,0)"/>
<path d="" fill="#000000" transform="translate(0,0)"/>
<path d="" fill="#000000" transform="translate(0,0)"/>
<path d="" fill="#000000" transform="translate(0,0)"/>
<path d="" fill="#000000" transform="translate(0,0)"/>
<path d="" fill="#000000" transform="translate(0,0)"/>
<path d="" fill="#000000" transform="translate(0,0)"/>
<path d="" fill="#000000" transform="translate(0,0)"/>
<path d="" fill="#000000" transform="translate(0,0)"/>
<path d="" fill="#000000" transform="translate(0,0)"/>
<path d="" fill="#000000" transform="translate(0,0)"/>
<path d="" fill="#000000" transform="translate(0,0)"/>
<path d="" fill="#000000" transform="translate(0,0)"/>
<path d="" fill="#000000" transform="translate(0,0)"/>
<path d="" fill="#000000" transform="translate(0,0)"/>
<path d="" fill="#000000" transform="translate(0,0)"/>
<path d="" fill="#000000" transform="translate(0,0)"/>
<path d="" fill="#000000" transform="translate(0,0)"/>
<path d="" fill="#000000" transform="translate(0,0)"/>
<path d="" fill="#000000" transform="translate(0,0)"/>
<path d="" fill="#000000" transform="translate(0,0)"/>
<path d="" fill="#000000" transform="translate(0,0)"/>
<path d="" fill="#000000" transform="translate(0,0)"/>
<path d="" fill="#000000" transform="translate(0,0)"/>
<path d="" fill="#000000" transform="translate(0,0)"/>
<path d="" fill="#000000" transform="translate(0,0)"/>
<path d="" fill="#000000" transform="translate(0,0)"/>
<path d="" fill="#000000" transform="translate(0,0)"/>
<path d="" fill="#000000" transform="translate(0,0)"/>
<path d="" fill="#000000" transform="translate(0,0)"/>
<path d="" fill="#000000" transform="translate(0,0)"/>
<path d="" fill="#000000" transform="translate(0,0)"/>
<path d="" fill="#000000" transform="translate(0,0)"/>
<path d="" fill="#000000" transform="translate(0,0)"/>
<path d="" fill="#000000" transform="translate(0,0)"/>
<path d="" fill="#000000" transform="translate(0,0)"/>
<path d="" fill="#000000" transform="translate(0,0)"/>
<path d="" fill="#000000" transform="translate(0,0)"/>
<path d="" fill="#000000" transform="translate(0,0)"/>
<path d="" fill="#000000" transform="translate(0,0)"/>
<path d="" fill="#000000" transform="translate(0,0)"/>
<path d="" fill="#000000" transform="translate(0,0)"/>
<path d="" fill="#000000" transform="translate(0,0)"/>
<path d="" fill="#000000" transform="translate(0,0)"/>
<path d="" fill="#000000" transform="translate(0,0)"/>
<path d="" fill="#000000" transform="translate(0,0)"/>
<path d="" fill="#000000" transform="translate(0,0)"/>
<path d="" fill="#000000" transform="translate(0,0)"/>
<path d="" fill="#000000" transform="translate(0,0)"/>
<path d="" fill="#000000" transform="translate(0,0)"/>
<path d="" fill="#000000" transform="translate(0,0)"/>
<path d="" fill="#000000" transform="translate(0,0)"/>
<path d="" fill="#000000" transform="translate(0,0)"/>
<path d="" fill="#000000" transform="translate(0,0)"/>
<path d="" fill="#000000" transform="translate(0,0)"/>
<path d="" fill="#000000" transform="translate(0,0)"/>
<path d="" fill="#000000" transform="translate(0,0)"/>
<path d="" fill="#000000" transform="translate(0,0)"/>
<path d="" fill="#000000" transform="translate(0,0)"/>
<path d="" fill="#000000" transform="translate(0,0)"/>
<path d="" fill="#000000" transform="translate(0,0)"/>
<path d="" fill="#000000" transform="translate(0,0)"/>
<path d="" fill="#000000" transform="translate(0,0)"/>
<path d="" fill="#000000" transform="translate(0,0)"/>
<path d="" fill="#000000" transform="translate(0,0)"/>
<path d="" fill="#000000" transform="translate(0,0)"/>
<path d="" fill="#000000" transform="translate(0,0)"/>
<path d="" fill="#000000" transform="translate(0,0)"/>
<path d="" fill="#000000" transform="translate(0,0)"/>
<path d="" fill="#000000" transform="translate(0,0)"/>
<path d="" fill="#000000" transform="translate(0,0)"/>
<path d="" fill="#000000" transform="translate(0,0)"/>
<path d="" fill="#000000" transform="translate(0,0)"/>
<path d="" fill="#000000" transform="translate(0,0)"/>
<path d="" fill="#000000" transform="translate(0,0)"/>
<path d="" fill="#000000" transform="translate(0,0)"/>
<path d="" fill="#000000" transform="translate(0,0)"/>
<path d="" fill="#000000" transform="translate(0,0)"/>
<path d="" fill="#000000" transform="translate(0,0)"/>
<path d="" fill="#000000" transform="translate(0,0)"/>
<path d="" fill="#000000" transform="translate(0,0)"/>
<path d="" fill="#000000" transform="translate(0,0)"/>
<path d="" fill="#000000" transform="translate(0,0)"/>
<path d="" fill="#000000" transform="translate(0,0)"/>
<path d="" fill="#000000" transform="translate(0,0)"/>
<path d="" fill="#000000" transform="translate(0,0)"/>
<path d="" fill="#000000" transform="translate(0,0)"/>
<path d="" fill="#000000" transform="translate(0,0)"/>
<path d="" fill="#000000" transform="translate(0,0)"/>
<path d="" fill="#000000" transform="translate(0,0)"/>
<path d="" fill="#000000" transform="translate(0,0)"/>
<path d="" fill="#000000" transform="translate(0,0)"/>
<path d="" fill="#000000" transform="translate(0,0)"/>
<path d="" fill="#000000" transform="translate(0,0)"/>
<path d="" fill="#000000" transform="translate(0,0)"/>
<path d="" fill="#000000" transform="translate(0,0)"/>
<path d="" fill="#000000" transform="translate(0,0)"/>
<path d="" fill="#000000" transform="translate(0,0)"/>
<path d="" fill="#000000" transform="translate(0,0)"/>
<path d="" fill="#000000" transform="translate(0,0)"/>
<path d="" fill="#000000" transform="translate(0,0)"/>
<path d="" fill="#000000" transform="translate(0,0)"/>
<path d="" fill="#000000" transform="translate(0,0)"/>
<path d="" fill="#000000" transform="translate(0,0)"/>
<path d="" fill="#000000" transform="translate(0,0)"/>
<path d="" fill="#000000" transform="translate(0,0)"/>
<path d="" fill="#000000" transform="translate(0,0)"/>
<path d="" fill="#000000" transform="translate(0,0)"/>
<path d="" fill="#000000" transform="translate(0,0)"/>
<path d="" fill="#000000" transform="translate(0,0)"/>
<path d="" fill="#000000" transform="translate(0,0)"/>
<path d="" fill="#000000" transform="translate(0,0)"/>
<path d="" fill="#000000" transform="translate(0,0)"/>
<path d="" fill="#000000" transform="translate(0,0)"/>
<path d="" fill="#000000" transform="translate(0,0)"/>
<path d="" fill="#000000" transform="translate(0,0)"/>
<path d="" fill="#000000" transform="translate(0,0)"/>
<path d="" fill="#000000" transform="translate(0,0)"/>
<path d="" fill="#000000" transform="translate(0,0)"/>
<path d="" fill="#000000" transform="translate(0,0)"/>
<path d="" fill="#000000" transform="translate(0,0)"/>
<path d="" fill="#000000" transform="translate(0,0)"/>
<path d="" fill="#000000" transform="translate(0,0)"/>
<path d="" fill="#000000" transform="translate(0,0)"/>
<path d="" fill="#000000" transform="translate(0,0)"/>
<path d="" fill="#000000" transform="translate(0,0)"/>
<path d="" fill="#000000" transform="translate(0,0)"/>
<path d="" fill="#000000" transform="translate(0,0)"/>
<path d="" fill="#000000" transform="translate(0,0)"/>
<path d="" fill="#000000" transform="translate(0,0)"/>
<path d="" fill="#000000" transform="translate(0,0)"/>
<path d="" fill="#000000" transform="translate(0,0)"/>
<path d="" fill="#000000" transform="translate(0,0)"/>
<path d="" fill="#000000" transform="translate(0,0)"/>
<path d="" fill="#000000" transform="translate(0,0)"/>
<path d="" fill="#000000" transform="translate(0,0)"/>
<path d="" fill="#000000" transform="translate(0,0)"/>
<path d="" fill="#000000" transform="translate(0,0)"/>
<path d="" fill="#000000" transform="translate(0,0)"/>
<path d="" fill="#000000" transform="translate(0,0)"/>
<path d="" fill="#000000" transform="translate(0,0)"/>
<path d="" fill="#000000" transform="translate(0,0)"/>
<path d="" fill="#000000" transform="translate(0,0)"/>
<path d="" fill="#000000" transform="translate(0,0)"/>
<path d="" fill="#000000" transform="translate(0,0)"/>
<path d="" fill="#000000" transform="translate(0,0)"/>
<path d="" fill="#000000" transform="translate(0,0)"/>
<path d="" fill="#000000" transform="translate(0,0)"/>
<path d="" fill="#000000" transform="translate(0,0)"/>
<path d="" fill="#000000" transform="translate(0,0)"/>
<path d="" fill="#000000" transform="translate(0,0)"/>
<path d="" fill="#000000" transform="translate(0,0)"/>
<path d="" fill="#000000" transform="translate(0,0)"/>
<path d="" fill="#000000" transform="translate(0,0)"/>
<path d="" fill="#000000" transform="translate(0,0)"/>
<path d="" fill="#000000" transform="translate(0,0)"/>
<path d="" fill="#000000" transform="translate(0,0)"/>
<path d="" fill="#000000" transform="translate(0,0)"/>
<path d="" fill="#000000" transform="translate(0,0)"/>
<path d="" fill="#000000" transform="translate(0,0)"/>
<path d="" fill="#000000" transform="translate(0,0)"/>
<path d="" fill="#000000" transform="translate(0,0)"/>
<path d="" fill="#000000" transform="translate(0,0)"/>
<path d="" fill="#000000" transform="translate(0,0)"/>
<path d="" fill="#000000" transform="translate(0,0)"/>
<path d="" fill="#000000" transform="translate(0,0)"/>
<path d="" fill="#000000" transform="translate(0,0)"/>
<path d="" fill="#000000" transform="translate(0,0)"/>
<path d="" fill="#000000" transform="translate(0,0)"/>
<path d="" fill="#000000" transform="translate(0,0)"/>
<path d="" fill="#000000" transform="translate(0,0)"/>
<path d="" fill="#000000" transform="translate(0,0)"/>
<path d="" fill="#000000" transform="translate(0,0)"/>
<path d="" fill="#000000" transform="translate(0,0)"/>
<path d="" fill="#000000" transform="translate(0,0)"/>
<path d="" fill="#000000" transform="translate(0,0)"/>
<path d="" fill="#000000" transform="translate(0,0)"/>
<path d="" fill="#000000" transform="translate(0,0)"/>
<path d="" fill="#000000" transform="translate(0,0)"/>
<path d="" fill="#000000" transform="translate(0,0)"/>
<path d="" fill="#000000" transform="translate(0,0)"/>
<path d="" fill="#000000" transform="translate(0,0)"/>
<path d="" fill="#000000" transform="translate(0,0)"/>
<path d="" fill="#000000" transform="translate(0,0)"/>
<path d="" fill="#000000" transform="translate(0,0)"/>
<path d="" fill="#000000" transform="translate(0,0)"/>
<path d="" fill="#000000" transform="translate(0,0)"/>
<path d="" fill="#000000" transform="translate(0,0)"/>
<path d="" fill="#000000" transform="translate(0,0)"/>
<path d="" fill="#000000" transform="translate(0,0)"/>
<path d="" fill="#000000" transform="translate(0,0)"/>
<path d="" fill="#000000" transform="translate(0,0)"/>
<path d="" fill="#000000" transform="translate(0,0)"/>
<path d="" fill="#000000" transform="translate(0,0)"/>
<path d="" fill="#000000" transform="translate(0,0)"/>
<path d="" fill="#000000" transform="translate(0,0)"/>
<path d="" fill="#000000" transform="translate(0,0)"/>
<path d="" fill="#000000" transform="translate(0,0)"/>
</svg>
