<?xml version="1.0" encoding="UTF-8"?>
<svg version="1.1" xmlns="http://www.w3.org/2000/svg" width="512" height="512">
<path d="M0 0 C5.98907261 4.73536007 11.72743676 9.76945963 17.46484375 14.8046875 C21.34294265 18.19993807 25.32437436 21.45748099 29.328125 24.703125 C35.19950436 29.50088071 40.95127302 34.44319805 46.72851562 39.35351562 C52.28318034 44.0726961 57.84309925 48.77825049 63.5 53.375 C68.36299424 57.33193418 73.11950203 61.40185942 77.86865234 65.49365234 C82.28558718 69.29151501 86.77203997 72.99430041 91.29296875 76.66796875 C97.17049411 81.48438939 102.93861914 86.432443 108.72851562 91.35351562 C114.28318034 96.0726961 119.84309925 100.77825049 125.5 105.375 C130.36299424 109.33193418 135.11950203 113.40185942 139.86865234 117.49365234 C144.28558718 121.29151501 148.77203997 124.99430041 153.29296875 128.66796875 C159.17049411 133.48438939 164.93861914 138.432443 170.72851562 143.35351562 C176.30535638 148.09153662 181.88832784 152.81592789 187.5625 157.4375 C188.44292969 158.159375 189.32335937 158.88125 190.23046875 159.625 C191.71741937 160.83917209 193.20566568 162.05186236 194.70556641 163.25 C203.43161558 170.22489483 211.04050933 176.76285004 214.0625 187.9375 C215.14115743 200.51765579 214.32723837 211.14032003 206.0625 221.25 C199.50793907 228.06500706 190.92463224 232.64670519 181.38354492 233.05102539 C180.44615479 233.04578857 179.50876465 233.04055176 178.54296875 233.03515625 C177.52138672 233.03193359 176.49980469 233.02871094 175.44726562 233.02539062 C174.39216797 233.01701172 173.33707031 233.00863281 172.25 233 C171.17556641 232.99548828 170.10113281 232.99097656 168.99414062 232.98632812 C166.35020317 232.97457729 163.70638048 232.95814787 161.0625 232.9375 C161.06618717 233.90749121 161.06987434 234.87748241 161.07367325 235.87686729 C161.16253799 259.497258 161.22823459 283.11762698 161.26974869 306.73814964 C161.29035908 318.16094282 161.31845066 329.58362544 161.36425781 341.00634766 C161.40417209 350.96435039 161.42994388 360.92227306 161.43885398 370.88035357 C161.44406092 376.15132794 161.45626757 381.42207325 161.48542023 386.69297409 C161.51266176 391.65878397 161.52092733 396.62427142 161.51493073 401.59014893 C161.51602706 403.40815612 161.52392868 405.22617461 161.5393219 407.04411697 C161.64533029 420.21480611 160.42597314 430.92827009 151.0625 440.9375 C143.93518578 447.33901848 136.13616429 451.06925998 126.4370575 451.05775452 C125.53828384 451.05912918 124.63951019 451.06050385 123.71350098 451.06192017 C122.74029907 451.05832489 121.76709717 451.05472961 120.7644043 451.05102539 C119.21249138 451.05124443 119.21249138 451.05124443 117.62922668 451.0514679 C114.21503593 451.05077214 110.80089996 451.04299544 107.38671875 451.03515625 C105.01731903 451.03329088 102.64791892 451.03186754 100.27851868 451.03086853 C94.04620293 451.02705276 87.81391053 451.01723047 81.581604 451.00616455 C75.22042151 450.99593024 68.85923523 450.99136658 62.49804688 450.98632812 C50.019521 450.97560739 37.54101244 450.95854222 25.0625 450.9375 C25.06103344 450.29772469 25.05956688 449.65794937 25.05805588 448.99878693 C25.02084896 433.36246602 24.96165244 417.72640146 24.87859726 402.09026337 C24.8389497 394.52843414 24.80648527 386.96670682 24.79150391 379.40478516 C24.77841268 372.8064396 24.75126035 366.20831964 24.70788693 359.61010122 C24.68543806 356.12302257 24.66957919 352.63622041 24.67061615 349.14906311 C24.67013899 324.84113664 22.76346971 303.37252838 5.34155273 284.94799805 C0.75181699 280.36770782 -4.23494076 276.97181469 -9.9375 273.9375 C-10.81019531 273.46699219 -11.68289063 272.99648438 -12.58203125 272.51171875 C-28.27871351 264.72083253 -46.28989682 263.59602305 -62.9375 268.9375 C-80.80410292 276.11685285 -95.05694652 287.54889859 -102.99609375 305.48390198 C-108.746384 320.47095011 -108.54972013 335.34793461 -108.54500484 351.20479774 C-108.54817219 354.72153332 -108.57386814 358.23810992 -108.59698486 361.75476074 C-108.63725996 368.38763668 -108.65781777 375.02041504 -108.67095876 381.65339422 C-108.68692644 389.21598127 -108.72538202 396.7784045 -108.76555204 404.34089565 C-108.84756014 419.87304815 -108.90189515 435.4051675 -108.9375 450.9375 C-122.69853131 451.03037571 -136.45948746 451.10135434 -150.22076893 451.14474869 C-156.61140363 451.16558082 -163.00182312 451.19381891 -169.39233398 451.23925781 C-175.5650359 451.28287097 -181.73753143 451.30666998 -187.9103756 451.31700897 C-190.2597853 451.32437256 -192.60918431 451.33875168 -194.95850563 451.36042023 C-198.26139951 451.38965918 -201.56345163 451.39344737 -204.86645508 451.39160156 C-205.82743607 451.40598267 -206.78841705 451.42036377 -207.77851868 451.43518066 C-219.33757512 451.36575003 -228.24577436 447.11686614 -236.62109375 439.3828125 C-246.06956569 429.53378189 -245.49949604 416.96270402 -245.39160156 404.24731445 C-245.39047158 402.3737948 -245.39110988 400.50027339 -245.39337158 398.62675476 C-245.39451379 393.56955875 -245.37108467 388.5127464 -245.34307575 383.45563912 C-245.31797951 378.15991454 -245.31571363 372.86418003 -245.31097412 367.56840515 C-245.29856845 357.5530516 -245.26577951 347.53787383 -245.22557616 337.52259749 C-245.18078336 326.11508731 -245.15885255 314.70756851 -245.13879442 303.2999922 C-245.0970447 279.84573089 -245.02673963 256.39162532 -244.9375 232.9375 C-245.90405518 232.96106567 -245.90405518 232.96106567 -246.89013672 232.98510742 C-249.86416529 233.04820901 -252.83805229 233.08672586 -255.8125 233.125 C-256.82570313 233.15013672 -257.83890625 233.17527344 -258.8828125 233.20117188 C-270.12602454 233.30927968 -279.7103554 230.69703851 -288.0703125 222.96484375 C-296.33422308 214.31975648 -298.55975996 206.26555255 -298.40625 194.55322266 C-297.96221388 183.51476215 -293.8965155 176.50794404 -285.9375 168.9375 C-283.31332379 166.66076145 -280.63813309 164.47362367 -277.91796875 162.3125 C-274.74770616 159.78626192 -271.64989287 157.18861149 -268.5625 154.5625 C-267.74930298 153.87269043 -267.74930298 153.87269043 -266.91967773 153.16894531 C-265.25821022 151.7593342 -263.59771528 150.34858567 -261.9375 148.9375 C-254.92235196 142.97503537 -247.88102709 137.05672061 -240.7421875 131.2421875 C-235.42137304 126.86993049 -230.18483664 122.39742856 -224.9375 117.9375 C-217.92235196 111.97503537 -210.88102709 106.05672061 -203.7421875 100.2421875 C-198.42137304 95.86993049 -193.18483664 91.39742856 -187.9375 86.9375 C-180.92235196 80.97503537 -173.88102709 75.05672061 -166.7421875 69.2421875 C-161.42137304 64.86993049 -156.18483664 60.39742856 -150.9375 55.9375 C-143.92235196 49.97503537 -136.88102709 44.05672061 -129.7421875 38.2421875 C-124.42137304 33.86993049 -119.18483664 29.39742856 -113.9375 24.9375 C-80.95029408 -3.09969143 -42.04163044 -30.67294322 0 0 Z " fill="#8A8A8A" transform="translate(297.9375,37.0625)"/>
</svg>
