<?xml version="1.0" encoding="UTF-8"?>
<svg version="1.1" xmlns="http://www.w3.org/2000/svg" width="512" height="512">
<path d="M0 0 C4.6821207 4.44801466 6.7015326 7.29826938 7.00336456 13.78173828 C7.02536102 16.00282129 7.02523281 18.22418793 7.00793457 20.4453125 C7.01729451 22.28425079 7.01729451 22.28425079 7.02684355 24.16033936 C7.04002813 27.55598514 7.03529705 30.95074463 7.02289867 34.34633636 C7.01384517 38.01103245 7.02781937 41.67565131 7.03881836 45.34033203 C7.05660503 52.51650066 7.05276299 59.69250195 7.0411678 66.86867714 C7.03213431 72.70087685 7.0309091 78.53302967 7.03526306 84.36523438 C7.03587599 85.19529747 7.03648893 86.02536057 7.03712043 86.88057709 C7.03839933 88.56683351 7.03969619 90.25308992 7.0410108 91.93934631 C7.05241702 107.75145506 7.03930223 123.56347104 7.01780933 139.37556458 C6.9999383 152.94313117 7.00304239 166.51056087 7.02148438 180.078125 C7.04289034 195.83364109 7.05131838 211.58907589 7.03903532 227.34460449 C7.03776112 229.02465819 7.03650364 230.7047119 7.03526306 232.38476562 C7.03433741 233.62469395 7.03433741 233.62469395 7.03339306 234.88967133 C7.02993933 240.71487886 7.03576898 246.54003483 7.04518127 252.36523438 C7.05639961 259.46422474 7.05336479 266.56303819 7.0320583 273.66200829 C7.02154553 277.28406893 7.01742963 280.9058346 7.03065491 284.52789307 C7.04477233 288.45365803 7.02791609 292.37893995 7.00793457 296.3046875 C7.0213189 298.02325958 7.0213189 298.02325958 7.03497362 299.77655029 C6.97367504 305.96614925 6.66681799 309.67953184 2.5 314.375 C-1.87998798 318.53598858 -5.76868202 319.07679284 -11.57861328 318.98242188 C-20.75132692 317.5615707 -29.24130072 313.13404104 -37.6875 309.4375 C-39.80242118 308.5306256 -41.91832076 307.62602978 -44.03515625 306.72363281 C-48.37405419 304.87208902 -52.70861292 303.01088624 -57.04052734 301.14306641 C-66.08330466 297.25467386 -75.18093318 293.49969174 -84.28067017 289.74703979 C-87.74437261 288.31785973 -91.20587949 286.88341307 -94.66716003 285.44837952 C-97.944444 284.08979057 -101.22222782 282.73241063 -104.5 281.375 C-104.50364563 282.31745575 -104.50729126 283.2599115 -104.51104736 284.23092651 C-104.5481117 293.14599789 -104.60600839 302.06072749 -104.68390274 310.97553825 C-104.72328321 315.55792473 -104.75551768 320.14012176 -104.77099609 324.72265625 C-104.78622516 329.15142659 -104.82078033 333.57967575 -104.86830902 338.00821304 C-104.88305872 339.6913002 -104.89103731 341.3744618 -104.89188385 343.05761337 C-104.90358016 354.66022683 -105.48242971 364.94141464 -113.796875 373.84375 C-121.76729453 381.00981526 -129.81135898 382.68744375 -140.26953125 382.7109375 C-141.30510666 382.7175943 -142.34068207 382.7242511 -143.40763855 382.73110962 C-145.59376252 382.74121128 -147.77991717 382.74592741 -149.96606445 382.74560547 C-153.29105088 382.74997183 -156.61470183 382.78630038 -159.93945312 382.82421875 C-162.07030799 382.83008896 -164.20116912 382.83405698 -166.33203125 382.8359375 C-167.31669876 382.85030853 -168.30136627 382.86467957 -169.31587219 382.87948608 C-179.15455342 382.81514691 -187.36029021 379.1717543 -194.5 372.375 C-200.78323503 364.40135148 -201.79906687 356.76798105 -201.81884766 346.86181641 C-201.82889328 345.71001892 -201.8389389 344.55822144 -201.84928894 343.371521 C-201.88012265 339.57320646 -201.89715691 335.77496243 -201.9140625 331.9765625 C-201.93277396 329.33954258 -201.95234735 326.70252864 -201.9727478 324.06552124 C-202.01946131 317.83962813 -202.05624123 311.61371788 -202.08942068 305.38773954 C-202.1276947 298.2969901 -202.17709095 291.20633164 -202.22740483 284.115659 C-202.33061411 269.53550943 -202.41991016 254.95529466 -202.5 240.375 C-205.49132342 239.37789219 -207.48286314 239.24501633 -210.60717773 239.2331543 C-211.64933945 239.22611984 -212.69150116 239.21908539 -213.76524353 239.21183777 C-214.8932991 239.20767349 -216.02135468 239.20350922 -217.18359375 239.19921875 C-219.58008674 239.17600288 -221.97657112 239.15188485 -224.37304688 239.12695312 C-228.14483243 239.09198163 -231.91630522 239.06257588 -235.68823242 239.04907227 C-239.33290594 239.0334752 -242.97666555 238.9931712 -246.62109375 238.94921875 C-248.28584999 238.95208138 -248.28584999 238.95208138 -249.98423767 238.95500183 C-264.16973087 238.73648221 -274.93875609 233.62916831 -285.25 224.0625 C-297.10554404 211.53588743 -297.96922917 197.76629035 -297.93359375 181.4453125 C-297.93816365 179.60504973 -297.94347161 177.76478867 -297.94947815 175.92453003 C-297.95837779 172.07998696 -297.95602256 168.23565197 -297.94604492 164.39111328 C-297.93456541 159.49352818 -297.95476728 154.59666522 -297.98396206 149.69917488 C-298.0024151 145.90188118 -298.00201346 142.10475761 -297.99632454 138.30743027 C-297.9961724 136.50313174 -298.00212646 134.69882088 -298.01461601 132.89456558 C-298.11584263 115.87543091 -295.08676356 103.45038549 -283.1875 90.625 C-275.29166163 83.15215297 -265.145224 78.07963278 -254.13769531 78.24414062 C-252.20064522 78.32851507 -250.26408743 78.42480012 -248.328125 78.53125 C-216.64428286 79.57428055 -193.58599435 74.87202496 -165.20703125 61.08300781 C-156.51529085 56.89824806 -147.56829735 53.31866234 -138.64080811 49.67324829 C-133.60687903 47.61056093 -128.58939473 45.50864856 -123.5703125 43.41015625 C-121.55769373 42.57029182 -119.5449984 41.73061083 -117.53222656 40.89111328 C-116.53630493 40.47565247 -115.5403833 40.06019165 -114.51428223 39.63214111 C-110.50702379 37.96086784 -106.49933132 36.29063768 -102.4914856 34.62077332 C-100.49050023 33.78704808 -98.48958479 32.95315501 -96.48873901 32.11909485 C-91.52067692 30.04845029 -86.55141383 27.98078632 -81.57958984 25.91918945 C-72.22254284 22.03552917 -62.88081899 18.1227059 -53.57751465 14.11169434 C-49.19530793 12.22437085 -44.80644696 10.35281512 -40.41699219 8.48242188 C-38.33157797 7.58858106 -36.24943095 6.68707254 -34.17089844 5.77734375 C-10.17085817 -4.72218415 -10.17085817 -4.72218415 0 0 Z M-31.37158203 40.89355469 C-32.17943146 41.23022156 -32.98728088 41.56688843 -33.8196106 41.91375732 C-34.70671722 42.28768616 -35.59382385 42.66161499 -36.5078125 43.046875 C-37.43915009 43.43611145 -38.37048767 43.8253479 -39.33004761 44.22637939 C-42.4297328 45.52267796 -45.52733012 46.82389379 -48.625 48.125 C-50.80322901 49.03683205 -52.98161683 49.94828481 -55.16015625 50.859375 C-59.69365383 52.75568477 -64.22645782 54.65363876 -68.75878906 56.55273438 C-78.01798621 60.43101883 -87.28539883 64.28954217 -96.55291748 68.14788818 C-101.5044296 70.2096082 -106.45530569 72.27285444 -111.40625 74.3359375 C-113.40234073 75.16765047 -115.3984345 75.99935616 -117.39453125 76.83105469 C-118.39371582 77.24738159 -119.39290039 77.6637085 -120.42236328 78.09265137 C-131.87011719 82.86254883 -143.31787109 87.63244629 -154.765625 92.40234375 C-155.69029068 92.78848343 -156.61495636 93.17462311 -157.56764221 93.57246399 C-159.41653087 94.34109396 -161.26789401 95.10379884 -163.12168884 95.86051941 C-167.90864476 97.82359245 -172.60396074 99.88398357 -177.25610352 102.1496582 C-192.8683572 109.55847122 -206.30490801 110.69542362 -223.4375 110.3125 C-227.03555906 110.27112631 -230.63306276 110.24431566 -234.2313385 110.23231506 C-236.44200757 110.22102502 -238.6526941 110.19125648 -240.86277771 110.1391449 C-247.54772443 110.05594595 -254.64209428 110.2723545 -260.08628845 114.65074158 C-266.80015474 121.97600011 -265.81151834 131.47470841 -265.80078125 140.7421875 C-265.80467531 142.14551926 -265.80901143 143.54884985 -265.81376648 144.95217896 C-265.82120222 147.88563873 -265.82095696 150.81897809 -265.81567383 153.75244141 C-265.80988579 157.49009092 -265.82680651 161.22724381 -265.8500185 164.96481133 C-265.86483443 167.86124497 -265.86561689 170.7575612 -265.86250877 173.65402603 C-265.86301815 175.03097643 -265.86818293 176.40793408 -265.87832069 177.78484726 C-266.18284074 190.05940023 -266.18284074 190.05940023 -261.22505188 200.95040894 C-256.33767766 205.46350359 -250.91040888 206.54991172 -244.51000977 206.37646484 C-242.57021879 206.28490318 -240.63068816 206.18771293 -238.69140625 206.0859375 C-206.12902073 204.97213045 -182.52947816 210.39996154 -153.40332031 224.56884766 C-144.59964697 228.81346936 -135.54488642 232.4549021 -126.49945068 236.1468811 C-121.52068593 238.18542606 -116.55808015 240.26254999 -111.59375 242.3359375 C-109.59773414 243.16783015 -107.6016399 243.99953475 -105.60546875 244.83105469 C-68.234375 260.40234375 -68.234375 260.40234375 -65.42602539 261.57269287 C-63.59597746 262.33507842 -61.76573996 263.09700908 -59.93530273 263.85845947 C-54.89617473 265.95547324 -49.86183583 268.06332768 -44.83203125 270.18261719 C-43.72839233 270.6462265 -42.62475342 271.10983582 -41.4876709 271.5874939 C-39.34526442 272.48763023 -37.20402325 273.39054626 -35.06408691 274.29653931 C-34.1038562 274.69932098 -33.14362549 275.10210266 -32.15429688 275.51708984 C-31.30250854 275.87636566 -30.45072021 276.23564148 -29.57312012 276.60580444 C-27.55602103 277.49095348 -27.55602103 277.49095348 -25.5 277.375 C-25.5 198.835 -25.5 120.295 -25.5 39.375 C-27.84955652 39.375 -29.20446333 39.98488807 -31.37158203 40.89355469 Z M-169.5 254.375 C-169.5 286.055 -169.5 317.735 -169.5 350.375 C-158.94 350.375 -148.38 350.375 -137.5 350.375 C-137.5 322.655 -137.5 294.935 -137.5 266.375 C-153.06719969 258.19712323 -153.06719969 258.19712323 -169.5 254.375 Z " fill="#8A8A8A" transform="translate(329.5,65.625)"/>
<path d="M0 0 C4.15798773 1.80197017 8.17962074 3.867682 12.20681763 5.94158936 C13.70141572 6.69120056 15.19688099 7.43908496 16.69316101 8.18533325 C19.80957303 9.74596115 22.91722527 11.32243348 26.01907349 12.9118042 C29.98267159 14.94190747 33.9622936 16.93784736 37.94851589 18.92308998 C41.0313575 20.46156991 44.10687544 22.01422905 47.18022346 23.57157516 C48.64518331 24.3126348 50.11193484 25.05016412 51.58053398 25.78398514 C53.63314415 26.81319134 55.67559468 27.86028307 57.71633911 28.91278076 C59.45741188 29.79880478 59.45741188 29.79880478 61.23365784 30.70272827 C65.28268242 33.3293153 68.1483111 36.34020129 70.33572388 40.71502686 C70.84074731 46.24544738 71.07379645 51.12533209 68.71072388 56.21502686 C64.44913404 60.7009109 61.37682304 62.95580283 55.10891724 63.26824951 C46.61547158 63.12965604 39.83208186 59.2825208 32.46463013 55.48846436 C30.97003204 54.73885315 29.47456676 53.99096875 27.97828674 53.24472046 C24.86187472 51.68409256 21.75422249 50.10762023 18.65237427 48.51824951 C14.68877616 46.48814624 10.70915416 44.49220635 6.72293186 42.50696373 C3.64009025 40.9684838 0.56457232 39.41582466 -2.50877571 37.85847855 C-3.97373555 37.11741891 -5.44048709 36.37988959 -6.90908623 35.64606857 C-8.9616964 34.61686237 -11.00414693 33.56977064 -13.04489136 32.51727295 C-14.20560654 31.92659027 -15.36632172 31.33590759 -16.56221008 30.72732544 C-20.61123466 28.10073841 -23.47686334 25.08985242 -25.66427612 20.71502686 C-26.16929955 15.18460633 -26.40234869 10.30472162 -24.03927612 5.21502686 C-16.96860596 -2.22778385 -9.71614164 -3.40721623 0 0 Z " fill="#8A8A8A" transform="translate(393.6642761230469,321.28497314453125)"/>
<path d="M0 0 C4.8143755 4.57365673 6.75156236 7.6837462 7 14.375 C6.79656006 19.51821604 6.20371522 22.5786919 2.5 26.375 C-4.48135526 31.06122175 -11.94206937 34.8303438 -19.421875 38.64453125 C-20.08357948 38.98195532 -20.74528397 39.31937939 -21.4270401 39.66702843 C-24.92646044 41.44912153 -28.42901269 43.22490633 -31.93359375 44.99682617 C-34.81086526 46.45329121 -37.68069417 47.92308222 -40.54492188 49.4050293 C-44.03179875 51.20901629 -47.53014385 52.98862036 -51.03769684 54.7520504 C-52.36057544 55.42197787 -53.67937612 56.1000294 -54.9936142 56.7867527 C-63.08674606 61.00583719 -70.20553666 63.85276268 -79.5 62.375 C-84.3846525 60.10712562 -87.23212562 57.2596525 -89.5 52.375 C-90.24393877 46.84859771 -90.24546846 42.08336523 -88 36.9375 C-81.39632171 30.16872975 -71.92568519 26.36215146 -63.578125 22.10546875 C-62.91642052 21.76804468 -62.25471603 21.43062061 -61.5729599 21.08297157 C-58.07353956 19.30087847 -54.57098731 17.52509367 -51.06640625 15.75317383 C-48.18913474 14.29670879 -45.31930583 12.82691778 -42.45507812 11.3449707 C-38.96820125 9.54098371 -35.46985615 7.76137964 -31.96230316 5.9979496 C-30.63942456 5.32802213 -29.32062388 4.6499706 -28.0063858 3.9632473 C-18.94401819 -0.76111593 -9.90735771 -4.59984465 0 0 Z " fill="#8A8A8A" transform="translate(457.5,65.625)"/>
<path d="M0 0 C0.73250977 -0.00700928 1.46501953 -0.01401855 2.21972656 -0.02124023 C4.62604382 -0.03875584 7.03117209 -0.02722142 9.4375 -0.01367188 C11.11849186 -0.01636866 12.79948221 -0.02025264 14.48046875 -0.02526855 C17.99754743 -0.03115485 21.5142188 -0.02262896 25.03125 -0.00390625 C29.53052189 0.01888312 34.02883927 0.00575532 38.52807617 -0.01819611 C41.99746847 -0.03267779 45.46663594 -0.02803731 48.93603516 -0.01768494 C50.59456496 -0.01502418 52.25311544 -0.01826444 53.91162109 -0.02760315 C56.23329421 -0.03780834 58.55344011 -0.02221466 60.875 0 C62.19371094 0.00318237 63.51242187 0.00636475 64.87109375 0.00964355 C70.16529367 0.76365389 73.1949097 3.20958834 76.8125 7.01757812 C79.21053575 12.18257821 79.19131535 16.91780692 78.4375 22.51757812 C76.12838725 27.49105174 73.16511365 29.84944159 68.4375 32.51757812 C64.87109375 33.0255127 64.87109375 33.0255127 60.875 33.03515625 C60.14249023 33.04216553 59.40998047 33.0491748 58.65527344 33.05639648 C56.24895618 33.07391209 53.84382791 33.06237767 51.4375 33.04882812 C49.75650814 33.05152491 48.07551779 33.05540889 46.39453125 33.0604248 C42.87745257 33.0663111 39.3607812 33.05778521 35.84375 33.0390625 C31.34447811 33.01627313 26.84616073 33.02940093 22.34692383 33.05335236 C18.87753153 33.06783404 15.40836406 33.06319356 11.93896484 33.05284119 C10.28043504 33.05018043 8.62188456 33.05342069 6.96337891 33.0627594 C4.64170579 33.07296459 2.32155989 33.05737091 0 33.03515625 C-1.31871094 33.03197388 -2.63742187 33.0287915 -3.99609375 33.0255127 C-9.29029367 32.27150236 -12.3199097 29.82556791 -15.9375 26.01757812 C-18.33553575 20.85257804 -18.31631535 16.11734933 -17.5625 10.51757812 C-13.97822937 2.79761062 -8.2761305 0.01997233 0 0 Z " fill="#8A8A8A" transform="translate(401.5625,207.482421875)"/>
</svg>
