<?xml version="1.0" encoding="UTF-8"?>
<svg version="1.1" xmlns="http://www.w3.org/2000/svg" width="512" height="512">
<path d="M0 0 C0.9376948 -0.00538554 1.8753896 -0.01077108 2.84149939 -0.01631981 C5.98573916 -0.03063463 9.12956001 -0.02348668 12.27381897 -0.01637268 C14.52767781 -0.0220747 16.78153375 -0.0290383 19.03538513 -0.03717041 C25.16190823 -0.0551435 31.2882884 -0.05392462 37.41482997 -0.04822803 C42.53354791 -0.04513964 47.65223826 -0.05122531 52.77095228 -0.05726677 C65.54700979 -0.07213062 78.32296628 -0.06848746 91.09901763 -0.05640347 C102.16969941 -0.04649094 113.24021358 -0.05937648 124.31086951 -0.08333766 C135.69486234 -0.10778981 147.0787553 -0.11692186 158.46278197 -0.11068493 C164.84711691 -0.1073213 171.2313137 -0.10969 177.6156292 -0.12693596 C183.62803205 -0.14246677 189.6401172 -0.13838137 195.65250778 -0.11963081 C197.8509967 -0.11596072 200.04950945 -0.1190069 202.2479763 -0.1295166 C224.041751 -0.22568657 241.47327708 3.72948121 257.72328186 19.38768005 C263.43520739 25.95590788 267.79269965 33.18619203 270.72328186 41.38768005 C270.98222229 42.06935242 271.24116272 42.75102478 271.50794983 43.45335388 C274.40922703 52.23744093 274.24694802 61.14394923 274.22425842 70.29515076 C274.22328007 73.08028196 274.26513765 75.86270622 274.30921936 78.64744568 C274.31442361 80.43975772 274.3171146 82.23207921 274.31703186 84.0243988 C274.33342712 84.84542587 274.34982239 85.66645294 274.36671448 86.51235962 C274.29424989 92.62342203 272.52501497 96.61679395 268.72328186 101.38768005 C262.89777356 106.92191294 257.53815292 107.80237966 249.72718811 107.62986755 C243.58040141 107.13428787 239.52646891 105.62274702 235.34828186 101.01268005 C231.29510639 96.05376705 230.47649712 91.51627447 230.41468811 85.1806488 C230.38952064 83.77504583 230.36412272 82.36944697 230.33851624 80.96385193 C230.30987324 78.7720504 230.28582605 76.58032034 230.26698303 74.38841248 C230.44891247 61.62904293 230.44891247 61.62904293 225.11000061 50.36424255 C224.54925842 49.91822693 223.98851624 49.4722113 223.41078186 49.01268005 C222.85777405 48.55119568 222.30476624 48.0897113 221.73500061 47.61424255 C216.17802605 44.22610661 210.80068659 44.10724861 204.50502014 44.16062927 C203.59706192 44.16033722 202.6891037 44.16004517 201.75363159 44.15974426 C198.76685368 44.16113227 195.78032844 44.17666857 192.79359436 44.19236755 C190.71708818 44.19609956 188.64058023 44.19894565 186.56407166 44.20094299 C181.10934046 44.20856463 175.65471644 44.22820054 170.20002747 44.25035095 C164.62966868 44.27084103 159.0592925 44.27995147 153.48890686 44.2900238 C142.56698487 44.31144778 131.64514229 44.34556602 120.72328186 44.38768005 C122.04549744 44.88582214 122.04549744 44.88582214 123.39442444 45.39402771 C126.71998597 46.65133463 130.04263043 47.91584466 133.36366272 49.18504333 C134.79097351 49.72888773 136.21933305 50.2699891 137.64881897 50.80809021 C158.83322965 58.788468 173.91446319 68.18982112 184.02796936 89.08299255 C189.0715536 100.8268128 189.00292825 112.59128876 188.95033264 125.14793396 C188.9497678 127.04101048 188.95008652 128.93408743 188.95121765 130.8271637 C188.9517893 135.9421497 188.94006547 141.05704108 188.92606974 146.17200518 C188.91353098 151.52647447 188.9123894 156.88094615 188.91001892 162.23542786 C188.90381338 172.3640823 188.88741511 182.49269334 188.86731994 192.62132871 C188.84493209 204.15700615 188.83396026 215.69268571 188.82392907 227.22837949 C188.80304805 250.94817036 188.76789011 274.66792277 188.72328186 298.38768005 C192.91154977 298.3063501 197.09840979 298.1935431 201.28578186 298.07518005 C202.46720764 298.05262146 203.64863342 298.03006287 204.86585999 298.00682068 C212.74035956 297.76418904 218.17778076 297.20796502 224.47328186 292.20018005 C231.15139552 283.85253798 230.16739569 273.99354456 230.15907288 263.87181091 C230.18723104 247.99999062 230.18723104 247.99999062 234.72328186 241.38768005 C236.94203186 239.23143005 236.94203186 239.23143005 239.22328186 237.88768005 C239.97609436 237.42361755 240.72890686 236.95955505 241.50453186 236.48143005 C247.03451516 233.75538195 253.21369112 233.39225318 259.13343811 235.0712738 C264.47009946 237.21841134 267.55492329 239.58713676 270.72328186 244.38768005 C272.7729083 249.24925327 272.96054328 253.66888596 272.80531311 258.86424255 C272.78740219 259.67074249 272.76949127 260.47724243 272.7510376 261.30818176 C272.70998623 263.01108923 272.66343588 264.713872 272.61170959 266.41648865 C272.53663153 268.98362721 272.4871918 271.55036358 272.44007874 274.1181488 C272.15161356 286.31429656 270.81451971 297.44471415 265.16078186 308.45018005 C264.81418518 309.12572937 264.4675885 309.80127869 264.11048889 310.49729919 C255.63040659 326.30587087 241.88849941 335.28149653 225.19593811 340.51268005 C219.42011038 341.96800672 213.86249729 342.51274556 207.91468811 342.4853363 C206.67396545 342.48211365 205.4332428 342.47889099 204.15492249 342.47557068 C202.23969788 342.46300232 202.23969788 342.46300232 200.28578186 342.45018005 C198.32995178 342.44341248 198.32995178 342.44341248 196.33460999 342.43650818 C193.13078634 342.42477256 189.92705823 342.40835368 186.72328186 342.38768005 C186.76968811 343.41506287 186.81609436 344.44244568 186.86390686 345.5009613 C187.34375171 360.57502277 183.37551738 370.59082443 173.39906311 382.05955505 C166.21530105 389.68313928 158.53689479 394.89749207 147.92250061 395.66111755 C146.41873857 395.70086457 144.9148055 395.73451961 143.41078186 395.76268005 C142.6959967 395.80006287 141.98121155 395.83744568 141.24476624 395.8759613 C133.25098762 396.00032432 126.10428458 393.1350232 118.72328186 390.38768005 C117.64601334 389.98884613 117.64601334 389.98884613 116.54698181 389.58195496 C111.75899261 387.8015295 106.98700444 385.98084205 102.2195282 384.14628601 C97.59959686 382.36862391 92.97552627 380.60177068 88.35218811 378.83299255 C87.39299973 378.46568024 86.43381134 378.09836792 85.44555664 377.71992493 C76.0790569 374.13520245 66.69597833 370.59500341 57.31098938 367.05903625 C51.71818969 364.95034327 46.12809689 362.83448406 40.53779602 360.71917725 C35.44176895 358.79149473 30.34417338 356.8680955 25.24427795 354.95066833 C19.78647278 352.89835971 14.33222163 350.8368433 8.88011169 348.76945496 C6.79185046 347.97943519 4.70236676 347.19263852 2.61161804 346.40922546 C-0.29195974 345.32070227 -3.19097904 344.22079343 -6.08921814 343.1181488 C-6.94852432 342.79907059 -7.80783051 342.47999237 -8.69317627 342.15124512 C-16.50407112 339.15407628 -20.50761666 335.92433313 -24.20083332 328.32537353 C-26.11658211 323.0944393 -25.95693172 317.95157966 -25.8981781 312.43652344 C-25.90456692 311.16419465 -25.91095574 309.89186587 -25.91753817 308.58098167 C-25.93443197 305.07462615 -25.92041822 301.56899124 -25.90102339 298.06267416 C-25.88553249 294.27200077 -25.89901429 290.48141204 -25.9087677 286.69073486 C-25.92326151 279.27677674 -25.91109536 271.86309334 -25.88965446 264.4491613 C-25.86560508 255.81569597 -25.86736105 247.18229304 -25.86996037 238.54880165 C-25.87364664 223.14974124 -25.85285423 207.75081011 -25.81871033 192.35179138 C-25.78558103 177.40481808 -25.77145926 162.45798034 -25.7776947 147.51097107 C-25.78445388 131.22844511 -25.78201502 114.94597586 -25.7623353 98.66345829 C-25.76129581 97.8031704 -25.76025633 96.94288252 -25.75918534 96.0565253 C-25.75709446 94.32867633 -25.75498349 92.60082739 -25.75285217 90.87297847 C-25.74595065 84.85196543 -25.74528817 78.83096985 -25.74673462 72.80995369 C-25.74817202 65.48005896 -25.7385247 58.1502749 -25.71478826 50.82041693 C-25.70290456 47.07926301 -25.69581889 43.33826362 -25.70162582 39.59709167 C-25.70772544 35.54788498 -25.69067996 31.49911511 -25.67112732 27.44995117 C-25.67645525 26.25931692 -25.68178317 25.06868267 -25.68727255 23.8419686 C-25.67821591 22.76230981 -25.66915927 21.68265103 -25.65982819 20.57027531 C-25.65825698 19.63512878 -25.65668578 18.69998224 -25.65506697 17.73649794 C-25.20384207 14.93525998 -24.37105103 14.20986416 -22.27671814 12.38768005 C-22.00859314 11.58330505 -21.74046814 10.77893005 -21.46421814 9.95018005 C-19.82595075 6.41497147 -17.59579015 5.34007535 -14.27671814 3.38768005 C-13.57730826 2.86200408 -12.87789839 2.33632811 -12.15729427 1.79472256 C-8.07662957 -0.19851366 -4.48510377 -0.03081722 0 0 Z " fill="#8A8A8A" transform="translate(110.27671813964844,63.61231994628906)"/>
<path d="M0 0 C9.49976435 7.43710237 17.82970685 16.64357503 26.34277344 25.1574707 C28.88456708 27.69705878 31.43428448 30.22851212 33.984375 32.75976562 C35.61246788 34.38492722 37.24008891 36.01056168 38.8671875 37.63671875 C39.62450165 38.38684738 40.3818158 39.13697601 41.16207886 39.90983582 C48.00523093 46.78271703 52.09674526 51.86371299 52.25 61.8125 C52.28867187 63.30716797 52.28867187 63.30716797 52.328125 64.83203125 C51.35295803 74.24703619 45.16323766 79.44284732 38.7421875 85.82421875 C37.71377396 86.85787572 36.68587946 87.89204932 35.65847778 88.92671204 C33.50807801 91.08748806 31.35040933 93.24066455 29.1875 95.38891602 C26.43193147 98.12732381 23.69719258 100.88551266 20.96786308 103.65004253 C18.85075511 105.78923455 16.72193914 107.91647207 14.58963394 110.04050636 C13.57724235 111.05208402 12.56862585 112.0674559 11.5640831 113.08682823 C5.1362464 119.59491538 -0.61800547 124.78267706 -9.78515625 126.53125 C-16.58002658 126.43800993 -21.75945372 125.10372321 -26.7578125 120.31640625 C-32.29998332 114.09150425 -33.46247106 109.63197831 -33.3125 101.26171875 C-32.71011183 94.97429218 -30.30551567 91.23990461 -25.90869141 86.88256836 C-25.36499908 86.34264755 -24.82130676 85.80272675 -24.26113892 85.2464447 C-23.84496307 84.83511795 -23.42878723 84.4237912 -23 84 C-23.73391968 83.99635437 -24.46783936 83.99270874 -25.22399902 83.98895264 C-32.16776968 83.95095938 -39.11115816 83.8939788 -46.05458832 83.81609726 C-49.62364948 83.77672284 -53.19246764 83.74448584 -56.76171875 83.72900391 C-60.21148889 83.7137702 -63.66059053 83.67920863 -67.11006165 83.63169098 C-69.05516362 83.60980909 -71.00045457 83.60753204 -72.94567871 83.60565186 C-80.76749535 83.47719088 -87.01222592 82.93697441 -92.83984375 77.18359375 C-93.20207031 76.60738281 -93.56429688 76.03117187 -93.9375 75.4375 C-94.31777344 74.85871094 -94.69804687 74.27992188 -95.08984375 73.68359375 C-98.35290009 67.64763974 -98.20643069 58.17769714 -96.31640625 51.6328125 C-93.25047426 45.90804322 -88.0877097 42.00431622 -82 40 C-79.15885925 39.7215271 -79.15885925 39.7215271 -76.01635742 39.68115234 C-74.83551071 39.66128265 -73.654664 39.64141296 -72.43803406 39.62094116 C-71.17328751 39.60938995 -69.90854095 39.59783875 -68.60546875 39.5859375 C-67.30297684 39.56657135 -66.00048492 39.5472052 -64.65852356 39.5272522 C-61.2079265 39.47605482 -57.75729056 39.43636324 -54.30651855 39.39910889 C-50.78042074 39.35899112 -47.25448292 39.30793438 -43.72851562 39.2578125 C-36.8191275 39.16120027 -29.90963654 39.07674878 -23 39 C-23.48319702 38.52958282 -23.96639404 38.05916565 -24.4642334 37.57449341 C-25.09671997 36.95194672 -25.72920654 36.32940002 -26.38085938 35.68798828 C-27.0084314 35.07319611 -27.63600342 34.45840393 -28.28259277 33.82498169 C-33.48083784 28.30113043 -33.57821707 22.65594186 -33.41796875 15.421875 C-32.66973711 9.2961655 -29.9318843 5.9318843 -25.6875 1.6875 C-17.42560565 -3.5002011 -8.88214988 -5.00359397 0 0 Z " fill="#8A8A8A" transform="translate(417,173)"/>
</svg>
