<?xml version="1.0" standalone="no"?>
<!DOCTYPE svg PUBLIC "-//W3C//DTD SVG 20010904//EN"
 "http://www.w3.org/TR/2001/REC-SVG-20010904/DTD/svg10.dtd">
<svg version="1.0" xmlns="http://www.w3.org/2000/svg"
 width="512.000000pt" height="512.000000pt" viewBox="0 0 512.000000 512.000000"
 preserveAspectRatio="xMidYMid meet">

<g transform="translate(0.000000,512.000000) scale(0.100000,-0.100000)"
fill="#ffffff" stroke="none">
<path d="M2365 5109 c-856 -82 -1624 -598 -2024 -1360 -127 -243 -212 -498
-262 -789 -27 -160 -37 -490 -20 -652 116 -1090 883 -1973 1941 -2232 229 -57
347 -70 605 -71 233 0 318 8 510 46 576 115 1128 452 1495 914 161 203 315
479 406 730 58 160 66 225 32 275 -60 88 -156 105 -241 42 -342 -257 -726
-375 -1108 -342 -702 61 -1259 530 -1429 1204 -130 515 11 1060 378 1465 134
147 353 302 534 377 59 25 98 48 118 70 78 90 35 224 -83 259 -203 60 -587 89
-852 64z m310 -317 c-6 -4 -42 -34 -81 -65 -286 -229 -518 -586 -619 -952 -57
-208 -69 -298 -69 -520 0 -317 50 -539 184 -822 179 -376 464 -673 832 -868
280 -147 568 -217 893 -218 244 0 477 42 682 124 41 16 77 28 79 26 7 -7 -118
-203 -186 -293 -299 -393 -737 -685 -1212 -808 -223 -58 -326 -71 -568 -71
-263 1 -421 23 -650 92 -810 244 -1409 923 -1562 1770 -20 111 -23 160 -23
373 1 260 9 334 61 541 225 903 985 1572 1911 1684 121 14 342 19 328 7z"/>
</g>
</svg>
