<?xml version="1.0" standalone="no"?>
<!DOCTYPE svg PUBLIC "-//W3C//DTD SVG 20010904//EN"
 "http://www.w3.org/TR/2001/REC-SVG-20010904/DTD/svg10.dtd">
<svg version="1.0" xmlns="http://www.w3.org/2000/svg"
 width="512.000000pt" height="512.000000pt" viewBox="0 0 512.000000 512.000000"
 preserveAspectRatio="xMidYMid meet">

<g transform="translate(0.000000,512.000000) scale(0.100000,-0.100000)"
fill="#F2D51F" stroke="none">
<path d="M2470 4794 c-106 -21 -222 -80 -305 -155 -68 -63 -146 -180 -177
-265 -22 -63 -23 -63 -91 -93 -171 -76 -364 -219 -470 -348 -114 -140 -201
-314 -246 -489 -39 -155 -52 -267 -61 -559 -19 -617 -65 -763 -340 -1105 -121
-150 -135 -180 -135 -295 0 -82 3 -97 33 -157 40 -81 110 -148 190 -180 l57
-23 1635 0 1635 0 57 23 c80 32 150 99 190 180 30 60 33 75 33 157 0 115 -14
145 -135 295 -113 141 -157 204 -202 295 -92 183 -138 451 -138 811 0 702
-233 1131 -748 1380 l-97 47 -24 60 c-37 95 -89 175 -160 247 -113 114 -234
169 -386 175 -49 2 -101 1 -115 -1z"/>
<path d="M1862 788 c-19 -19 -15 -36 31 -106 162 -249 467 -391 761 -354 235
30 447 160 573 354 46 70 50 87 31 106 -17 17 -1379 17 -1396 0z"/>
</g>
</svg>
