<?xml version="1.0" encoding="UTF-8"?>
<svg version="1.1" xmlns="http://www.w3.org/2000/svg" width="512" height="512">
<path d="M0 0 C0.72826492 -0.00983917 1.45652985 -0.01967834 2.2068634 -0.02981567 C47.76432074 -0.5183107 87.56363267 12.3726339 121.1171875 44.23828125 C121.5915625 44.6854248 122.0659375 45.13256836 122.5546875 45.59326172 C152.30570079 73.80442764 169.78253518 113.5893074 171.19873047 154.59960938 C171.27555586 159.14843128 171.22871409 163.69047494 171.1171875 168.23828125 C171.78838623 168.16971924 172.45958496 168.10115723 173.15112305 168.03051758 C209.92296503 164.59075981 245.41208983 167.95074404 278.1171875 186.23828125 C278.76413574 186.59680176 279.41108398 186.95532227 280.07763672 187.32470703 C288.78979578 192.20360234 296.60744605 197.61406828 304.1171875 204.23828125 C304.96925781 204.98078125 305.82132812 205.72328125 306.69921875 206.48828125 C309.20467258 208.70508833 311.66719799 210.96043153 314.1171875 213.23828125 C314.84421875 213.89957031 315.57125 214.56085938 316.3203125 215.2421875 C342.41415102 239.97501646 359.65294634 278.27541155 361.29418945 314.10205078 C361.32023907 315.44163423 361.34044707 316.78134126 361.35546875 318.12109375 C361.36530792 318.84935867 361.37514709 319.5776236 361.38528442 320.32795715 C361.8487695 363.55296623 350.32981666 402.60948257 321.1171875 435.23828125 C320.37082031 436.10582031 319.62445313 436.97335937 318.85546875 437.8671875 C315.99571676 441.17360552 313.44887281 443.99734761 309.890625 446.58203125 C306.8559827 448.95274839 306.8559827 448.95274839 306.64453125 452.20703125 C306.77988281 453.37234375 306.91523438 454.53765625 307.0546875 455.73828125 C307.12099365 456.40118164 307.1872998 457.06408203 307.25561523 457.74707031 C307.41614319 459.30883425 307.59240959 460.86902241 307.78027344 462.42773438 C308.32750534 466.9927588 308.79671305 471.56584866 309.27368164 476.13867188 C309.53897179 478.65406275 309.81379295 481.16847159 310.09936523 483.68164062 C312.35168511 504.13963531 312.35168511 504.13963531 309.2421875 509.42578125 C305.67742123 512.46631718 303.17203174 512.55682022 298.61859131 512.49731445 C294.35515558 512.0558138 290.79090969 510.37836864 286.9375 508.58203125 C286.08525848 508.20147583 285.23301697 507.82092041 284.35494995 507.42883301 C281.64336769 506.21419955 278.94275945 504.97717348 276.2421875 503.73828125 C274.46946586 502.93721604 272.69603225 502.13772441 270.921875 501.33984375 C269.61009026 500.74913086 269.61009026 500.74913086 268.27180481 500.14648438 C266.50623081 499.3530494 264.73986052 498.56138402 262.97270203 497.77148438 C258.63859831 495.83296682 254.3247678 493.8661658 250.03833008 491.82421875 C240.34978207 487.31625337 233.34560604 485.09981449 222.5546875 487.23828125 C220.23283834 487.5929969 217.90989985 487.94065388 215.5859375 488.28125 C214.47992188 488.45446777 213.37390625 488.62768555 212.234375 488.80615234 C175.20476597 493.9394863 133.92375188 480.04069454 104.51953125 457.89453125 C68.75566741 430.23301463 45.95143 392.15522718 40.06298828 347.09667969 C39.02734863 338.1420185 38.89638236 329.24222418 39.1171875 320.23828125 C38.52929443 320.29886719 37.94140137 320.35945313 37.33569336 320.421875 C20.47106217 322.13218377 4.49744746 322.73648709 -12.375 320.7734375 C-13.1270874 320.69319336 -13.8791748 320.61294922 -14.65405273 320.53027344 C-16.8828125 320.23828125 -16.8828125 320.23828125 -18.97290039 319.75097656 C-26.02550827 318.32149244 -31.32272825 321.01739422 -37.67105103 323.97793579 C-39.60660394 324.88019859 -41.5524087 325.75579522 -43.50268555 326.62573242 C-46.93903121 328.162694 -50.36554363 329.72032968 -53.78991699 331.28375244 C-59.26291351 333.77987937 -64.74735756 336.24895909 -70.2484436 338.68255615 C-72.15427046 339.53247815 -74.05000909 340.40242872 -75.94604492 341.27392578 C-82.5802893 344.22217468 -87.60121705 346.13641892 -94.8828125 345.23828125 C-97.75311119 343.44434457 -99.37412888 342.25564849 -100.8828125 339.23828125 C-101.65608613 328.39334342 -100.1095634 317.55440554 -98.8828125 306.80078125 C-98.59488332 304.23961258 -98.30904685 301.67824718 -98.02685547 299.11643982 C-97.85243101 297.53665797 -97.67458188 295.95724901 -97.49267578 294.37831116 C-97.03971236 290.31505493 -96.64790672 286.32579604 -96.8828125 282.23828125 C-98.3413848 280.30779409 -98.3413848 280.30779409 -100.4453125 278.86328125 C-104.81521748 275.35202426 -108.30426079 271.53862153 -111.8828125 267.23828125 C-112.58277344 266.42617188 -113.28273437 265.6140625 -114.00390625 264.77734375 C-131.57066788 244.01385773 -143.70188446 218.96236908 -148.8828125 192.23828125 C-149.06013916 191.33198975 -149.23746582 190.42569824 -149.42016602 189.49194336 C-151.05907919 180.15662975 -151.24118676 170.99658484 -151.1953125 161.55078125 C-151.19315735 160.75292206 -151.1910022 159.95506287 -151.18878174 159.13302612 C-151.13865174 147.57719202 -150.77770961 136.47960725 -147.8828125 125.23828125 C-147.68945312 124.43535645 -147.49609375 123.63243164 -147.296875 122.80517578 C-137.33511603 81.96657593 -112.08561769 46.68212051 -76.5703125 24.11328125 C-53.32879363 10.25776038 -27.37259498 0.30690924 0 0 Z M-93.56640625 65.91796875 C-121.22034746 94.9955918 -130.83423281 131.91610662 -130.11981201 171.09117126 C-129.87681795 180.14231518 -128.37102807 188.56142696 -125.8828125 197.23828125 C-125.58528076 198.34236328 -125.58528076 198.34236328 -125.28173828 199.46875 C-117.54940904 227.66683851 -100.1491902 251.64167303 -78.1484375 270.59375 C-74.75854336 274.55057471 -74.79566379 278.4540331 -75.04467773 283.55224609 C-75.17559814 284.67324707 -75.30651855 285.79424805 -75.44140625 286.94921875 C-75.64926758 288.81707031 -75.64926758 288.81707031 -75.86132812 290.72265625 C-76.01279297 292.0065625 -76.16425781 293.29046875 -76.3203125 294.61328125 C-77.23574747 302.52839588 -78.09997232 310.26417261 -77.8828125 318.23828125 C-74.36056501 316.78334836 -70.84012781 315.32408799 -67.3203125 313.86328125 C-66.24797363 313.41863525 -65.17563477 312.97398926 -64.07080078 312.51586914 C-58.48336488 310.1893363 -52.91530924 307.82854191 -47.37890625 305.3828125 C-45.83601929 304.7019458 -45.83601929 304.7019458 -44.26196289 304.00732422 C-42.29623833 303.13604736 -40.33306297 302.25899053 -38.37280273 301.37548828 C-30.52449093 297.8981649 -25.15578746 296.8731025 -16.6328125 298.61328125 C-15.10982816 298.90084794 -13.58638999 299.18602186 -12.0625 299.46875 C-11.33643555 299.60458496 -10.61037109 299.74041992 -9.86230469 299.88037109 C24.18523349 306.03647506 61.28015076 295.91242506 89.39501953 276.47460938 C93.82990817 273.29084469 97.99693276 269.81840176 102.1171875 266.23828125 C102.77074219 265.70589844 103.42429688 265.17351562 104.09765625 264.625 C108.62917678 260.91375471 112.37624766 256.73390093 116.1171875 252.23828125 C116.72175781 251.54476562 117.32632813 250.85125 117.94921875 250.13671875 C140.87966236 222.95643732 152.87498372 186.25360059 149.91064453 150.765625 C146.01160781 110.72863543 127.60480134 75.87314415 96.5625 50.234375 C76.41229566 34.36005401 51.55652109 24.21210637 26.1171875 21.23828125 C25.45364258 21.15852051 24.79009766 21.07875977 24.10644531 20.99658203 C-21.09928642 15.98468989 -62.14175013 34.53905449 -93.56640625 65.91796875 Z M168.1171875 191.23828125 C167.94703125 191.8710498 167.776875 192.50381836 167.6015625 193.15576172 C163.81656332 207.07016363 159.63596949 220.35288306 153.1171875 233.23828125 C152.77461914 233.91793945 152.43205078 234.59759766 152.07910156 235.29785156 C141.75139542 255.42388469 127.20638288 273.59765158 109.1171875 287.23828125 C108.1065625 288.02589844 107.0959375 288.81351562 106.0546875 289.625 C92.60724294 299.85547817 77.12710512 307.86203804 61.1171875 313.23828125 C55.92007102 345.91774969 66.47898816 381.30796416 85.36083984 407.99609375 C92.64167566 417.99918278 100.50060996 427.4074055 110.1171875 435.23828125 C111.02855469 435.99882812 111.93992187 436.759375 112.87890625 437.54296875 C139.5666318 459.04048418 174.75903845 470.77937493 209.1171875 468.23828125 C213.61296303 467.71770012 218.08536538 467.06091257 222.54760742 466.3059082 C233.66592297 464.47584454 241.90116961 464.84336445 252.21875 469.61328125 C253.72337296 470.2791626 253.72337296 470.2791626 255.25839233 470.95849609 C258.42849829 472.36620881 261.58524181 473.80133331 264.7421875 475.23828125 C267.9374858 476.66865363 271.13523545 478.09344133 274.33309937 479.51806641 C276.31505524 480.40364125 278.29495941 481.2938246 280.27261353 482.18896484 C281.15798798 482.58937988 282.04336243 482.98979492 282.95556641 483.40234375 C284.1282457 483.93529053 284.1282457 483.93529053 285.32461548 484.47900391 C286.94619743 485.30328525 286.94619743 485.30328525 288.1171875 485.23828125 C288.36958373 475.97029178 287.1801066 466.91470616 286.09570312 457.72265625 C285.8878418 455.85480469 285.8878418 455.85480469 285.67578125 453.94921875 C285.54486084 452.82821777 285.41394043 451.7072168 285.27905273 450.55224609 C285.04057206 445.66968701 284.95460659 441.62188515 288.171875 437.79296875 C289.14382813 436.94992187 290.11578125 436.106875 291.1171875 435.23828125 C292.39786175 434.0192767 293.67064989 432.79195883 294.9375 431.55859375 C295.97946533 430.54877441 295.97946533 430.54877441 297.04248047 429.51855469 C316.766076 410.19337141 329.81698311 387.97288745 337.1171875 361.23828125 C337.30780762 360.56007324 337.49842773 359.88186523 337.69482422 359.18310547 C342.88327663 339.75979507 342.25577484 314.57505369 337.1171875 295.23828125 C336.94558105 294.58585449 336.77397461 293.93342773 336.59716797 293.26123047 C331.14849095 273.04902467 321.88342758 254.0854646 308.1171875 238.23828125 C307.43140625 237.43132812 306.745625 236.624375 306.0390625 235.79296875 C282.70142491 209.01344935 251.30606137 192.67180008 216.1171875 188.23828125 C210.97402739 188.00002157 205.82773348 187.99590625 200.6796875 187.98828125 C199.96530518 187.98594482 199.25092285 187.9836084 198.51489258 187.98120117 C188.11721484 187.96832841 178.19801059 188.45279066 168.1171875 191.23828125 Z " fill="#8A8A8A" transform="translate(150.8828125,-0.23828125)"/>
<path d="M0 0 C3.61398757 2.7656567 6.82734823 5.74281932 10 9 C10.69480469 9.66257812 11.38960938 10.32515625 12.10546875 11.0078125 C24.1193779 23.23086126 30.02828395 41.14958005 30.25 58 C30.09181537 71.40614724 27.07731605 81.96525659 20.7421875 93.63671875 C18.8682478 97.19376526 18.8682478 97.19376526 18 101 C19.73820062 103.08464611 21.38712472 104.81166987 23.375 106.625 C30.14243818 112.99041215 30.14243818 112.99041215 30.375 118.3125 C30.35031361 122.14506165 30.13918768 122.82418398 27.625 126 C23.89079909 128.84510545 21.51578682 129.56990935 16.73046875 129.0546875 C10.61143244 126.69111124 6.27795129 120.79912302 2 116 C0.71029297 116.79664063 0.71029297 116.79664063 -0.60546875 117.609375 C-18.66783946 128.50033844 -39.29841694 132.51461122 -60.0625 127.4375 C-79.09520681 121.44921161 -94.4034226 108.8920926 -103.8125 91.3125 C-112.4774136 72.77361509 -114.03369744 52.38432481 -107 33 C-99.76610801 14.905676 -86.90330049 1.51050243 -69.23828125 -6.71484375 C-46.00184059 -15.93654336 -20.87959526 -13.98963724 0 0 Z M-80 28 C-88.41694308 39.24758541 -91.43495052 52.10440769 -90 66 C-87.10230244 80.53732539 -79.52173729 92.47243186 -67.28222656 100.79272461 C-55.73050695 108.30389664 -42.40481728 109.86856538 -28.9765625 107.45703125 C-23.6607096 105.97677067 -18.84936759 103.60429 -14 101 C-15.59352336 96.9637103 -18.47954316 94.36255892 -21.5625 91.4375 C-25.5587215 87.64439014 -27.78253541 85.34861758 -28.3125 79.625 C-27.94055992 75.31049508 -27.25098379 73.834191 -24 71 C-20.10240673 69.84515755 -17.93275657 69.62664252 -14.140625 71.14453125 C-10.54933899 73.26624873 -7.97735309 75.6840032 -5.125 78.6875 C-4.37863281 79.45416992 -4.37863281 79.45416992 -3.6171875 80.23632812 C-2.40441824 81.48408112 -1.20119281 82.74109864 0 84 C0.99 83.67 1.98 83.34 3 83 C4.44843716 80.19571703 4.44843716 80.19571703 5.625 76.8125 C6.05039063 75.68457031 6.47578125 74.55664062 6.9140625 73.39453125 C10.97019121 60.71548142 9.30855257 47.88897955 3.875 35.875 C-2.740325 23.57247022 -13.44851563 15.12076007 -26.5546875 10.7265625 C-27.36164063 10.48679687 -28.16859375 10.24703125 -29 10 C-29.62261719 9.80792969 -30.24523437 9.61585937 -30.88671875 9.41796875 C-49.80216514 5.6768361 -67.82382831 13.60360507 -80 28 Z " fill="#8A8A8A" transform="translate(201,102)"/>
<path d="M0 0 C6.26188131 2.71742019 7.59486634 7.0537058 10 13 C11.27344317 16.29932723 12.4746111 19.62131886 13.66015625 22.953125 C14.0027095 23.90704636 14.34526276 24.86096771 14.69819641 25.84379578 C15.822838 28.97805805 16.94267645 32.11401345 18.0625 35.25 C18.85141122 37.45136582 19.64064226 39.65261706 20.43017578 41.85375977 C22.09386151 46.49378752 23.75551961 51.13453406 25.41552734 55.77587891 C28.02980077 63.08499667 30.6491359 70.39229386 33.26953125 77.69921875 C35.78237746 84.70633146 38.29508725 91.7134911 40.80493164 98.72167969 C41.38273628 100.33475761 41.38273628 100.33475761 41.97221375 101.98042297 C42.68492259 103.97024468 43.39743524 105.96013667 44.10969543 107.95011902 C44.43233871 108.85079605 44.75498199 109.75147308 45.08740234 110.67944336 C45.39861023 111.55003387 45.70981812 112.42062439 46.03045654 113.31759644 C46.71501198 115.21153316 47.41080367 117.1014267 48.11456299 118.98831177 C48.65847687 120.45118118 48.65847687 120.45118118 49.21337891 121.94360352 C49.54350983 122.82186295 49.87364075 123.70012238 50.21377563 124.60499573 C51.31017538 127.94485924 51.54486498 130.52648577 51 134 C47.92307692 139.53846154 47.92307692 139.53846154 45 141 C43.01171875 141.2734375 43.01171875 141.2734375 40.6875 141.375 C39.92824219 141.42398438 39.16898437 141.47296875 38.38671875 141.5234375 C34.79606362 140.73596158 32.9920749 138.95477463 31 136 C29.14948347 132.09191614 27.69359846 128.07318353 26.25 124 C25.85167969 122.91976562 25.45335937 121.83953125 25.04296875 120.7265625 C23.36366403 116.11559023 21.96607352 111.83036758 21 107 C4.17 107 -12.66 107 -30 107 C-30.99 110.3 -31.98 113.6 -33 117 C-34.08285091 120.31553025 -35.25213586 123.59487927 -36.4375 126.875 C-36.72431641 127.70257813 -37.01113281 128.53015625 -37.30664062 129.3828125 C-39.16923783 134.5267335 -40.8701338 138.4350669 -46 141 C-53.08958838 141.5811138 -53.08958838 141.5811138 -56.9375 139.125 C-60.33583928 135.62368075 -60.26215269 133.14125209 -60.20098877 128.44812012 C-59.8831262 124.57643234 -58.67024809 121.24234852 -57.2734375 117.640625 C-56.83028198 116.44299782 -56.83028198 116.44299782 -56.37817383 115.22117615 C-55.39017393 112.55904593 -54.38238276 109.90484936 -53.375 107.25 C-52.29535405 104.35531853 -51.22101609 101.45869744 -50.14663696 98.5620575 C-49.370664 96.47134184 -48.59292353 94.38128148 -47.81356812 92.29182434 C-44.56399438 83.56922267 -41.3947388 74.81936617 -38.25 66.05859375 C-38.00655476 65.38077221 -37.76310951 64.70295067 -37.51228714 64.00458908 C-35.3205662 57.90195601 -33.13142092 51.79840047 -30.94403076 45.69421387 C-27.98959036 37.45293309 -25.01208462 29.22041787 -22 21 C-21.68695923 20.13924866 -21.37391846 19.27849731 -21.0513916 18.3916626 C-20.27109169 16.26134916 -19.47283755 14.13916416 -18.6640625 12.01953125 C-18.25881348 10.94421143 -17.85356445 9.8688916 -17.43603516 8.76098633 C-13.35977503 0.92378372 -8.29742482 -0.95147536 0 0 Z M-5 37 C-7.42552468 43.65528279 -9.84609733 50.31235104 -12.26318359 56.97070312 C-13.08657875 59.23707146 -13.91112002 61.50302374 -14.73681641 63.76855469 C-15.92128989 67.01910256 -17.10167606 70.27110899 -18.28125 73.5234375 C-18.83903137 75.05005508 -18.83903137 75.05005508 -19.40808105 76.60751343 C-19.74843384 77.54833771 -20.08878662 78.48916199 -20.43945312 79.45849609 C-20.7414563 80.28900482 -21.04345947 81.11951355 -21.35461426 81.97518921 C-22.1012285 83.96339445 -22.1012285 83.96339445 -22 86 C-10.45 86 1.1 86 13 86 C11.0939637 79.01120022 9.1741754 72.35115697 6.64453125 65.61328125 C6.33803146 64.78539597 6.03153168 63.95751068 5.71574402 63.10453796 C4.75240395 60.50552946 3.78259 57.90899555 2.8125 55.3125 C2.15125928 53.53206195 1.49044845 51.75146419 0.83007812 49.97070312 C-0.77499719 45.6452779 -2.38587613 41.32205628 -4 37 C-4.33 37 -4.66 37 -5 37 Z " fill="#8A8A8A" transform="translate(356,269)"/>
</svg>
