<?xml version="1.0" encoding="UTF-8"?>
<svg version="1.1" xmlns="http://www.w3.org/2000/svg" width="512" height="512">
<path d="M0 0 C3.64783471 1.61891022 7.24812513 3.32597561 10.83666992 5.07177734 C11.48877441 5.3829248 12.14087891 5.69407227 12.81274414 6.01464844 C19.50434794 9.23717034 24.04736614 11.47942693 27.83666992 18.07177734 C28.82048774 21.0232308 28.89222158 22.54252709 28.7121582 25.58056641 C28.43934075 30.71361409 28.24925699 35.84417708 28.08813477 40.98193359 C28.0045956 43.18814157 27.89568263 45.39355155 27.76000977 47.59716797 C26.70497291 61.49149396 26.70497291 61.49149396 31.95678711 73.92919922 C36.47121927 78.98552991 41.11672157 83.9803795 48.08056641 84.97314453 C52.00833357 85.08246044 52.00833357 85.08246044 55.87963867 84.66552734 C59.63380307 84.09402244 63.35578055 83.79995114 67.14916992 83.57177734 C68.3634668 83.48669922 69.57776367 83.40162109 70.82885742 83.31396484 C75.47612533 83.01983396 80.11886569 82.80894245 84.77416992 82.69677734 C85.5551001 82.65875 86.33603027 82.62072266 87.140625 82.58154297 C93.16509906 82.49403592 97.30606582 84.05047869 101.83666992 88.07177734 C103.71032537 90.35673947 105.06397019 92.7549906 106.39916992 95.38427734 C106.77211182 96.08504395 107.14505371 96.78581055 107.52929688 97.5078125 C127.02960791 134.77618401 127.02960791 134.77618401 123.83666992 148.07177734 C120.42544723 157.11507082 110.93722805 164.42677911 103.83666992 170.63427734 C103.21791992 171.19501953 102.59916992 171.75576172 101.96166992 172.33349609 C99.83666992 174.07177734 99.83666992 174.07177734 96.89916992 175.84130859 C92.38183376 178.9469772 89.55404237 181.43820196 88.10913086 186.74267578 C86.79618974 194.74108224 86.05128203 204.15912665 90.17993164 211.44091797 C93.51110338 215.57806598 97.53197874 218.69677846 101.87866211 221.70947266 C104.64912171 223.63704928 107.18572517 225.78123342 109.77416992 227.94677734 C110.6378418 228.63900391 111.50151367 229.33123047 112.39135742 230.04443359 C124.18440152 239.82173373 124.18440152 239.82173373 125.20776367 246.48974609 C125.66916469 265.73288271 115.54064054 289.29750486 104.83666992 305.07177734 C101.64395469 308.18847554 98.16589823 310.92710016 93.58963013 311.21134949 C92.7702597 311.16166519 91.95088928 311.1119809 91.10668945 311.06079102 C90.17116241 311.01222458 89.23563538 310.96365814 88.27175903 310.91362 C87.26450775 310.85624161 86.25725647 310.79886322 85.21948242 310.73974609 C83.0633782 310.66078949 80.90711587 310.58605894 78.75073242 310.51513672 C75.36551742 310.39856528 71.98889087 310.26097568 68.6081543 310.05004883 C54.52084764 308.80206666 54.52084764 308.80206666 42.21459961 314.46875 C39.09775193 317.62482378 36.41207438 321.02051362 33.95016479 324.7077179 C33.58271149 325.15785751 33.21525818 325.60799713 32.83666992 326.07177734 C32.17666992 326.07177734 31.51666992 326.07177734 30.83666992 326.07177734 C30.98084351 327.85624268 30.98084351 327.85624268 31.12792969 329.67675781 C31.48536879 334.13034266 31.83104247 338.58477873 32.17333984 343.03955078 C32.32252178 344.9600464 32.47480729 346.88030375 32.63037109 348.80029297 C32.85463434 351.5751 33.06737199 354.3505991 33.27807617 357.12646484 C33.3488588 357.97167694 33.41964142 358.81688904 33.49256897 359.68771362 C34.00448501 366.66868303 34.31466712 373.86945007 31.33666992 380.32177734 C20.72652365 391.99293824 2.19980727 398.19220815 -12.35083008 403.19677734 C-13.18646484 403.49189209 -14.02209961 403.78700684 -14.88305664 404.09106445 C-21.64216575 406.30253603 -28.40782168 407.27354003 -35.28833008 405.07177734 C-43.53601655 399.33425632 -50.45479574 390.93664869 -56.24926758 382.79052734 C-61.27001198 376.11980194 -65.78056732 371.05400265 -74.31176758 369.61865234 C-81.92697233 369.00163248 -90.64515579 368.6202861 -96.96801758 373.52490234 C-99.886275 376.38184784 -101.98785292 379.62940466 -104.16333008 383.07177734 C-105.30128672 384.40924586 -106.46513428 385.72549613 -107.66333008 387.00927734 C-109.76915335 389.41448272 -111.81072452 391.86222111 -113.82348633 394.34521484 C-114.30172852 394.92795166 -114.7799707 395.51068848 -115.27270508 396.11108398 C-116.2178725 397.26443597 -117.15458951 398.42478297 -118.08129883 399.59301758 C-121.77799612 404.08485608 -124.87003442 406.66933605 -130.74658203 407.38745117 C-138.89703593 407.72249331 -145.78912255 405.77186948 -153.41333008 403.07177734 C-154.59193604 402.66604492 -155.77054199 402.2603125 -156.98486328 401.84228516 C-166.13123505 398.61585246 -174.73412576 394.85393191 -183.16333008 390.07177734 C-184.0321582 389.59869141 -184.90098633 389.12560547 -185.79614258 388.63818359 C-190.4851451 385.94074666 -193.13916381 383.38904203 -194.74127197 378.1998291 C-195.20313579 375.87107365 -195.16009458 373.95063766 -194.97875977 371.58544922 C-194.91670349 370.70352905 -194.85464722 369.82160889 -194.79071045 368.91296387 C-194.72289368 367.96505981 -194.6550769 367.01715576 -194.58520508 366.04052734 C-194.47330523 364.012089 -194.36536071 361.98342933 -194.26098633 359.95458984 C-194.09704698 356.76878348 -193.91483632 353.59093527 -193.66479492 350.41064453 C-192.20195016 337.50865256 -192.20195016 337.50865256 -196.97387695 326.06787109 C-200.08999726 322.98317292 -203.57922865 320.58053645 -207.16333008 318.07177734 C-207.70207764 317.31985107 -208.2408252 316.5679248 -208.79589844 315.79321289 C-210.02292212 313.87237839 -210.02292212 313.87237839 -212.22314453 313.6394043 C-213.4561731 313.69294067 -213.4561731 313.69294067 -214.71411133 313.74755859 C-215.69331543 313.78316895 -216.67251953 313.8187793 -217.68139648 313.85546875 C-218.83043457 313.92685059 -219.97947266 313.99823242 -221.16333008 314.07177734 C-221.82524353 314.11171814 -222.48715698 314.15165894 -223.16912842 314.19281006 C-229.37599992 314.57177307 -235.58252079 314.97371341 -241.78320312 315.44360352 C-244.15259636 315.6209311 -246.5226266 315.7758293 -248.89379883 315.92724609 C-249.96128609 316.01609322 -249.96128609 316.01609322 -251.05033875 316.10673523 C-256.88275379 316.44977809 -262.31414707 315.3990195 -266.97583008 311.59130859 C-277.47994415 296.49164462 -291.92039468 271.02226016 -290.62426758 252.25927734 C-288.79185962 243.56310397 -281.31145953 238.26979821 -274.95776367 232.67236328 C-271.6200655 229.69522734 -268.36534605 226.62864505 -265.10083008 223.57177734 C-264.1362085 222.67241455 -264.1362085 222.67241455 -263.15209961 221.75488281 C-259.79724681 218.6456021 -259.79724681 218.6456021 -256.59130859 215.38623047 C-255.16333008 214.07177734 -255.16333008 214.07177734 -253.16333008 214.07177734 C-253.49333008 213.08177734 -253.82333008 212.09177734 -254.16333008 211.07177734 C-254.15120276 209.52123813 -254.08613852 207.97078903 -253.98754883 206.42333984 C-253.337081 194.9682334 -253.337081 194.9682334 -258.06176758 184.97412109 C-260.97421019 182.11746318 -264.14829706 179.64679692 -267.47045898 177.28515625 C-269.58542514 175.76923733 -271.49327193 174.07556241 -273.41333008 172.32177734 C-275.51332455 170.49785973 -277.61828075 168.6799372 -279.72583008 166.86474609 C-290.56516841 157.3645702 -290.56516841 157.3645702 -291.56567383 151.85693359 C-292.68486536 133.70419287 -281.32321074 108.63607436 -271.16333008 94.07177734 C-267.85586044 90.45241912 -265.02615352 88.01660431 -260.16333008 87.07177734 C-258.04364014 87.09715271 -258.04364014 87.09715271 -255.74047852 87.30395508 C-254.87146912 87.37569443 -254.00245972 87.44743378 -253.1071167 87.52134705 C-252.17176086 87.59857498 -251.23640503 87.67580292 -250.27270508 87.75537109 C-247.2113977 87.94817347 -244.14944112 88.12591123 -241.0871582 88.30249023 C-238.99073519 88.43908026 -236.89590881 88.60330253 -234.80395508 88.79663086 C-221.22992409 90.1139354 -221.22992409 90.1139354 -209.14794922 84.75805664 C-201.08782588 77.53533593 -201.08782588 77.53533593 -197.19360352 67.76171875 C-197.09213564 63.65761031 -197.51333871 60.12513966 -198.16333008 56.07177734 C-198.3524977 53.63592028 -198.51940073 51.19822555 -198.66333008 48.75927734 C-198.74969727 47.54626953 -198.83606445 46.33326172 -198.92504883 45.08349609 C-199.22180748 40.41457205 -199.3890533 35.74913593 -199.47583008 31.07177734 C-199.50547852 30.28246826 -199.53512695 29.49315918 -199.56567383 28.67993164 C-199.62386478 22.98024933 -198.50979544 19.72190921 -195.16333008 15.07177734 C-193.14770508 13.35693359 -193.14770508 13.35693359 -190.91333008 12.13427734 C-189.58301758 11.4053125 -189.58301758 11.4053125 -188.22583008 10.66162109 C-187.21520508 10.13697266 -186.20458008 9.61232422 -185.16333008 9.07177734 C-184.02895508 8.45431641 -182.89458008 7.83685547 -181.72583008 7.20068359 C-167.87593217 -0.16659194 -150.23186779 -9.36593393 -134.16333008 -7.92822266 C-123.9317889 -4.73086604 -115.08829897 7.86574569 -109.07739258 16.38818359 C-104.99252767 21.85323961 -101.00161842 27.04196207 -94.17504883 28.87353516 C-85.75602281 29.89919038 -76.30535891 29.80021541 -69.05004883 25.02099609 C-66.89315171 22.46749368 -66.89315171 22.46749368 -65.19067383 19.45068359 C-62.63957991 15.1988604 -59.47381037 11.93142293 -56.03833008 8.38427734 C-54.8277978 7.10771312 -53.61939136 5.82912898 -52.41333008 4.54833984 C-51.85000977 3.95053711 -51.28668945 3.35273437 -50.70629883 2.73681641 C-48.23608203 0.07117106 -45.89156915 -2.6960813 -43.59301758 -5.51025391 C-33.23605213 -15.78232619 -10.98527179 -4.69463939 0 0 Z M-136.16333008 140.07177734 C-137.29641602 141.06757813 -137.29641602 141.06757813 -138.45239258 142.08349609 C-152.43818633 155.08403634 -161.65123788 174.1830037 -162.49926758 193.29833984 C-162.8549158 214.37049689 -158.19453674 233.73305128 -144.16333008 250.07177734 C-143.66704102 250.70986328 -143.17075195 251.34794922 -142.65942383 252.00537109 C-130.17319483 267.44015537 -111.15793194 275.94707807 -91.85083008 278.82177734 C-90.63395508 278.90427734 -89.41708008 278.98677734 -88.16333008 279.07177734 C-87.46981445 279.12333984 -86.77629883 279.17490234 -86.06176758 279.22802734 C-64.95807616 280.07499824 -44.40783967 271.76009273 -28.85083008 257.75927734 C-13.26158577 243.13616258 -4.33890973 223.33611487 -3.04223633 202.08740234 C-2.38331213 180.84678691 -10.20929559 161.08805028 -23.97583008 145.19677734 C-38.76337989 129.86322569 -58.19242567 120.27077915 -79.60058594 119.60083008 C-100.99363628 119.3936714 -120.19265051 125.41797837 -136.16333008 140.07177734 Z " fill="#8A8A8A" transform="translate(339.163330078125,56.92822265625)"/>
</svg>
